<svg width="35" height="26" viewBox="0 0 35 26" fill="none" xmlns="http://www.w3.org/2000/svg">
<path d="M23.535 20.9412V20.9412C23.4348 20.9412 23.3536 20.86 23.3536 20.7598V9.1765C23.3536 8.07193 24.249 7.1765 25.3536 7.1765H29.633C30.3355 7.1765 30.9865 7.5451 31.3479 8.14751L33.6568 11.9956C33.8433 12.3064 33.9418 12.6621 33.9418 13.0246V18.9412C33.9418 20.0458 33.0464 20.9412 31.9418 20.9412H29.5251" stroke="#C32138" stroke-miterlimit="10"/>
<path d="M7.47139 25.1765C9.22571 25.1765 10.6479 23.7543 10.6479 22C10.6479 20.2457 9.22571 18.8235 7.47139 18.8235C5.71708 18.8235 4.29492 20.2457 4.29492 22C4.29492 23.7543 5.71708 25.1765 7.47139 25.1765Z" stroke="#C32138" stroke-miterlimit="10"/>
<path d="M26.53 25.1765C28.2844 25.1765 29.7065 23.7543 29.7065 22C29.7065 20.2457 28.2844 18.8235 26.53 18.8235C24.7757 18.8235 23.3536 20.2457 23.3536 22C23.3536 23.7543 24.7757 25.1765 26.53 25.1765Z" stroke="#C32138" stroke-miterlimit="10"/>
<path d="M33.9418 12.4706H23.3536" stroke="#C32138" stroke-miterlimit="10"/>
<path d="M-1 25.1765H35" stroke="#C32138" stroke-miterlimit="10"/>
<path d="M4.4753 20.9412H3.00467C2.47424 20.9412 1.96553 20.7305 1.59045 20.3554L0.64438 19.4093C0.269308 19.0342 0.0585938 18.5255 0.0585938 17.9951V16.5882C0.0585938 15.4837 0.954024 14.5882 2.05859 14.5882H21.3527C22.4573 14.5882 23.3527 15.4837 23.3527 16.5882V18.9412C23.3527 20.0457 22.4573 20.9412 21.3527 20.9412H10.4654" stroke="#C32138" stroke-miterlimit="10"/>
<path d="M19.1181 14.5882H14.8828V12.4706C14.8828 11.301 15.8309 10.3529 17.0005 10.3529C18.17 10.3529 19.1181 11.301 19.1181 12.4706V14.5882Z" stroke="#C32138" stroke-miterlimit="10"/>
<path d="M17.0001 10.3529L8.05644 1.4093C7.68137 1.03423 7.17266 0.823517 6.64223 0.823517H6.29418C5.18961 0.823517 4.29418 1.71895 4.29418 2.82352V3.99999C4.29418 4.53003 4.60781 5.0154 5.09811 5.21672C5.90797 5.54933 6.46611 6.36921 6.40759 7.31156C6.34216 8.36615 5.48381 9.22444 4.42929 9.28987C3.57305 9.34302 2.81783 8.88702 2.4375 8.19568" stroke="#C32138" stroke-miterlimit="10"/>
</svg>
