<?xml version="1.0" encoding="utf-8"?>
<!-- Generator: Adobe Illustrator 27.6.1, SVG Export Plug-In . SVG Version: 6.00 Build 0)  -->
<svg version="1.1" id="Layer_1" xmlns="http://www.w3.org/2000/svg" xmlns:xlink="http://www.w3.org/1999/xlink" x="0px" y="0px"
	 viewBox="0 0 64 64" style="enable-background:new 0 0 64 64;" xml:space="preserve">
<style type="text/css">
	.st0{fill:#C23545;}
	.st1{fill:#3F3244;}
	.st2{fill:#51AB39;}
	.st3{fill:#B8B7BC;}
	.st4{fill:#F9A622;}
</style>
<g>
	<path class="st1" d="M3,8.2799568c0,0,18,3,25,10l-5.4699707,0.1699829l-0.7000122,0.0200195L3,19.0699348v30.3900261
		l9.2700195-0.3899536C11.6699829,47.25,11.4000244,45.289978,11.5300293,43.2600098
		c0.4399414-6.960022,5.6199951-12.75,12.2699585-14.1700439C24,29.039978,24.1900024,29,24.3900146,28.9699707
		c0.6499634-0.1099854,1.3099976-0.1799927,1.9799805-0.2099609C35.2199707,28.4099731,42.5,35.4799805,42.5,44.25
		c0,1.2299805-0.1400146,2.4299927-0.4199829,3.5799561l7.2799683-0.2999878L52,42.25l4-3l5-1v-6l-2.8300171-2.8200073L58,29.25
		v-8.1100578c0-0.7299805-0.5499878-1.3400269-1.2700195-1.4199829l-17.1199951-1.8500366
		C16.6099854,5.0799451,3,6.2799573,3,6.2799573V8.2799568z"/>
	<polygon class="st0" points="49.3599854,47.5299683 56,47.25 59,45.25 61,38.25 56,39.25 52,42.25 	"/>
	<g>
		<path class="st1" d="M15.4938288,44.2603951c0,1.7134247,0.3738937,3.3334198,1.0488558,4.7976875
			C18.359993,53.0146179,22.3684387,55.7665024,27,55.7665024c4.9742088,0,9.2215424-3.1776886,10.8207512-7.6015472
			c0.4465294-1.2253761,0.685421-2.5338478,0.685421-3.9045601c0-6.355381-5.1611862-11.5165672-11.5061722-11.5165672
			S15.4938288,37.905014,15.4938288,44.2603951z M18.3288708,48.9853821
			c-0.7685146-1.4019623-1.2046509-3.0115623-1.2046509-4.724987c0-5.4519234,4.4342518-9.8861732,9.8757801-9.8861732
			c5.4519234,0,9.8861732,4.4342499,9.8861732,9.8861732c0,1.4122925-0.3011932,2.7622795-0.8411522,3.9876556
			C34.5080566,51.7061462,31.0292358,54.1361122,27,54.1361122C23.2718945,54.1361122,20.0111732,52.0488548,18.3288708,48.9853821z
			 M15.4938288,44.2603951c0,1.7134247,0.3738937,3.3334198,1.0488558,4.7976875
			C18.359993,53.0146179,22.3684387,55.7665024,27,55.7665024c4.9742088,0,9.2215424-3.1776886,10.8207512-7.6015472
			c0.4465294-1.2253761,0.685421-2.5338478,0.685421-3.9045601c0-6.355381-5.1611862-11.5165672-11.5061722-11.5165672
			S15.4938288,37.905014,15.4938288,44.2603951z M18.3288708,48.9853821
			c-0.7685146-1.4019623-1.2046509-3.0115623-1.2046509-4.724987c0-5.4519234,4.4342518-9.8861732,9.8757801-9.8861732
			c5.4519234,0,9.8861732,4.4342499,9.8861732,9.8861732c0,1.4122925-0.3011932,2.7622795-0.8411522,3.9876556
			C34.5080566,51.7061462,31.0292358,54.1361122,27,54.1361122C23.2718945,54.1361122,20.0111732,52.0488548,18.3288708,48.9853821z
			 M14.1023254,44.7173195c0,0.0726357-0.0623055,0.1349411-0.135005,0.1349411h-0.4465313
			c0.0207262,0.5919304,0.0830317,1.1838646,0.1869154,1.7550049c0.0311213-0.010334,0.0519104,0,0.0830956,0.0103951
			c0.5088358,0.2804031,1.7238178,1.0177345,1.9730387,1.7757912c0.0207891,0.0727005-0.0207901,0.145401-0.0830946,0.1661263
			c-0.0207262,0.0103951-0.0311213,0.0103951-0.0415163,0.0103951c-0.0623045,0-0.1038208-0.0415154-0.1246099-0.0934258
			c-0.2077045-0.6335106-1.2980766-1.3188667-1.755003-1.5784836c0.1246109,0.6334457,0.2908001,1.2565613,0.5088367,1.8484306
			l0.4465303-0.1453362c0.0727005-0.0207901,0.135005,0.0207253,0.1557951,0.0830307
			c0.0311203,0.0727005-0.0103951,0.1453972-0.0830946,0.1661873l-0.4257421,0.145401
			c0.0207262,0.0519104,0.0311213,0.1038208,0.0623055,0.1453362c0.1765213,0.5088997,0.405015,0.9865494,0.6646309,1.4642677
			c0.0207262-0.0207901,0.0519104-0.0311852,0.0830307-0.0207901c0.5711412,0.1142159,1.9419193,0.4361343,2.4196339,1.08004
			c0.0415154,0.0623055,0.0311203,0.1453362-0.0311852,0.1869164c-0.0207253,0.0207253-0.0519104,0.0207253-0.0726357,0.0207253
			c-0.0415802,0-0.0830956-0.0103951-0.1038837-0.0519104c-0.4050159-0.5503502-1.6511192-0.8619423-2.1600189-0.9657631
			c0.3115892,0.5607491,0.6646309,1.100769,1.0592518,1.6096039l0.3738308-0.2803421
			c0.0519733-0.0415802,0.135004-0.0207901,0.1765842,0.0311203c0.0415154,0.0623055,0.0311203,0.145401-0.0207901,0.1869164
			l-0.3738308,0.2596169c0.3634357,0.4569244,0.7580566,0.8930588,1.1837978,1.3084717
			c0.0207901-0.0207901,0.0519733-0.0415154,0.0830956-0.0415154c0.5711403-0.0727005,1.9938278-0.1869164,2.6377316,0.2907333
			c0.0519104,0.0415802,0.0726376,0.1246109,0.0311222,0.1765213c-0.0311222,0.0311852-0.0727005,0.0519753-0.1038208,0.0519753
			c-0.0311852,0-0.0623055-0.0103951-0.0830956-0.0207901c-0.54002-0.394619-1.8277016-0.3115273-2.3469334-0.2492218
			c0.4673214,0.4257431,0.9657612,0.8307571,1.495388,1.1941948l0.280405-0.3738327
			c0.0415154-0.0623055,0.124609-0.0727005,0.1765194-0.0311203c0.0623055,0.0415154,0.0727005,0.1246109,0.0311852,0.1869164
			l-0.27001,0.3634338c0.4984417,0.3323174,1.0176716,0.6231155,1.5472965,0.8827324
			c0-0.0311852,0.0207901-0.0623055,0.0519104-0.0727005c0.5296268-0.2388878,1.8380985-0.7892418,2.5961552-0.54002
			c0.0623055,0.0207901,0.1038208,0.0934906,0.0830936,0.1661263c-0.0207882,0.0623055-0.0934887,0.1038857-0.1661892,0.0830956
			c-0.6334457-0.2077065-1.8069134,0.259613-2.29496,0.4881096c0.5711422,0.2699471,1.1630726,0.4880447,1.7757301,0.664566
			l0.1453991-0.4361343c0.0207901-0.0623055,0.0934887-0.1038208,0.1661892-0.0830956
			c0.0623055,0.0207901,0.1038208,0.0934906,0.0830307,0.1661873l-0.135004,0.4257431
			c0.5608101,0.1661873,1.1423454,0.2804031,1.7342758,0.3531036c0-0.0207901,0.0103321-0.0519104,0.0311222-0.0623055
			c0.4258041-0.405014,1.4953861-1.3188667,2.2950211-1.3188667c0.0727005,0,0.135006,0.0519104,0.135006,0.1246109
			s-0.0623055,0.1246109-0.135006,0.1246109c-0.664629,0-1.6407852,0.8204269-2.0250111,1.1734657
			C25.9511433,57.7188148,26.4703751,57.75,27,57.75c0.1142159,0,0.2284317,0,0.3427105-0.0103951v-0.4465294
			c0-0.0727005,0.0519104-0.135006,0.124609-0.135006c0.0727005,0,0.135006,0.0623055,0.135006,0.135006v0.4361343
			c0.6022625-0.0207901,1.1837978-0.0830956,1.755003-0.1973114c0-0.0207863,0-0.0415154,0.0103951-0.0623016
			c0.2803402-0.5088387,1.0176716-1.7238197,1.7757282-1.9731026c0.0727005-0.0207291,0.1453991,0.0207863,0.1661892,0.0830917
			c0.0207253,0.0727005-0.0103951,0.145401-0.0830956,0.1661911c-0.6334457,0.2076416-1.2980766,1.2668915-1.5680866,1.734211
			c0.6334457-0.114212,1.2461662-0.2907982,1.8380966-0.4984398l-0.1453991-0.4361992
			c-0.0207901-0.0623055,0.0103951-0.135006,0.0830956-0.1557312c0.0726986-0.0311852,0.1453362,0.0103951,0.1661243,0.0830307
			l0.135006,0.4154091c0.5607452-0.1973076,1.1007652-0.4465294,1.6199989-0.7269325
			c-0.0207901-0.0207291-0.0207901-0.0415192-0.0207901-0.0727005c0.1038818-0.5711441,0.4361992-1.9523125,1.08004-2.4195709
			c0.0623055-0.0415802,0.135006-0.0311852,0.1869164,0.0311203c0.0415154,0.0519104,0.0311203,0.135006-0.0311852,0.1765213
			c-0.5503502,0.405014-0.8515472,1.6407852-0.9657631,2.1496239c0.5608101-0.3115273,1.090374-0.6645699,1.5992737-1.0591888
			l-0.2700119-0.3634987c-0.0415802-0.0623055-0.0311852-0.135006,0.0311203-0.1869164
			c0.0519104-0.0415154,0.135006-0.0207901,0.1869164,0.0311852l0.2596169,0.3634338
			c0.4569244-0.3634338,0.8931236-0.7580566,1.2980766-1.1838608c-0.010334-0.0207253-0.0311203-0.0415154-0.0311203-0.0727005
			c-0.0727005-0.5815353-0.1869164-1.9938278,0.2804031-2.6376686c0.0519104-0.0623055,0.1349411-0.0727005,0.1869164-0.0311203
			c0.0519104,0.0415154,0.0727005,0.1246109,0.0311203,0.1869164c-0.394619,0.5295601-0.3115273,1.7965164-0.2492218,2.3261414
			c0.4361382-0.4673195,0.8307571-0.9657593,1.1838608-1.4953842l-0.3634987-0.2596169
			c-0.0623055-0.0415802-0.0726357-0.1246109-0.0311203-0.1765213c0.0415154-0.0623055,0.1246109-0.0727005,0.1765213-0.0311852
			l0.3634987,0.2492218c0.3322525-0.4880447,0.6230507-0.9968834,0.8722725-1.5265083
			c-0.0207901-0.0103951-0.0415154-0.0311852-0.0519104-0.0519104c-0.1869164-0.405014-0.54002-1.2461662-0.5919304-1.9627075
			c-0.0207901-0.2388878-0.0103951-0.4465294,0.0519104-0.6334457c0.0207901-0.0623665,0.0934906-0.1038857,0.1557961-0.0830956
			c0.0726967,0.0207291,0.1142159,0.0934258,0.0934258,0.1661263c-0.0519104,0.1557961-0.0623055,0.3323174-0.0415154,0.54002
			c0.0415154,0.6126595,0.3427086,1.3707771,0.5192299,1.7446098c0.0727005-0.145401,0.145401-0.3011322,0.2077026-0.4569283
			c0.1765213-0.4257393,0.3427124-0.8722687,0.4673233-1.3188629l-0.0623055-0.0207291l-0.3738937-0.1142769
			c-0.0727005-0.0207253-0.1038208-0.1038208-0.0830345-0.1661263c0.0207291-0.0727005,0.0934296-0.1038208,0.1661263-0.0830956
			l0.4154129,0.135006c0.1661263-0.5607452,0.2907333-1.1318893,0.3738289-1.7238197
			c-0.0311852,0-0.0519104-0.0103951-0.0830956-0.0415764c-0.394619-0.4257431-1.3188019-1.495388-1.3188019-2.29496
			c0-0.0727005,0.0623055-0.135006,0.1349411-0.135006c0.0727005,0,0.1246758,0.0623055,0.1246758,0.135006
			c0,0.6646309,0.809967,1.6407852,1.1734009,2.025013C40.4688148,45.2988548,40.5,44.7899551,40.5,44.25
			c0-0.1142159,0-0.2181015-0.0103951-0.3323135h-0.4465294c-0.0727005,0-0.135006-0.0519104-0.135006-0.1246109
			s0.0623055-0.135006,0.135006-0.135006h0.4361343c-0.0207253-0.6023254-0.0830307-1.1942558-0.1869164-1.7653961
			c-0.0103951,0.0103951-0.0103951,0.0103951-0.0207253,0.0103951c-0.0207901,0-0.0415802,0-0.0623665-0.0103951
			c-0.5088387-0.280407-1.7134247-1.0176735-1.9626465-1.775795c-0.0207901-0.0726357,0.0103951-0.1453362,0.0830307-0.1661263
			c0.0727005-0.0207863,0.145401,0.0103951,0.1661911,0.0830956c0.2077065,0.6438408,1.3084717,1.3291969,1.7550011,1.5784187
			c-0.1350021-0.6334457-0.3011932-1.2461014-0.5192299-1.8484268l-0.4361343,0.1453972
			c-0.0103951,0-0.0311852,0.010334-0.0415802,0.010334c-0.0519104,0-0.1038208-0.0415154-0.1246109-0.0934258
			c-0.0207901-0.0727005,0.0207901-0.145401,0.0830956-0.1661911l0.4257393-0.1349411
			c-0.0519104-0.145401-0.1038208-0.2907982-0.1661263-0.4361992c-0.1661873-0.404953-0.3531036-0.7892418-0.5711403-1.1734657
			c-0.0103951,0.0103951-0.0311852,0.0103951-0.0415764,0.0103951c-0.0103951,0-0.0103951,0-0.0207291,0
			c-0.5712051-0.1142159-1.9523125-0.4361382-2.419632-1.090374c-0.0415154-0.0519104-0.0311852-0.135006,0.0311203-0.1765213
			c0.0519753-0.0415764,0.135006-0.0311852,0.1765862,0.0311203c0.3842239,0.5296288,1.599205,0.8411522,2.1184387,0.9450378
			c-0.2907372-0.550415-0.6438408-1.08004-1.0384636-1.5784836l-0.3531036,0.2700119
			c-0.0207253,0.0103951-0.0519104,0.0207901-0.0830307,0.0207901c-0.0311852,0-0.0727005-0.0207901-0.1038857-0.0519753
			c-0.0415154-0.0623055-0.0207253-0.1453362,0.0311852-0.1869164l0.3530426-0.259613
			c-0.3634377-0.4673233-0.7580566-0.9034576-1.1837997-1.2980766c-0.0207901,0.0103912-0.0415802,0.0311813-0.0623055,0.0311813
			c-0.2388878,0.0311203-0.6231155,0.0623055-1.0384598,0.0623055c-0.5815392,0-1.2253799-0.0727005-1.5992737-0.3531036
			c-0.0623055-0.0415154-0.0727005-0.1246109-0.0311203-0.1765213c0.0415154-0.0623055,0.1246109-0.0727005,0.1765213-0.0311852
			c0.550415,0.3946228,1.8069115,0.3115921,2.3365364,0.2492867c-0.4673195-0.4361992-0.9553642-0.830822-1.4849892-1.1942558
			l-0.2700119,0.3738289c-0.0311203,0.0311852-0.0623055,0.0519104-0.1038208,0.0519104
			c-0.0311852,0-0.0519753-0.0103302-0.0830956-0.0207253c-0.0519104-0.0415802-0.0623055-0.1246109-0.0207901-0.1869164
			l0.2596169-0.3634987c-0.4880447-0.3323174-0.9968834-0.6230507-1.5369034-0.8826675
			c0,0.0311203-0.0207901,0.0623055-0.0519104,0.0727005c-0.4361992,0.1973114-1.3915653,0.6022606-2.149622,0.6022606
			c-0.1557941,0-0.3115253-0.0207253-0.4465313-0.0623055c-0.0727005-0.0207253-0.1038837-0.0934258-0.0830936-0.1661263
			c0.0207882-0.0623055,0.0934887-0.1038208,0.1661243-0.0830917c0.6335106,0.2077026,1.8173103-0.2700119,2.2950249-0.4880486
			c-0.5711441-0.27001-1.1630726-0.4985046-1.7861252-0.675024l-0.1453991,0.4465294
			c-0.0103951,0.0519104-0.0623055,0.0830956-0.1142159,0.0830956h-0.0415783
			c-0.0727005-0.0207901-0.1142159-0.0934887-0.0830326-0.1661263l0.134943-0.4258041
			c-0.5607471-0.1661263-1.1318874-0.2907372-1.7238197-0.3634357c0,0.0311203-0.0207882,0.0519104-0.0415154,0.0726986
			c-0.4258041,0.404953-1.5057812,1.3188038-2.295023,1.3188038c-0.0726986,0-0.135004-0.0519104-0.135004-0.1246109
			s0.0623055-0.135006,0.135004-0.135006c0.6542358,0,1.6303921-0.799572,2.025013-1.1630707
			C28.0592518,30.7811203,27.5296249,30.75,27,30.75c-0.1142159,0-0.2180996,0-0.3323154,0.0103951v0.4569244
			c0,0.0726376-0.0623055,0.134943-0.1246109,0.134943c-0.0726986,0-0.135004-0.0623055-0.135004-0.134943v-0.4465942
			c-0.5919304,0.0207901-1.1838608,0.0830956-1.755003,0.1869793c0.0103951,0.0311222,0,0.0519104-0.0103951,0.0830326
			c-0.2803402,0.5088348-1.0176716,1.7238808-1.7861233,1.9731026h-0.0311832c-0.0623055,0-0.1142159-0.0311852-0.1246109-0.0830956
			c-0.0311203-0.0727005,0.0103951-0.145401,0.0830936-0.1661263c0.6334476-0.2077065,1.3188667-1.2980766,1.5784836-1.755003
			c-0.6335106,0.1246109-1.2461681,0.2907372-1.8484936,0.5088367l0.145401,0.4465313
			c0.0207882,0.0623035-0.0207901,0.135004-0.0830956,0.1557941c-0.0207882,0.0103302-0.0311203,0.0103302-0.0415154,0.0103302
			c-0.0519104,0-0.1038837-0.0311203-0.1246109-0.0934258l-0.1453991-0.4361362
			c-0.550415,0.2076416-1.0903721,0.4569263-1.609602,0.7372684c0.0207253,0.0207901,0.0207253,0.0519104,0.0207253,0.0830956
			c-0.1142159,0.5711403-0.4361362,1.9523125-1.0903721,2.419632c-0.0207253,0.0207253-0.0519104,0.0207253-0.0727005,0.0207253
			c-0.0415154,0-0.0830307-0.0103302-0.1038208-0.0519104c-0.0415154-0.0519104-0.0311832-0.135006,0.0311222-0.1765213
			c0.54002-0.394619,0.8412151-1.6303902,0.9554291-2.1496201c-0.5608082,0.3011284-1.0903721,0.6542358-1.5992699,1.0488548
			l0.27001,0.3738289c0.0415783,0.0623055,0.0311832,0.135006-0.0207272,0.1869164
			c-0.0311832,0.0103951-0.0519733,0.0207901-0.0830936,0.0207901c-0.0415802,0-0.0727005-0.0207901-0.1038857-0.0519104
			l-0.2596149-0.3738937c-0.4569244,0.3634987-0.8930607,0.7581215-1.3084087,1.1838608
			c0.0207272,0.0207901,0.0415173,0.0519104,0.0415173,0.0830956c0.0623035,0.5815353,0.1765194,1.9938278-0.2908001,2.6376686
			c-0.0207272,0.0311852-0.0623055,0.0519753-0.1038208,0.0519753c-0.0311203,0-0.0519104-0.0103951-0.0727005-0.0207901
			C16.8022995,37.5830307,16.7919044,37.5,16.8334846,37.4376945c0.3946209-0.54002,0.3115253-1.8277016,0.2492199-2.3469315
			c-0.4361362,0.4673195-0.8411503,0.9761543-1.2046509,1.5057793h0.0103951l0.3738308,0.2700119
			c0.0519733,0.0415154,0.0727005,0.1246109,0.0311852,0.1765213c-0.0311852,0.0415154-0.0727005,0.0623055-0.1142159,0.0623055
			c-0.0207901,0-0.0519104-0.0103951-0.0727005-0.0311852l-0.3738308-0.2700119
			c-0.3219204,0.4881096-0.6127205,1.0073433-0.8827305,1.5369682c0.0415792,0.0103951,0.0623055,0.0311203,0.0727005,0.0623055
			c0.2492199,0.5296249,0.7996349,1.8380966,0.550415,2.5961533c-0.0207901,0.0519104-0.0727005,0.0830956-0.1246109,0.0830956
			h-0.0415783c-0.0623055-0.0207901-0.1038208-0.0934906-0.0830956-0.1661911
			c0.2077055-0.6334457-0.2699461-1.8173065-0.4880457-2.3053551c-0.2700109,0.5815353-0.4984417,1.1837997-0.6853571,1.7965202
			h0.0103312l0.4465313,0.135006c0.0623684,0.0207863,0.1038837,0.1038208,0.0830946,0.1661224
			c-0.0207262,0.0519753-0.0727005,0.0934906-0.1246109,0.0934906c-0.0207891,0-0.0311203,0-0.0415154-0.0103951
			l-0.4361992-0.1453972c-0.1557312,0.5711403-0.2803421,1.1527405-0.3530416,1.744606
			c0.0311213,0,0.0519104,0.0103951,0.0726995,0.0311852c0.3946209,0.4257393,1.3188038,1.495388,1.3188038,2.2950211
			c0,0.0726357-0.0519104,0.1349411-0.1246109,0.1349411c-0.0726366,0-0.135005-0.0623055-0.135005-0.1349411
			c0-0.6750259-0.8203611-1.6511803-1.1734028-2.035408C13.5311842,43.2011452,13.5,43.7203751,13.5,44.25
			c0,0.1142159,0,0.2284317,0.0103951,0.3426476h0.4569254C14.04002,44.5926476,14.1023254,44.644619,14.1023254,44.7173195z
			 M15.2342129,44.2603951c0-6.4903831,5.2857971-11.7761803,11.7657871-11.7761803
			c6.4903831,0,11.7657852,5.2857971,11.7657852,11.7761803c0,1.3603821-0.2388878,2.679184-0.6646271,3.8942299
			C36.4915543,52.7342148,32.119606,56.0261192,27,56.0261192c-4.7665672,0-8.8892288-2.8557701-10.7273254-6.9576416
			C15.6081076,47.6042099,15.2342129,45.9738197,15.2342129,44.2603951z M15.4938288,44.2603951
			c0,1.7134247,0.3738937,3.3334198,1.0488558,4.7976875C18.359993,53.0146179,22.3684387,55.7665024,27,55.7665024
			c4.9742088,0,9.2215424-3.1776886,10.8207512-7.6015472c0.4465294-1.2253761,0.685421-2.5338478,0.685421-3.9045601
			c0-6.355381-5.1611862-11.5165672-11.5061722-11.5165672S15.4938288,37.905014,15.4938288,44.2603951z M18.3288708,48.9853821
			c-0.7685146-1.4019623-1.2046509-3.0115623-1.2046509-4.724987c0-5.4519234,4.4342518-9.8861732,9.8757801-9.8861732
			c5.4519234,0,9.8861732,4.4342499,9.8861732,9.8861732c0,1.4122925-0.3011932,2.7622795-0.8411522,3.9876556
			C34.5080566,51.7061462,31.0292358,54.1361122,27,54.1361122C23.2718945,54.1361122,20.0111732,52.0488548,18.3288708,48.9853821z
			"/>
		<g>
			<path class="st0" d="M29.295023,36.8249741c-0.0207901,0.0623055,0.0207253,0.135006,0.0830307,0.1661911
				c0.135006,0.0415154,0.27001,0.0934258,0.3946209,0.1453362c0.0207901-0.0934258,0.0415783-0.1765213,0.0623055-0.2596169
				c-0.1246109-0.0519104-0.2492218-0.0934258-0.3738308-0.135006
				C29.3884487,36.7211533,29.3157482,36.7522736,29.295023,36.8249741z M32.9192429,39.4211273
				c0.1038208,0.1038857,0.1869164,0.2181015,0.2700119,0.3323174c0.0311203,0.0415154,0.0623055,0.0519104,0.1038208,0.0519104
				c0.0311813,0,0.0519104,0,0.0830917-0.0207253c0.0519104-0.0415802,0.0623055-0.1246758,0.0207291-0.1765862
				c-0.0830307-0.1142159-0.1661263-0.2180367-0.2596169-0.3219185L32.9192429,39.4211273z M33.604599,38.984993
				c0.1661911,0.1973114,0.3115273,0.405014,0.4569283,0.6230507c0.0207863,0.0207901,0.0311813,0.0415802,0.0415764,0.0727005
				c0.0830307,0.1142159,0.1557312,0.2388268,0.2284317,0.3634987c0.1038208,0.1765213,0.2077065,0.3634377,0.290802,0.550354
				c0.0830307,0.1661873,0.1557312,0.3323135,0.2180328,0.4984398c0.0415802,0.0934906,0.0830956,0.1869774,0.1142159,0.2804031
				c0.0415802,0.1246109,0.0830956,0.2492218,0.1246758,0.3738327c0.1038208,0.3219185,0.1869164,0.6542358,0.2388268,0.9865494
				c0.0311203,0.1661911,0.0623055,0.3323174,0.0830917,0.5088387c0.0311241,0.2077026,0.0415154,0.4154091,0.0519104,0.6231155
				c0.0103951,0.1350021,0.0103951,0.259613,0.0103951,0.394619c0,0.1246109,0,0.2596169-0.0103951,0.3842239
				c0.2596169-0.0103951,0.4153481-0.0207863,0.4153481-0.0207863c0.1973114-0.0207901,0.3531036-0.1661263,0.3634987-0.3634377
				v-0.0623055c0-0.1973114-0.0103951-0.405014-0.0311852-0.6023254c-0.0207253-0.4154091-0.0830307-0.8204269-0.1557312-1.2149811
				c-0.0311813-0.145401-0.0726967-0.280407-0.1038818-0.4258041c-0.0415154-0.145401-0.0830307-0.2907372-0.1246109-0.4361382
				c-0.0415154-0.1246109-0.0830956-0.2492218-0.1246109-0.3738289c-0.0519104-0.1661911-0.1142159-0.3219223-0.1869164-0.4777184
				c-0.1142159-0.2804031-0.249218-0.550415-0.3842239-0.8100281c-0.145401-0.2596169-0.3011322-0.5192299-0.4673195-0.7580566
				c-0.0519104-0.0830956-0.1038208-0.1661263-0.1661263-0.2492218c-0.0103951-0.0103951-0.0207901-0.0311852-0.0311852-0.0207901
				c-0.135006-0.1557312-0.3323135-0.1765213-0.4984398-0.0727005L33.604599,38.984993z M34.6430626,44.6965294
				c0.0934868-0.0103951,0.1765823-0.0103951,0.259613-0.0207863c0.0207901-0.135006,0.0207901-0.2596169,0.0207901-0.3946228
				c0-0.0727005-0.0623055-0.135006-0.135006-0.135006c-0.0726967,0-0.1246071,0.0623055-0.1246071,0.135006
				C34.6638527,44.4161263,34.6534576,44.5615273,34.6430626,44.6965294z M19.0869274,44.2811203
				c0,0.135006,0,0.2596169,0.0103951,0.3946228c0.0830326,0.0103912,0.1765213,0.0103912,0.2596149,0.0207863
				c-0.0103931-0.1350021-0.0103931-0.2804031-0.0103931-0.4154091c0-0.0727005-0.0623055-0.135006-0.135006-0.135006
				S19.0869274,44.2084198,19.0869274,44.2811203z M23.9158001,35.9319115c0,0,0.0415154,0.1557961,0.1038208,0.4154129
				c0.2388248-0.0934906,0.4880466-0.1765862,0.7476616-0.2492867c0.0415783-0.0103302,0.0830936-0.0207253,0.1246109-0.0311203
				c0.2180996-0.0623055,0.4361992-0.1038818,0.664629-0.145401c0.1246109-0.0207863,0.2492218-0.0415154,0.3738327-0.0623016
				c0.1661892-0.0103951,0.3323135-0.0311241,0.4985046-0.0415192C26.6157742,35.8073044,26.8026905,35.7969093,27,35.7969093
				s0.3842258,0.0103951,0.5711403,0.0207863c0.1661911,0.0103951,0.3323154,0.0311241,0.4985046,0.0415192
				c0.1246109,0.0207863,0.2492218,0.0415154,0.3738327,0.0623016c0.2284298,0.0415192,0.4465294,0.0830956,0.664629,0.145401
				c0.0519104,0.0103951,0.0934277,0.0207901,0.134943,0.0311203v0.0103951
				c0.2492828,0.0623055,0.4985046,0.145401,0.7373295,0.2388916c0.0623055-0.2596169,0.1038208-0.4154129,0.1038208-0.4154129
				c0.0519733-0.1973076-0.0519104-0.405014-0.2492199-0.4673195c-0.2596149-0.0830956-0.5296249-0.1557312-0.809967-0.2180977
				c-0.1973114-0.0415154-0.3842258-0.0830345-0.5815353-0.1142159c-0.2388897-0.0415154-0.4985046-0.0727005-0.7477264-0.0830307
				c-0.2284317-0.0207901-0.4465313-0.0311852-0.6749611-0.0311852c-0.0103951,0-0.0103951,0-0.0207901,0
				c-0.2388268,0-0.4673195,0.0103951-0.7061462,0.0311852c-0.0727005,0-0.1557941,0.0103302-0.2388268,0.0207253
				c-0.1557941,0.0103951-0.3219204,0.0415764-0.4881096,0.0623055c-0.2077045,0.0311813-0.4257412,0.0727005-0.6334457,0.1246109
				c-0.0830956,0.0103912-0.1557941,0.0311813-0.2388268,0.0519714c-0.1765823,0.0519104-0.3531036,0.1038208-0.5192299,0.1557312
				C23.9781055,35.5268974,23.8638268,35.7346039,23.9158001,35.9319115z M24.16502,36.8768845
				c0.0207272,0.0830956,0.0415154,0.1661911,0.0623055,0.2596169c0.135006-0.0519104,0.2596149-0.1038208,0.3946209-0.1453362
				c0.0726986-0.0311852,0.1142159-0.1038857,0.0934258-0.1661911c-0.0311203-0.0727005-0.0934258-0.1038208-0.1661263-0.0830956
				C24.4246349,36.7834587,24.2896309,36.8249741,24.16502,36.8768845z M20.6342258,39.7846298
				c0.0207901,0.0207253,0.0519104,0.0207253,0.0727005,0.0207253c0.0415154,0,0.0830936-0.0103951,0.1038208-0.0519104
				c0.0830936-0.1142159,0.1661892-0.2284317,0.27001-0.3323174l-0.2180367-0.1453972
				c-0.0934906,0.1038818-0.1765842,0.2180977-0.2596149,0.3323135
				C20.5615253,39.6599541,20.5719204,39.7430496,20.6342258,39.7846298z M17.7680626,44.1980896v0.0311203
				c0,0.2077065,0.1661892,0.3738327,0.3634987,0.3946228c0,0,0.1557312,0.0103912,0.4257412,0.0207863
				c-0.0103951-0.1246071-0.0103951-0.259613-0.0103951-0.3842239c0-0.135006,0-0.2596169,0.0103951-0.394619
				c0.0103951-0.2181015,0.0311852-0.436203,0.0519104-0.6542358c0.0207901-0.1246109,0.0311852-0.2388916,0.0519104-0.3531075
				c0.0207901-0.1038208,0.0415783-0.2077026,0.0623684-0.3011284c0.0830307-0.4465332,0.2180367-0.8827324,0.3738308-1.3084717
				c0.0415154-0.0934906,0.0727005-0.1869164,0.1142159-0.280407c0.2077045-0.4776497,0.4465313-0.9345779,0.7269363-1.3603821
				c0.1453991-0.2180367,0.3011303-0.4257393,0.4569244-0.6230507l-0.3531036-0.2284966
				c-0.1661263-0.1142159-0.3946209-0.0726357-0.5192318,0.0934906c-0.0103951,0.0103951-0.0103951,0.0207901-0.0207253,0.0311203
				c-0.1142788,0.1557961-0.2284946,0.3219833-0.3219833,0.4881096c-0.1142159,0.1557961-0.2076416,0.3219223-0.2907372,0.4880486
				c-0.0727005,0.135006-0.1453991,0.2700081-0.2077045,0.405014c-0.1038208,0.1973114-0.1973114,0.405014-0.27001,0.6231155
				c-0.0727005,0.1661263-0.135006,0.3322525-0.1869164,0.5088348c-0.0830936,0.2492218-0.1557312,0.5088387-0.2180367,0.7684517
				c-0.0415783,0.1661263-0.0726986,0.3427124-0.1038837,0.5088348c-0.0519104,0.3011322-0.0934258,0.6127205-0.1038208,0.9242477
				C17.7784557,43.7930756,17.7680626,44.0007782,17.7680626,44.1980896z M20.3538208,48.5595779
				c0.0830956,0.1142769,0.1557941,0.2180977,0.2284946,0.3323135c0.0103951,0,0.0103951,0.0103951,0.0103951,0.0103951
				c0.0207253,0.0311852,0.0623055,0.0519104,0.1038208,0.0519104c0.0311832,0,0.0519104-0.0103951,0.0726986-0.0207253
				c0.0207901-0.0103951,0.0415173-0.0311852,0.0415173-0.0519753c0.0207882-0.0415154,0.0207882-0.0934258-0.0103321-0.1350021
				c-0.0830956-0.1142159-0.1661892-0.2284317-0.2388897-0.3530426
				C20.4888268,48.4453621,20.4265213,48.5076675,20.3538208,48.5595779z M19.5542488,49.7019234
				c0.1038208,0.1557312,0.2180367,0.3011322,0.3426456,0.4361343c0.0830956,0.1038208,0.1765842,0.2181015,0.280405,0.3219223
				c0.0934906,0.1142159,0.1973114,0.2180977,0.3011322,0.3219185c0.1038837,0.1038857,0.2077045,0.2077065,0.3219833,0.3011322
				c0.2180367,0.2077065,0.4465313,0.3946228,0.6853561,0.5712051c0.1038208,0.0727005,0.1973114,0.1453362,0.3115273,0.2180367
				c0.5296249,0.3738937,1.1007652,0.685421,1.7030907,0.9242439c0.2077065,0.0830956,0.415411,0.1557961,0.6230526,0.2284966
				c0.1973095,0.0623055,0.4154091-0.0415802,0.4881096-0.2284966c0,0,0.0623055-0.1453972,0.1557312-0.394619
				c-0.2596149-0.0623055-0.5088367-0.135006-0.7476616-0.2388268c-0.1765213-0.0623055-0.3531055-0.1350021-0.5296268-0.2180977
				c-0.3011303-0.135006-0.5919304-0.2907372-0.8722706-0.4569283c-0.8412151-0.5192299-1.5992718-1.1734657-2.2119293-1.9523125
				c-0.1661892-0.1973076-0.3219204-0.4049492-0.4465942-0.6230507c-0.0103302,0-0.0103302-0.0103951-0.0103302-0.0103951
				c-0.0103951,0.0103951-0.0207901,0.0103951-0.0207901,0.0103951c-0.1973095,0.1661263-0.3115253,0.2596169-0.3115253,0.2596169
				C19.4607582,49.2969093,19.4296379,49.5357323,19.5542488,49.7019234z M24.4869404,51.6334457
				c-0.0207882,0.0727005,0.0103951,0.145401,0.0830326,0.1661263c0.1246719,0.0415802,0.2492828,0.0727005,0.3842888,0.1038857
				c0.0415154-0.0727005,0.0623055-0.1557961,0.1038208-0.2388268c-0.135006-0.0311852-0.27001-0.0727005-0.4050159-0.1142807
				C24.5803661,51.5296249,24.5076675,51.5711403,24.4869404,51.6334457z M28.9523125,51.6646309
				c0.0415154,0.0830307,0.0623055,0.1661263,0.1038208,0.2388268c0.135006-0.0311852,0.2596149-0.0623055,0.3842258-0.1038857
				c0.0623055-0.0207253,0.1038837-0.0934258,0.0830956-0.1661263c-0.0207901-0.0623055-0.0934277-0.1038208-0.1661263-0.0830956
				C29.2223225,51.5919304,29.0873184,51.6334457,28.9523125,51.6646309z M29.2430496,52.4018974
				c0.0934887,0.2492218,0.1557941,0.394619,0.1557941,0.394619c0.0623055,0.1557961,0.2077045,0.2492218,0.3634357,0.2492218
				c0.0311852,0,0.0519733-0.0103951,0.0830956-0.0207253c0.0103951,0,0.0103951,0,0.0207882,0h0.0103951
				c0.2284317-0.0727005,0.4569263-0.1557961,0.685358-0.2492828c0.4361343-0.1869164,0.8619404-0.404953,1.2669544-0.6542358
				c0.1765232-0.1038208,0.3426456-0.2076416,0.4984417-0.3322525c0.7892418-0.550415,1.495388-1.2357712,2.0665283-2.0146179
				c0.0207901-0.0207901,0.0415154-0.0519753,0.0623055-0.0727005c0.0103951-0.0103951,0.0207901-0.0311852,0.0207901-0.0415802
				c0.0934258-0.1557312,0.0623055-0.3738289-0.0934906-0.4880447l-0.3219185-0.2700119
				c-0.145401,0.2181015-0.3011322,0.4361382-0.4569283,0.6334457c-0.4569244,0.5608101-0.9657593,1.0592537-1.5472946,1.495388
				c-0.1038227,0.0830956-0.2181015,0.1557961-0.3323174,0.2388916c-0.2284317,0.1453362-0.4673195,0.2907333-0.7061462,0.4257393
				c-0.1661263,0.0934906-0.3323154,0.1765213-0.4984417,0.2492218c-0.1765842,0.0830956-0.3531036,0.1557922-0.5296249,0.2180977
				C29.7519493,52.2564964,29.5026646,52.339592,29.2430496,52.4018974z M33.2307701,48.9334717
				c0.0207901,0.0103302,0.0519104,0.0207253,0.0830956,0.0207253c0.0311203,0,0.0726967-0.0207253,0.1038208-0.0519104
				c0.0830917-0.1142159,0.1557922-0.2284317,0.2284927-0.3427086l-0.2077065-0.1661263
				c-0.0726967,0.1246109-0.1557922,0.2388268-0.2388878,0.3530426
				C33.1580696,48.8088608,33.1788597,48.8918915,33.2307701,48.9334717z"/>
			<path class="st0" d="M17.7680626,44.1980896v0.0623055c0,1.7134247,0.4777145,3.3230247,1.2980766,4.6938019
				c0.1453991,0.2596169,0.3115253,0.5088387,0.4881096,0.7477264c0.1038208,0.1557312,0.2180367,0.3011322,0.3426456,0.4361343
				c0.0830956,0.1038208,0.1765842,0.2181015,0.280405,0.3219223c0.0934906,0.1142159,0.1973114,0.2180977,0.3011322,0.3219185
				c0.1038837,0.1038857,0.2077045,0.2077065,0.3219833,0.3011322c0.2180367,0.2077065,0.4465313,0.3946228,0.6853561,0.5712051
				c0.1038208,0.0727005,0.1973114,0.1453362,0.3115273,0.2180367c0.5296249,0.3738937,1.1007652,0.685421,1.7030907,0.9242439
				c0.2077065,0.0830956,0.415411,0.1557961,0.6230526,0.2284966C25.0268974,53.3261452,25.9927235,53.4922714,27,53.4922714
				c0.9553661,0,1.890007-0.1557312,2.7622795-0.4465332c0.0311852,0,0.0519733-0.0103951,0.0830956-0.0207253
				c0.0103951,0,0.0103951,0,0.0207882,0h0.0103951c0.2284317-0.0727005,0.4569263-0.1557961,0.685358-0.2492828
				c0.4361343-0.1869164,0.8619404-0.404953,1.2669544-0.6542358c0.1765232-0.1038208,0.3426456-0.2076416,0.4984417-0.3322525
				c0.7892418-0.550415,1.495388-1.2357712,2.0665283-2.0146179c0.0311852-0.0311852,0.0623055-0.0727005,0.0830956-0.1142807
				c0.3115234-0.4361343,0.5919304-0.8930626,0.8203621-1.3811073c0.6023254-1.2150459,0.934639-2.575428,0.934639-4.0188408
				v-0.0623055c0-0.1973114-0.0103951-0.405014-0.0311852-0.6023254c-0.0207253-0.4154091-0.0830307-0.8204269-0.1557312-1.2149811
				c-0.0311813-0.145401-0.0726967-0.280407-0.1038818-0.4258041c-0.0415154-0.145401-0.0830307-0.2907372-0.1246109-0.4361382
				c-0.0415154-0.1246109-0.0830956-0.2492218-0.1246109-0.3738289c-0.0519104-0.1661911-0.1142159-0.3219223-0.1869164-0.4777184
				c-0.1142159-0.2804031-0.249218-0.550415-0.3842239-0.8100281c-0.145401-0.2596169-0.3011322-0.5192299-0.4673195-0.7580566
				c-0.0623055-0.0934258-0.1246109-0.1869164-0.1973114-0.2700119c-1.1318893-1.5680847-2.7415543-2.7622795-4.6211662-3.3646049
				c-0.2596149-0.0830956-0.5296249-0.1557312-0.809967-0.2180977c-0.1973114-0.0415154-0.3842258-0.0830345-0.5815353-0.1142159
				c-0.2388897-0.0415154-0.4985046-0.0727005-0.7477264-0.0830307c-0.2284317-0.0207901-0.4465313-0.0311852-0.6749611-0.0311852
				c-0.0103951,0-0.0103951,0-0.0207901,0c-0.2388268,0-0.4673195,0.0103951-0.7061462,0.0311852
				c-0.0727005,0-0.1557941,0.0103302-0.2388268,0.0207253c-0.1557941,0.0103951-0.3219204,0.0415764-0.4881096,0.0623055
				c-0.2077045,0.0311813-0.4257412,0.0727005-0.6334457,0.1246109c-0.0830956,0.0103912-0.1557941,0.0311813-0.2388268,0.0519714
				c-0.1765823,0.0519104-0.3531036,0.1038208-0.5192299,0.1557312c-1.890007,0.6023254-3.510006,1.8069153-4.6523514,3.3853951
				c-0.0103951,0.0103951-0.0103951,0.0207901-0.0207253,0.0311203c-0.1142788,0.1557961-0.2284946,0.3219833-0.3219833,0.4881096
				c-0.1142159,0.1557961-0.2076416,0.3219223-0.2907372,0.4880486c-0.0727005,0.135006-0.1453991,0.2700081-0.2077045,0.405014
				c-0.1038208,0.1973114-0.1973114,0.405014-0.27001,0.6231155c-0.0727005,0.1661263-0.135006,0.3322525-0.1869164,0.5088348
				c-0.0830936,0.2492218-0.1557312,0.5088387-0.2180367,0.7684517c-0.0415783,0.1661263-0.0726986,0.3427124-0.1038837,0.5088348
				c-0.0519104,0.3011322-0.0934258,0.6127205-0.1038208,0.9242477
				C17.7784557,43.7930756,17.7680626,44.0007782,17.7680626,44.1980896z M18.5573025,44.644619
				c-0.0103951-0.1246071-0.0103951-0.259613-0.0103951-0.3842239c0-0.135006,0-0.2596169,0.0103951-0.394619
				c0.0103951-0.2181015,0.0311852-0.436203,0.0519104-0.6542358c0.0207901-0.1246109,0.0311852-0.2388916,0.0519104-0.3531075
				c0.0207901-0.1038208,0.0415783-0.2077026,0.0623684-0.3011284c0.0830307-0.4465332,0.2180367-0.8827324,0.3738308-1.3084717
				c0.0415154-0.0934906,0.0727005-0.1869164,0.1142159-0.280407c0.2077045-0.4776497,0.4465313-0.9345779,0.7269363-1.3603821
				c0.1453991-0.2180367,0.3011303-0.4257393,0.4569244-0.6230507c0.944973-1.1838608,2.1911392-2.1081085,3.6242218-2.6376686
				c0.2388248-0.0934906,0.4880466-0.1765862,0.7476616-0.2492867c0.0415783-0.0103302,0.0830936-0.0207253,0.1246109-0.0311203
				c0.2180996-0.0623055,0.4361992-0.1038818,0.664629-0.145401c0.1246109-0.0207863,0.2492218-0.0415154,0.3738327-0.0623016
				c0.1661892-0.0103951,0.3323135-0.0311241,0.4985046-0.0415192C26.6157742,35.8073044,26.8026905,35.7969093,27,35.7969093
				s0.3842258,0.0103951,0.5711403,0.0207863c0.1661911,0.0103951,0.3323154,0.0311241,0.4985046,0.0415192
				c0.1246109,0.0207863,0.2492218,0.0415154,0.3738327,0.0623016c0.2284298,0.0415192,0.4465294,0.0830956,0.664629,0.145401
				c0.0519104,0.0103951,0.0934277,0.0207901,0.134943,0.0415154c0.2492828,0.0623055,0.4985046,0.145401,0.7373295,0.2388916
				c1.4330826,0.5295601,2.689642,1.4538078,3.6242199,2.6376686c0.1661911,0.1973114,0.3115273,0.405014,0.4569283,0.6230507
				c0.0207863,0.0207901,0.0311813,0.0415802,0.0415764,0.0727005c0.0830307,0.1142159,0.1557312,0.2388268,0.2284317,0.3634987
				c0.1038208,0.1765213,0.2077065,0.3634377,0.290802,0.550354c0.0830307,0.1661873,0.1557312,0.3323135,0.2180328,0.4984398
				c0.0415802,0.0934906,0.0830956,0.1869774,0.1142159,0.2804031c0.0415802,0.1246109,0.0830956,0.2492218,0.1246758,0.3738327
				c0.1038208,0.3219185,0.1869164,0.6542358,0.2388268,0.9865494c0.0415154,0.1661911,0.0623055,0.3323174,0.0830917,0.5088387
				c0.0311241,0.2077026,0.0415154,0.4154091,0.0519104,0.6231155c0.0103951,0.1350021,0.0103951,0.259613,0.0103951,0.394619
				c0,0.1246109,0,0.2596169-0.0103951,0.3842239c-0.0623055,1.3292007-0.4258041,2.575367-1.0384598,3.6657372
				c-0.1038857,0.2077065-0.2284966,0.405014-0.3531036,0.5919304c-0.145401,0.2181015-0.3011322,0.4361382-0.4569283,0.6334457
				c-0.4569244,0.5608101-0.9657593,1.0592537-1.5472946,1.495388c-0.1038227,0.0830956-0.2181015,0.1557961-0.3323174,0.2388916
				c-0.2284317,0.1453362-0.4673195,0.2907333-0.7061462,0.4257393c-0.1661263,0.0934906-0.3323154,0.1765213-0.4984417,0.2492218
				c-0.1765842,0.0830956-0.3531036,0.1557922-0.5296249,0.2180977c-0.2388248,0.0934258-0.4881096,0.1765213-0.7477245,0.2388268
				C28.5369034,52.6096039,27.7788467,52.7134247,27,52.7134247s-1.5265083-0.1038208-2.2327175-0.3115273
				c-0.2596149-0.0623055-0.5088367-0.135006-0.7476616-0.2388268c-0.1765213-0.0623055-0.3531055-0.1350021-0.5296268-0.2180977
				c-0.3011303-0.135006-0.5919304-0.2907372-0.8722706-0.4569283c-0.8412151-0.5192299-1.5992718-1.1734657-2.2119293-1.9523125
				c-0.1661892-0.1973076-0.3219204-0.4049492-0.4465942-0.6230507c-0.0103302,0-0.0103302-0.0103951-0.0103302-0.0103951
				C19.1284447,47.6665154,18.630003,46.2127075,18.5573025,44.644619z"/>
			<path class="st0" d="M16.8646049,44.2603951c0,1.7134247,0.4258041,3.3230247,1.1734676,4.7353821
				C19.7411633,52.204586,23.1265583,54.3957253,27,54.3957253c4.18503,0,7.7884598-2.544178,9.3357582-6.1684647
				c0.5192299-1.2149811,0.8100319-2.5545731,0.8100319-3.9668655c0-5.5973244-4.5484657-10.1457901-10.1457901-10.1457901
				C21.4130726,34.1146049,16.8646049,38.6630707,16.8646049,44.2603951z M17.1242199,44.2603951
				c0-5.4519234,4.4342518-9.8861732,9.8757801-9.8861732c5.4519234,0,9.8861732,4.4342499,9.8861732,9.8861732
				c0,1.4122925-0.3011932,2.7622795-0.8411522,3.9876556C34.5080566,51.7061462,31.0292358,54.1361122,27,54.1361122
				c-3.7281055,0-6.9888268-2.0872574-8.6711292-5.1507301C17.5603561,47.5834198,17.1242199,45.9738197,17.1242199,44.2603951z"/>
			<path class="st0" d="M18.5469074,44.2603951c0,0.1246109,0,0.2596169,0.0103951,0.3842239
				c0.1453991,0.0103951,0.3323154,0.0207291,0.54002,0.0311241c-0.0103951-0.135006-0.0103951-0.2596169-0.0103951-0.3946228
				c0-0.0727005,0.0519104-0.135006,0.1246109-0.135006s0.135006,0.0623055,0.135006,0.135006
				c0,0.135006,0,0.280407,0.0103931,0.4154091c0.9242477,0.0519104,2.1807442,0.1142159,3.0322914,0.1661263
				c0.3427086,0.0207901,0.6438408,0.2700119,0.7684517,0.6542358c0.1142139,0.3635025,0.0207882,0.7373314-0.2492218,0.9554329
				c-0.6542358,0.5399551-1.619997,1.3291969-2.3469334,1.9211273c0.0727005,0.1246109,0.1557941,0.2388268,0.2388897,0.3530426
				c0.0311203,0.0415764,0.0311203,0.0934868,0.0103321,0.1350021c0,0.0207901-0.0207272,0.0415802-0.0415173,0.0519753
				c-0.0207882,0.0103302-0.0415154,0.0207253-0.0726986,0.0207253c-0.0415154,0-0.0830956-0.0207253-0.1038208-0.0519104
				c0,0,0-0.0103951-0.0103951-0.0103951c-0.0727005-0.1142159-0.1453991-0.2180367-0.2284946-0.3323135
				c-0.1557312,0.1246109-0.2907372,0.2492828-0.4049511,0.3427086c0,0,0,0.0103951,0.0103302,0.0103951
				c0.1246738,0.2181015,0.280405,0.4257431,0.4465942,0.6230507c0.6126575,0.7788467,1.3707142,1.4330826,2.2119293,1.9523125
				c0.2803402,0.1661911,0.5711403,0.3219223,0.8722706,0.4569283c0.1765213,0.0830956,0.3531055,0.1557922,0.5296268,0.2180977
				c0.2388248,0.1038208,0.4880466,0.1765213,0.7476616,0.2388268c0.0519733-0.135006,0.1142788-0.3011322,0.1869793-0.4880447
				v-0.0103951c-0.135006-0.0311852-0.2596169-0.0623055-0.3842888-0.1038857
				c-0.0726376-0.0207253-0.1038208-0.0934258-0.0830326-0.1661263c0.0207272-0.0623055,0.0934258-0.1038208,0.1661263-0.0830956
				c0.135006,0.0415802,0.27001,0.0830956,0.4050159,0.1142807c0.3323154-0.8619423,0.7892399-2.035408,1.1007652-2.8350449
				c0.0207901-0.0623055,0.0623055-0.1246071,0.1038208-0.1765175c0.1557961-0.2181015,0.425806-0.3531075,0.7581215-0.3531075
				c0,0,0,0,0.0103951,0c0.2699451,0,0.5088348,0.1038857,0.6749611,0.290802
				c0.0623055,0.0726967,0.1142159,0.1453972,0.1453991,0.2388229c0.3115273,0.7996368,0.7684517,1.9731026,1.1007671,2.8350449
				c0.135006-0.0311852,0.27001-0.0727005,0.4050159-0.1142807c0.0726986-0.0207253,0.1453362,0.0207901,0.1661263,0.0830956
				c0.0207882,0.0727005-0.0207901,0.145401-0.0830956,0.1661263c-0.1246109,0.0415802-0.2492199,0.0727005-0.3842258,0.1038857
				c0.0727005,0.1869125,0.135006,0.3634338,0.1869164,0.4984398c0.2596149-0.0623055,0.5088997-0.145401,0.7477245-0.2388268
				c0.1765213-0.0623055,0.3530407-0.1350021,0.5296249-0.2180977c0.1661263-0.0727005,0.3323154-0.1557312,0.4984417-0.2492218
				c0.2388268-0.135006,0.4777145-0.2804031,0.7061462-0.4257393c0.1142159-0.0830956,0.2284946-0.1557961,0.3323174-0.2388916
				c0.5815353-0.4361343,1.0903702-0.9345779,1.5472946-1.495388c0.1557961-0.1973076,0.3115273-0.4153442,0.4569283-0.6334457
				l-0.4153481-0.3427086c-0.0727005,0.1142769-0.145401,0.2284927-0.2284927,0.3427086
				c-0.0311241,0.0311852-0.0727005,0.0519104-0.1038208,0.0519104c-0.0311852,0-0.0623055-0.0103951-0.0830956-0.0207253
				c-0.0519104-0.0415802-0.0727005-0.1246109-0.0311852-0.1869774c0.0830956-0.1142159,0.1661911-0.2284317,0.2388878-0.3530426
				l-0.0519104-0.0415154l-2.284626-1.879612c-0.27001-0.2181015-0.3635006-0.5919304-0.2388897-0.9865532
				c0.1142788-0.3531036,0.4050159-0.6023254,0.7581196-0.6231155c0.8515472-0.0519104,2.0976486-0.1142159,3.0218964-0.1661263
				c0.0103951-0.1350021,0.0207901-0.2804031,0.0207901-0.4154091c0-0.0727005,0.0519104-0.135006,0.1246071-0.135006
				c0.0727005,0,0.135006,0.0623055,0.135006,0.135006c0,0.135006,0,0.2596169-0.0207901,0.3946228
				c0.2181015-0.0103951,0.3946228-0.0207291,0.550415-0.0311241c0.0103951-0.1246071,0.0103951-0.259613,0.0103951-0.3842239
				c0-0.135006,0-0.2596169-0.0103951-0.394619c-0.0103951-0.2077065-0.0207863-0.4154129-0.0519104-0.6231155
				c-0.0207863-0.1765213-0.0519714-0.3426476-0.0830917-0.5088387c-0.0519104-0.3323135-0.135006-0.6646309-0.2388268-0.9865494
				c-0.0415802-0.1246109-0.0830956-0.2492218-0.1246758-0.3738327c-0.0311203-0.0934258-0.0726357-0.1869125-0.1142159-0.2804031
				c-0.0623016-0.1661263-0.1350021-0.3322525-0.2180328-0.4984398c-0.0830956-0.1869164-0.1869812-0.3738327-0.290802-0.550354
				c-0.0727005-0.1246719-0.145401-0.2492828-0.2284317-0.3634987c-0.0103951-0.0311203-0.0207901-0.0519104-0.0415764-0.0727005
				c-0.145401-0.2180367-0.2907372-0.4257393-0.4569283-0.6230507l-0.4673195,0.3011322
				c0.0934906,0.1038818,0.1765862,0.2077026,0.2596169,0.3219185c0.0415764,0.0519104,0.0311813,0.135006-0.0207291,0.1765862
				c-0.0311813,0.0207253-0.0519104,0.0207253-0.0830917,0.0207253c-0.0415154,0-0.0727005-0.0103951-0.1038208-0.0519104
				c-0.0830956-0.1142159-0.1661911-0.2284317-0.2700119-0.3323174l-2.5338478,1.630394
				c-0.3011951,0.1869164-0.685421,0.1661263-1.0176716-0.0830956c-0.3011951-0.2180367-0.4465942-0.5815353-0.3531055-0.9138527
				c0.2077045-0.8203583,0.5192299-2.0249481,0.7580566-2.9180717c-0.1246109-0.0519104-0.2596149-0.1038208-0.3946209-0.1453362
				c-0.0623055-0.0311852-0.1038208-0.1038857-0.0830307-0.1661911c0.0207253-0.0727005,0.0934258-0.1038208,0.1661263-0.0830956
				c0.124609,0.0415802,0.2492199,0.0830956,0.3738308,0.135006c0.0519733-0.2076416,0.1038837-0.3842239,0.1453991-0.5295601
				c-0.2388248-0.0934906-0.4880466-0.1765862-0.7373295-0.2388916c-0.0415154-0.0207253-0.0830326-0.0311203-0.134943-0.0415154
				c-0.2180996-0.0623055-0.4361992-0.1038818-0.664629-0.145401c-0.1246109-0.0207863-0.2492218-0.0415154-0.3738327-0.0623016
				c-0.1661892-0.0103951-0.3323135-0.0311241-0.4985046-0.0415192C27.3842258,35.8073044,27.1973095,35.7969093,27,35.7969093
				s-0.3842258,0.0103951-0.5711403,0.0207863c-0.1661911,0.0103951-0.3323154,0.0311241-0.4985046,0.0415192
				c-0.1246109,0.0207863-0.2492218,0.0415154-0.3738327,0.0623016c-0.2284298,0.0415192-0.4465294,0.0830956-0.664629,0.145401
				c-0.0415173,0.0103951-0.0830326,0.0207901-0.1246109,0.0311203c-0.2596149,0.0727005-0.5088367,0.1557961-0.7476616,0.2492867
				c0.0415154,0.1453362,0.0934258,0.3219185,0.1453991,0.5295601c0.1246109-0.0519104,0.2596149-0.0934258,0.3842258-0.135006
				c0.0727005-0.0207253,0.135006,0.0103951,0.1661263,0.0830956c0.0207901,0.0623055-0.0207272,0.135006-0.0934258,0.1661911
				c-0.135006,0.0415154-0.2596149,0.0934258-0.3946209,0.1453362c0.2388268,0.8931236,0.5607471,2.0977135,0.7684517,2.9180717
				c0.0830936,0.3323174-0.0519104,0.695816-0.3842258,0.9346428c-0.3115253,0.2284317-0.6957512,0.2492218-0.9865513,0.0623055
				l-2.5442429-1.630394c-0.1038208,0.1038857-0.1869164,0.2181015-0.27001,0.3323174
				c-0.0207272,0.0415154-0.0623055,0.0519104-0.1038208,0.0519104c-0.0207901,0-0.0519104,0-0.0727005-0.0207253
				c-0.0623055-0.0415802-0.0727005-0.1246758-0.0311203-0.1765862c0.0830307-0.1142159,0.1661243-0.2284317,0.2596149-0.3323135
				l-0.4673214-0.2907372c-0.1557941,0.1973114-0.3115253,0.405014-0.4569244,0.6230507
				c-0.280405,0.4258041-0.5192318,0.8827324-0.7269363,1.3603821c-0.0415154,0.0934906-0.0727005,0.1869164-0.1142159,0.280407
				c-0.1557941,0.4257393-0.2908001,0.8619385-0.3738308,1.3084717c-0.0207901,0.0934258-0.0415783,0.1973076-0.0623684,0.3011284
				c-0.0207253,0.1142159-0.0311203,0.2284966-0.0519104,0.3531075c-0.0207253,0.2180328-0.0415154,0.4361343-0.0519104,0.6542358
				C18.5469074,44.0007782,18.5469074,44.1253891,18.5469074,44.2603951z M24.7880726,44.2603951
				c0-1.225441,0.9865513-2.2223244,2.2119274-2.2223244s2.2223225,0.9968834,2.2223225,2.2223244
				c0,1.2149811-0.9969463,2.2119293-2.2223225,2.2119293S24.7880726,45.4753761,24.7880726,44.2603951z"/>
			<path class="st0" d="M24.715435,36.8250389c0.0207272,0.0623055-0.0207901,0.135006-0.0934887,0.1661263
				c-0.135006,0.0415764-0.2596149,0.0934868-0.3946209,0.1453972c-1.214983,0.4673233-2.3261433,1.2565613-3.1465054,2.2846298
				c-0.1038837,0.1038208-0.1869793,0.2180367-0.27001,0.3323135c-0.0207901,0.0415154-0.0623055,0.0519104-0.1038837,0.0519104
				c-0.0207272,0-0.0519104,0-0.0727005-0.0207863c-0.0623055-0.0415192-0.0726376-0.1246109-0.0311203-0.1765213
				c0.0830936-0.1142159,0.1661243-0.2284966,0.2596149-0.3323174c0.8722725-1.0799751,2.025013-1.9107971,3.3022995-2.3988419
				c0.1246109-0.0519104,0.2596149-0.0934906,0.3842258-0.135006C24.6219463,36.7211533,24.6842518,36.7523384,24.715435,36.8250389
				z"/>
			<path class="st0" d="M29.5234547,51.6335106c0.0207882,0.0726357-0.0207272,0.1453362-0.0830326,0.1661263
				c-0.124609,0.0415154-0.2492199,0.0727005-0.3842258,0.1038208C28.3915672,52.090435,27.6958141,52.1838608,27,52.1838608
				c-0.6957512,0-1.3811073-0.0934258-2.0457382-0.2700081v-0.0103951c-0.135006-0.0311203-0.2596169-0.0623055-0.3842258-0.1038208
				c-0.0727005-0.0207901-0.1038837-0.0934906-0.0830956-0.1661263c0.0207901-0.0623055,0.0934906-0.1038857,0.1661263-0.0830956
				c0.135006,0.0415154,0.27001,0.0830956,0.4050159,0.1142159c1.2669563,0.3323135,2.6273384,0.3427086,3.8942299,0
				c0.135006-0.0311203,0.27001-0.0727005,0.4050159-0.1142159C29.430027,51.5296249,29.5027275,51.5712051,29.5234547,51.6335106z"
				/>
			<path class="st0" d="M33.3761673,39.7846298c-0.0311203,0.0207863-0.0519104,0.0207863-0.0830917,0.0207863
				c-0.0415154,0-0.0727005-0.0103951-0.1038208-0.0519104c-0.0830956-0.1142769-0.1661263-0.2284927-0.2700119-0.3323135
				c-0.8203621-1.0280685-1.9211273-1.8173065-3.1465054-2.2846298c-0.124609-0.0519104-0.2596149-0.1038208-0.3946209-0.1453972
				c-0.0623035-0.0311203-0.1038837-0.1038208-0.0830936-0.1661263c0.0207901-0.0727005,0.0934887-0.1038857,0.1661263-0.0830956
				c0.124609,0.0415154,0.2492828,0.0830956,0.3738937,0.135006c1.2876816,0.4777145,2.4403591,1.3188667,3.3023014,2.4092369
				c0.0934258,0.1038208,0.1765213,0.2077065,0.259613,0.3219223
				C33.4384727,39.6600189,33.4280777,39.7431107,33.3761673,39.7846298z"/>
			<path class="st0" d="M34.9234657,44.2811852c0,0.135006,0,0.259613-0.0207253,0.394619
				c-0.0623055,1.3915024-0.4985046,2.7207642-1.2565613,3.8838348c-0.0727005,0.1142159-0.145401,0.2284317-0.2284927,0.3427124
				c-0.0311241,0.0311203-0.0726395,0.0519104-0.1038208,0.0519104c-0.0311241,0-0.0623055-0.0103951-0.0830956-0.0207901
				c-0.0519104-0.0415154-0.0727005-0.1246109-0.0311203-0.1869164c0.0830917-0.1142159,0.1661263-0.2284317,0.2388229-0.3531036
				c0.7269363-1.1110992,1.1319542-2.3780556,1.2046509-3.6969223c0.010334-0.1349411,0.0207291-0.2803383,0.0207291-0.4153442
				c0-0.0727005,0.0519104-0.135006,0.1246071-0.135006C34.8611603,44.1461792,34.9234657,44.2084846,34.9234657,44.2811852z"/>
			<path class="st0" d="M20.7692299,48.9334717c-0.0207253,0.0103951-0.0415154,0.0207901-0.0726986,0.0207901
				c-0.0415154,0-0.0830326-0.0207901-0.1038208-0.0519104c-0.0830956-0.1142807-0.1557941-0.2284966-0.2388268-0.3427124
				c-0.7581196-1.1630707-1.1838608-2.4923325-1.2565613-3.8838348c-0.0103951-0.135006-0.0103951-0.259613-0.0103951-0.394619
				c0-0.0727005,0.0519104-0.135006,0.1246109-0.135006s0.135006,0.0623055,0.135006,0.135006
				c0,0.135006,0,0.2804031,0.0103931,0.4153442c0.0727005,1.3188667,0.4881115,2.5858231,1.2046509,3.6969223
				c0.0726376,0.1246719,0.1557312,0.2388878,0.2388268,0.3531036
				C20.8419304,48.8088608,20.8315353,48.8919563,20.7692299,48.9334717z"/>
			<path class="st1" d="M28.4434776,44.2603951c0,0.7892418-0.6438427,1.4330826-1.4434776,1.4330826
				c-0.7892418,0-1.4330826-0.6438408-1.4330826-1.4330826c0-0.7996368,0.6438408-1.4434776,1.4330826-1.4434776
				C27.7996349,42.8169174,28.4434776,43.4607582,28.4434776,44.2603951z"/>
		</g>
	</g>
	<path class="st0" d="M3,8.2799568v10.789978l16.4699707-0.5200195l1.0900269-0.039978L28,18.2799568
		c-2.5100098-2.5100098-6.4299927-4.5-10.4199829-6.0200195c-0.4500122-0.1799927-0.8900146-0.3399658-1.3400269-0.5
		C9.5200195,9.3699226,3,8.2799568,3,8.2799568z"/>
	<path class="st0" d="M17.9999981,25.2799568h5.0000038C23.5522861,25.2799568,24,24.832243,24,24.2799587v-0.0000019
		c0-0.5522842-0.4477139-1-0.9999981-1h-5.0000038c-0.5522842,0-0.9999981,0.4477158-0.9999981,1v0.0000019
		C17,24.832243,17.4477139,25.2799568,17.9999981,25.2799568z"/>
	<path class="st0" d="M25.8400269,25.3599129l-2.0400391,3.7300529C24,29.039978,24.1900024,29,24.3900146,28.9699707
		l1.9099731-3.4100456c0.6000366-1.4199829,0.2900391-3.039978-0.7999878-4.1300049l-2.9699707-2.9799805l-0.7000122,0.0200195
		l3.3200073,3.3099976C26.0900269,22.729969,26.3599854,24.1299324,25.8400269,25.3599129z"/>
	<polygon class="st1" points="55.3564453,45.2753906 57.2792969,43.9936523 58.1757812,40.8544922 56.8369141,41.1220703 
		53.578125,43.5668945 52.6669922,45.3886719 	"/>
	<path class="st0" d="M48.8200073,33.4299927C48.8699951,33.4799805,48.9400024,33.5,49,33.5
		s0.1300049-0.0200195,0.1799927-0.0700073l2.6099854-2.6199951c0.2200317-0.210022,0.4900513-0.3500366,0.7800293-0.4000244
		L58.039978,29.5c0.0500488-0.0100098,0.1000366-0.0400391,0.1300049-0.0700073L58,29.25V29h-0.039978l-5.4700317,0.9099731
		c-0.3999634,0.0700073-0.7600098,0.2600098-1.0499878,0.5499878l-2.6199951,2.6100464
		C48.7299805,33.1699829,48.7299805,33.3299561,48.8200073,33.4299927z"/>
	<path class="st1" d="M16.2399902,11.7599373l3.2299805,6.789978l1.0900269-0.039978l-2.9799805-6.25
		C17.1300049,12.0799446,16.6900024,11.9199715,16.2399902,11.7599373z"/>
	<path class="st0" d="M47.2480736,25.0820503l2.9884529,1.9923019C51.3864021,27.8409348,52.7374535,28.25,54.1194305,28.25H58v-6
		h-7.7888985c-0.7896996,0-1.5617294,0.2337513-2.2187996,0.6717987l-0.7442284,0.496151
		C46.6543427,23.8137722,46.6543427,24.6862278,47.2480736,25.0820503z"/>
</g>
</svg>
