<?xml version="1.0" encoding="utf-8"?>
<!-- Generator: Adobe Illustrator 27.6.1, SVG Export Plug-In . SVG Version: 6.00 Build 0)  -->
<svg version="1.1" id="Layer_1" xmlns="http://www.w3.org/2000/svg" xmlns:xlink="http://www.w3.org/1999/xlink" x="0px" y="0px"
	 viewBox="0 0 64 64" style="enable-background:new 0 0 64 64;" xml:space="preserve">
<style type="text/css">
	.st0{fill:#C23545;}
	.st1{fill:#3F3244;}
	.st2{fill:#51AB39;}
	.st3{fill:#B8B7BC;}
	.st4{fill:#F9A622;}
</style>
<g>
	<g>
		<path class="st1" d="M58.4561386,30.7280693c0.1424713,0,0.2543869,0.1119156,0.2543869,0.2543869
			c0,1.241375,1.2719307,2.9610252,2.1368179,3.978569C60.9491348,33.9842224,61,32.9971733,61,32
			c0-0.2543869,0-0.5087719-0.0203705-0.7631588h-0.4884033c-0.1322823,0-0.2543831-0.1220989-0.2543831-0.254385
			c0-0.1424713,0.1221008-0.2543869,0.2543831-0.2543869h0.4782181c-0.0610504-1.4042149-0.2136459-2.7982445-0.4884033-4.1617813
			c-1.2413712-0.7224159-3.3985596-2.1571884-3.8768387-3.6326389c-0.0406799-0.1322861,0.0305557-0.2746944,0.1628418-0.3256207
			c0.1424103-0.0406799,0.2848816,0.0305557,0.3255615,0.1628418c0.3866692,1.1905079,2.1266937,2.4217587,3.2561531,3.123867
			c-0.2543869-1.2210655-0.5901337-2.4115753-1.0073586-3.5817738l-0.4782181,0.1526546
			c-0.0203705,0.0101871-0.0509262,0.0101871-0.0814209,0.0101871c-0.1017914,0-0.2035217-0.0611134-0.2340164-0.1730289
			c-0.0509262-0.1322842,0.0304947-0.2746944,0.1627808-0.3154354l0.4477234-0.1424713
			c-0.1119156-0.3154354-0.2340164-0.6308727-0.3663025-0.9463081c-0.4070435-0.9869881-0.8649483-1.9434814-1.3737221-2.8592949
			c-1.4143372-0.3154373-3.9073334-1.0175438-4.8129616-2.269104c-0.0814209-0.1119146-0.0610504-0.2747564,0.0508652-0.3561153
			c0.1119156-0.0814209,0.2747574-0.0509262,0.3561783,0.0610504c0.7326012,1.0073586,2.7575035,1.6382313,4.0599899,1.9536667
			c-0.6206856-1.0785942-1.3024864-2.1063232-2.0554581-3.0933113l-0.4070435,0.2950659
			c-0.0508652,0.0304937-0.1017303,0.0508652-0.1525955,0.0508652c-0.0814209,0-0.1526566-0.0406799-0.2035217-0.1017303
			c-0.0814209-0.1220999-0.0610466-0.2747564,0.0508652-0.3561773l0.3968582-0.2848797
			c-0.8648872-1.0989647-1.8111954-2.1266947-2.818615-3.0730028c0,0,0,0-0.0101242,0
			c-0.4884644,0.0406799-1.1295204,0.0916061-1.8010712,0.0916061c-1.2719307,0-2.6659622-0.1526556-3.4901695-0.7530346
			c-0.1119766-0.0813589-0.1424713-0.2442007-0.0508652-0.3561153c0.0813599-0.1119146,0.2340164-0.1424713,0.345932-0.0610504
			c1.0175438,0.7427874,3.1645432,0.7122936,4.4975243,0.6105022c-0.9259377-0.8343315-1.9129868-1.6076746-2.9406548-2.3199682
			l-0.3053131,0.4171658c-0.0406799,0.0712357-0.1221008,0.1119776-0.2034569,0.1119776
			c-0.0509262,0-0.1017914-0.0203714-0.1424713-0.0509272c-0.1221008-0.0813589-0.1424713-0.2442007-0.0610504-0.3561153
			l0.295063-0.3968573c-1.1600113-0.7733436-2.3810158-1.4550805-3.6428223-2.0452733
			c-1.0582237,0.4579072-2.8389244,1.1396441-4.2635117,1.1396441c-0.3561172,0-0.681736-0.0406795-0.9768028-0.1322236
			C39.0007057,6.7139978,38.9294701,6.571589,38.97015,6.4393034c0.040741-0.1322861,0.1832123-0.2035213,0.3154373-0.1628418
			c1.1905708,0.3866715,3.2256584-0.2950654,4.4670334-0.8038373c-1.1396446-0.5087719-2.3097839-0.9361234-3.5206642-1.2821155
			L40.0792999,4.668787c-0.0305557,0.1017294-0.1322861,0.172965-0.2340126,0.172965
			c-0.0305595,0-0.0610504-0.0101857-0.0814209-0.0101857c-0.1322861-0.0508647-0.213707-0.1933355-0.1628418-0.3256211
			l0.1526527-0.4579072c-1.3329773-0.3663011-2.7066383-0.6410577-4.1108513-0.8140228
			c-1.0785942,0.9564936-3.1034966,2.5642302-4.6603699,2.5642302c-0.1322861,0-0.2543869-0.1220999-0.2543869-0.2543859
			c0-0.1424708,0.1221008-0.2543859,0.2543869-0.2543859c1.241375,0,2.950901-1.2617445,3.978569-2.1368792
			C33.9842224,3.0508647,32.9971733,3,32,3c-0.2543869,0-0.5087719,0-0.7631588,0.0203087v0.4884632
			c0,0.1322856-0.1119137,0.2543859-0.254385,0.2543859c-0.1322861,0-0.2543869-0.1221004-0.2543869-0.2543859V3.030494
			c-1.4144001,0.0610502-2.7982445,0.223892-4.1515961,0.4884634c-0.7224159,1.2413738-2.1571865,3.3985617-3.6326389,3.8768394
			c-0.0304928,0-0.0610504,0.0101233-0.081358,0.0101233c-0.1119766,0-0.213707-0.0711732-0.2442017-0.172965
			c-0.040741-0.1424708,0.0304947-0.2848797,0.1627808-0.3256211c1.1905079-0.3764863,2.4217587-2.1164465,3.1136818-3.2560909
			c-1.2210655,0.2543859-2.4115753,0.6003163-3.5715885,1.017544l0.1526566,0.4680305
			c0.040678,0.1322856-0.0305576,0.2747564-0.1628418,0.3154359c-0.0304947,0.0101852-0.0508652,0.020371-0.0813599,0.020371
			c-0.1119766,0-0.2035217-0.0712357-0.2442627-0.1831508l-0.1424084-0.4477215
			c-1.3126717,0.4782157-2.5846024,1.0684085-3.7954807,1.7399602c-0.3154373,1.4144006-1.0175438,3.9073958-2.2691031,4.813025
			c-0.0508652,0.0304937-0.1017303,0.0508642-0.1526566,0.0508642c-0.0711737,0-0.1525946-0.040679-0.2034597-0.1017294
			c-0.0814209-0.1119766-0.0610495-0.2747564,0.0610504-0.3561773c0.9971733-0.7326021,1.6382313-2.7473812,1.9536667-4.0498052
			c-1.0785942,0.6105018-2.1063232,1.302424-3.0831871,2.0655818l0.2849417,0.3968573
			c0.0814209,0.1119146,0.0610504,0.2645712-0.0610504,0.3459921c-0.040679,0.040679-0.0916061,0.0508652-0.1424704,0.0508652
			c-0.0814209,0-0.1627798-0.0305567-0.213645-0.1017923L13.948782,9.3189077
			c-1.0989647,0.8751345-2.1266937,1.8214436-3.0730028,2.8389874c0.1424713,1.4245234,0.2442007,4.0091257-0.6715517,5.260684
			c-0.0508642,0.0712357-0.1220999,0.1017303-0.2035208,0.1017303c-0.0508652,0-0.1017294-0.0101242-0.1526566-0.0406799
			c-0.1119146-0.0915451-0.1322851-0.2442017-0.0508642-0.3561153c0.7224779-1.0073586,0.7122927-3.123868,0.6105633-4.4568472
			c-0.8343935,0.9157515-1.5975513,1.8926163-2.2996588,2.9203453l0.3967943,0.2848806
			c0.1119776,0.0814209,0.1424713,0.2340775,0.0610504,0.3459911c-0.0508652,0.0712357-0.1322231,0.1119156-0.213644,0.1119156
			c-0.0508652,0-0.1017923-0.0203705-0.1424713-0.0508652L7.8333335,16.004179
			c-0.7835288,1.1600132-1.4652658,2.3708935-2.0554585,3.6428242c0.5698218,1.322794,1.4652658,3.7445526,0.9870496,5.220005
			c-0.0305557,0.1119137-0.1322856,0.1729641-0.234077,0.1729641c-0.0304942,0-0.0508652,0-0.0813589-0.0101852
			c-0.1322856-0.0406799-0.2035213-0.1831493-0.1628418-0.3154354c0.3764863-1.1803246-0.2848802-3.1950417-0.8038373-4.4364777
			c-0.5087719,1.1294594-0.9361229,2.2894745-1.2923007,3.4901695l0.4782782,0.1526566
			c0.1322856,0.040678,0.2136445,0.1831493,0.1627793,0.3154354c-0.0304937,0.1119156-0.1322856,0.1831512-0.234015,0.1831512
			c-0.0305562,0-0.0610504-0.0101871-0.0814209-0.0203724l-0.4579072-0.1525936
			c-0.3764863,1.3329792-0.6511807,2.7066402-0.824208,4.1108551c0.9666789,1.0785942,2.5642302,3.1034966,2.5642302,4.660368
			c0,0.1322861-0.1119146,0.2543869-0.2543859,0.2543869c-0.1322856,0-0.2543859-0.1221008-0.2543859-0.2543869
			c0-1.241436-1.2617445-2.950901-2.1368172-3.978632C3.0508647,30.0157776,3,31.0027657,3,32
			c0,0.2543869,0,0.5087738,0.0203707,0.7631569h0.4884012c0.1424711,0,0.2543859,0.1119156,0.2543859,0.2543869
			c0,0.1322861-0.1119149,0.2543869-0.2543859,0.2543869H3.0305562c0.0610502,1.4143982,0.2238297,2.7982445,0.4884012,4.151535
			c1.2413738,0.722477,3.408747,2.1572495,3.8768394,3.632637c0.0508647,0.1424713-0.0305562,0.2849426-0.1628418,0.3256226
			c-0.0203085,0.0101852-0.0508647,0.0101852-0.0711732,0.0101852c-0.1119771,0-0.2137065-0.0610504-0.2442627-0.172966
			c-0.3866715-1.1803856-2.1266317-2.4115753-3.2662761-3.1136818c0.2645714,1.2210655,0.6003163,2.4115753,1.017544,3.5715904
			l0.4782157-0.1526566c0.1322856-0.0406799,0.2747564,0.0305557,0.3154359,0.1627769
			c0.0407414,0.1322861-0.0304937,0.2849426-0.1627793,0.3256226l-0.4579072,0.1526566
			c0.4884009,1.3126106,1.0785937,2.5743561,1.7502074,3.7852325c1.4041533,0.3154373,3.9073339,1.0175438,4.812963,2.269165
			c0.0814209,0.1119156,0.0610495,0.2746964-0.0610504,0.3561172c-0.0407419,0.0305557-0.0916061,0.0508652-0.1424713,0.0508652
			c-0.0814209,0-0.1627798-0.0406799-0.213706-0.1017303c-0.7224169-1.0073586-2.7473192-1.6484146-4.0498052-1.9638519
			c0.620687,1.0785942,1.3126092,2.1063232,2.075767,3.0831261l0.386672-0.2848816
			c0.1119766-0.0814209,0.2747564-0.0508652,0.3561773,0.0610504c0.0813589,0.1119156,0.0610504,0.2645721-0.0508642,0.3561172
			L9.329093,50.0512199c0.7937136,1.0073586,1.6484785,1.9434814,2.5744162,2.818615
			c0.2645712,0.7326012-0.0712357,1.5873642-0.8750734,1.882431c-1.322794,0.4782143-2.6557741,1.0073586-3.9684458,1.5975494
			C4.668787,57.4284096,5.4217591,61,8.04704,61h6.0645218c0.9972353-0.8750725,3.7852945-3.1747322,5.4438963-3.1747322
			c0.1322861,0,0.2543869,0.1119156,0.2543869,0.2543869c0,0.1424065-0.1221008,0.2543869-0.2543869,0.2543869
			c-1.2108784,0-3.378252,1.5873642-4.6705532,2.6659584h4.4161682v-0.8852577c0-0.1424713,0.1119137-0.2543869,0.254385-0.2543869
			c0.1322861,0,0.2543869,0.1119156,0.2543869,0.2543869V61h4.4771557c0.9972343-0.8750725,3.7852955-3.1747322,5.4438972-3.1747322
			c0.1322842,0,0.254385,0.1119156,0.254385,0.2543869c0,0.1424065-0.1221008,0.2543869-0.254385,0.2543869
			c-1.2108803,0-3.3782539,1.5873642-4.6705551,2.6659584h4.4161682v-0.8852577
			c0-0.1424713,0.1119156-0.2543869,0.2543869-0.2543869c0.1322842,0,0.254385,0.1119156,0.254385,0.2543869V61h4.4771576
			c0.9972343-0.8750725,3.7852936-3.1747322,5.4438934-3.1747322c0.1322861,0,0.2543869,0.1119156,0.2543869,0.2543869
			c0,0.1424065-0.1221008,0.2543869-0.2543869,0.2543869c-1.2108765,0-3.3782501,1.5873642-4.6705513,2.6659584h4.4161682
			v-0.8852577c0-0.1424713,0.1119156-0.2543869,0.2543831-0.2543869c0.1322861,0,0.2543869,0.1119156,0.2543869,0.2543869V61
			h4.4771576c0.9972343-0.8750725,3.7852936-3.1747322,5.4438972-3.1747322c0.1322861,0,0.2543831,0.1119156,0.2543831,0.2543869
			c0,0.1424065-0.122097,0.2543869-0.2543831,0.2543869c-1.2108803,0-3.3782539,1.5873642-4.6705551,2.6659584h4.4161682v-0.8852577
			c0-0.1424713,0.1119156-0.2543869,0.2543869-0.2543869c0.1322861,0,0.2543831,0.1119156,0.2543831,0.2543869V61h5.6168022
			c2.6252785,0,3.3782539-3.5715904,0.9870491-4.6501846c-1.3126717-0.5901909-2.6456528-1.1193352-3.9684448-1.5975494
			c-0.7733459-0.2747574-1.1192741-1.0887794-0.905632-1.7908859c0.3663635-0.345932,0.7224808-0.7122955,1.0684738-1.0887794
			c-0.1424713-1.4347115-0.2543869-4.0396194,0.6613655-5.3013649c0.0814209-0.1119766,0.2442017-0.1322861,0.3561783-0.0509262
			c0.1119156,0.0814209,0.1424065,0.2442627,0.0610504,0.3561783c-0.7428513,1.0073586-0.7122955,3.1543579-0.6105652,4.487339
			c0.8343925-0.9259377,1.5975533-1.9028015,2.309845-2.9406548l-0.4070435-0.2951279
			c-0.1119156-0.0814209-0.1424065-0.2441978-0.0610504-0.3561134c0.0814209-0.1119156,0.2442627-0.1424713,0.3561783-0.0610504
			l0.3968582,0.2848778c0.7631569-1.149826,1.4448929-2.3708305,2.0350876-3.6427612
			c-0.5800095-1.3228569-1.4754524-3.7446136-0.9972343-5.2301903c0.040741-0.1322861,0.1933327-0.2035217,0.3256187-0.1628418
			c0.1322861,0.040741,0.2035217,0.1933365,0.1628418,0.3256226c-0.3866692,1.1803856,0.2848816,3.2052879,0.7936516,4.4364738
			c0.1017303-0.2034569,0.1831512-0.4069786,0.2747574-0.6206856c0.3967972-0.9361229,0.7326012-1.8926163,1.0175438-2.8694801
			l-0.4782753-0.1525955c-0.1322861-0.0508652-0.2035217-0.1933365-0.1627808-0.3256226
			c0.0508652-0.1322823,0.1933365-0.2035179,0.3256226-0.1628418l0.4578438,0.1526566
			c0.3765488-1.3431625,0.6512413-2.7066383,0.8140831-4.1007309c-0.9564934-1.0785942-2.5642281-3.1136818-2.5642281-4.660305
			C58.2017555,30.8399849,58.3238564,30.7280693,58.4561386,30.7280693z M47.7515602,52.106678
			C43.4066887,55.5256081,37.942482,57.5606956,32,57.5606956c-5.8101978,0-11.1827965-1.9536667-15.4869881-5.2505608
			C10.3873787,47.6396446,6.4393034,40.2726364,6.4393034,32C6.4393034,17.8968563,17.9070415,6.4291177,32,6.4291177
			c14.1031418,0,25.5708809,11.4677391,25.5708809,25.5708828C57.5708809,40.1606598,53.7245369,47.4361229,47.7515602,52.106678z"
			/>
		<path class="st1" d="M32,6.6835036C18.0494518,6.6835036,6.6936893,18.0392666,6.6936893,32
			c0,8.3031311,4.0294962,15.6905098,10.2263031,20.3101349C21.1326389,55.4441872,26.352644,57.3063126,32,57.3063126
			c5.7592697,0,11.0810661-1.9333611,15.3343925-5.1996346C53.3989754,47.4971733,57.3164978,40.1912155,57.3164978,32
			C57.3164978,18.0392666,45.9606705,6.6835036,32,6.6835036z M41.3716011,51.4758034
			c-0.3154373,0.1525955-0.6308708,0.3052521-0.9564934,0.4375381c-0.2035217,0.0813599-0.3968582,0.1627808-0.6003799,0.2442017
			c-0.1729622,0.0610466-0.335804,0.1322823-0.50877,0.1831474c-0.2848816,0.1119156-0.5800095,0.213707-0.8750725,0.2950668
			c-0.3358078,0.1119766-0.681736,0.213707-1.027729,0.2951279c-0.345993,0.0915451-0.691925,0.172966-1.0480385,0.2442017
			C34.950901,53.47015,33.4957581,53.6228065,32,53.6228065c-2.6557751,0-5.2098198-0.4782791-7.5603428-1.3635368
			c-7.5501595-2.8287392-13.1161556-9.7582092-13.9403639-18.0614014C10.4178724,33.4754524,10.3771935,32.7427864,10.3771935,32
			c0-2.2386093,0.3459921-4.3957977,0.9869871-6.4308853c0.0916061-0.3459911,0.2035217-0.6716137,0.3358068-1.0073586
			c2.1877441-5.9526672,6.9192867-10.6842098,12.871954-12.871954c0.3358078-0.1220999,0.6715527-0.2340155,1.0073586-0.3358068
			C27.6042023,10.7129374,29.7613907,10.3771935,32,10.3771935c11.9255829,0,21.6228065,9.6971607,21.6228065,21.6228065
			c0,0.854702-0.0508652,1.709465-0.1526566,2.5438614c-0.0304947,0.2746925-0.0711746,0.5494499-0.1119156,0.8242073
			c-0.0814209,0.5392647-0.1831474,1.068409-0.3052483,1.5975494c0,0.0203094-0.0101852,0.0406799-0.0203705,0.0610504
			c-0.0508652,0.2035217-0.1017303,0.4069824-0.1525955,0.6003151c-0.0305557,0.1221008-0.0610504,0.2442017-0.1017914,0.3663635
			c-0.1221008,0.4578476-0.2746964,0.9055672-0.4375381,1.3532906c-0.0915413,0.2543869-0.1933365,0.50877-0.295063,0.7631569
			c-0.0814209,0.1831512-0.1526566,0.3764877-0.2340775,0.5596352c-0.7834663,1.7908897-1.8111954,3.4494896-3.0322609,4.9453125
			c-0.1017303,0.1322861-0.2136459,0.2645721-0.3358078,0.3967934
			C46.5101852,48.2908859,44.0986099,50.1631317,41.3716011,51.4758034z"/>
		<g>
			<path class="st0" d="M26.5968437,15.0374994c0.0203094,0.0610495-0.0101852,0.1322851-0.0814209,0.1526566
				c-0.1627789,0.0508642-0.3256207,0.1119146-0.4883995,0.172965c-3.1340542,1.1091499-5.9424839,3.1544228-7.9877567,5.8101978
				c-0.1119156,0.1424713-0.2136459,0.2746944-0.3154373,0.4171658c-0.0304928,0.0305557-0.0712357,0.0508652-0.1119137,0.0508652
				c-0.0203705,0-0.0508652-0.0101242-0.0712357-0.0203094c-0.0508652-0.040741-0.0712357-0.1221008-0.0304947-0.1831512
				c0.1017303-0.1424713,0.2034588-0.2747555,0.3154354-0.4070415c2.0859528-2.696516,4.9452496-4.7824688,8.1403522-5.9119272
				c0.1525936-0.0610504,0.3154354-0.1119156,0.4782162-0.1627798C26.5052376,14.93577,26.5764732,14.9662638,26.5968437,15.0374994
				z"/>
			<path class="st0" d="M37.5964928,48.9013901c0.0304909,0.0610504-0.0101852,0.1322861-0.0814209,0.1525917
				c-0.1526566,0.0509262-0.3154373,0.1017914-0.4782181,0.1424713c-1.6179199,0.4884033-3.3070183,0.732666-5.0266685,0.732666
				c-1.7196522,0-3.4088097-0.2442627-5.0266685-0.732666c-0.1628418-0.0406799-0.3256226-0.0915451-0.4884644-0.1424713
				c-0.0712357-0.0203056-0.1017284-0.0915413-0.081358-0.1525917c0.0203075-0.0712357,0.0915432-0.1017914,0.1525936-0.0814209
				c0.1628418,0.0508652,0.3256226,0.1017265,0.4985867,0.1526566c3.1951027,0.9361229,6.6852703,0.9361229,9.880373,0
				c0.172966-0.05093,0.3358078-0.1017914,0.4985886-0.1526566C37.5048866,48.7995987,37.5761223,48.8301544,37.5964928,48.9013901z
				"/>
			<path class="st0" d="M46.4694443,21.6210403c-0.0203094,0.0101852-0.0508652,0.0203094-0.0712357,0.0203094
				c-0.0406799,0-0.0813599-0.0203094-0.1119156-0.0508652c-0.1017303-0.1424713-0.2035217-0.2746944-0.3154373-0.4171658
				c-2.0452728-2.6557751-4.8537025-4.7010479-7.9876938-5.8101978c-0.1628418-0.0610504-0.3256187-0.1221008-0.4884605-0.172965
				c-0.0712357-0.0203714-0.1017303-0.0916071-0.0813599-0.1526566c0.0203094-0.0712357,0.0915451-0.1017294,0.1525917-0.0813589
				c0.1628418,0.0508642,0.3154373,0.1017294,0.4782791,0.1627798c3.1950417,1.1294584,6.0543976,3.2154112,8.1403503,5.9119272
				c0.1119156,0.1322861,0.2136459,0.2645702,0.3154373,0.4070415
				C46.5406799,21.4989395,46.5203094,21.5802994,46.4694443,21.6210403z"/>
			<path class="st0" d="M49.9393044,32.0304947c0,0.172966,0,0.3358078-0.0101852,0.50877
				c-0.1017914,3.4291191-1.1702003,6.7157669-3.1136818,9.5547523c-0.0916061,0.1322861-0.1831512,0.2747574-0.2849426,0.4069824
				C46.5,42.5315552,46.459259,42.5519257,46.4185791,42.5519257c-0.0203705,0-0.0508652-0.0101852-0.0712357-0.0203705
				c-0.0508652-0.0406799-0.0712357-0.1221008-0.0304947-0.1831512c0.1017303-0.1424713,0.2034607-0.2849426,0.2950668-0.4273529
				c1.9129868-2.7881203,2.9610252-5.9933472,3.0526314-9.3716011h0.0101852
				c0.0101852-0.1729622,0.0101852-0.3561134,0.0101852-0.5291405c0-0.0610504,0.0610504-0.1221008,0.1322861-0.1221008
				C49.8782539,31.8982086,49.9393044,31.959259,49.9393044,32.0304947z"/>
			<path class="st0" d="M17.6627789,42.5315552c-0.0203075,0.0101852-0.0508633,0.0203705-0.0712337,0.0203705
				c-0.0406799,0-0.0813599-0.0203705-0.1119156-0.0509262c-0.1017303-0.132225-0.1933365-0.2746964-0.2848797-0.4069824
				c-1.9435444-2.8389854-3.0119524-6.1256332-3.1136827-9.5547523c-0.0101852-0.1729622-0.0101852-0.335804-0.0101852-0.50877
				c0-0.0712357,0.0610504-0.1322861,0.1221008-0.1322861c0.0101852,0,0.0101852,0,0.0101852,0
				c0.0610504,0,0.1220999,0.0610504,0.1220999,0.1221008c0,0.173027,0,0.3561783,0.0101852,0.5291405
				c0.1017303,3.3782539,1.1497679,6.5834808,3.0627556,9.3716011c0.0916061,0.1424103,0.1933365,0.2848816,0.2951279,0.4273529
				C17.7340145,42.4094543,17.713644,42.4908752,17.6627789,42.5315552z"/>
			<path class="st0" d="M17.8256207,21.0308475c-0.1119137,0.1322861-0.2137051,0.2645702-0.3154354,0.4070415
				c-0.040741,0.0610504-0.0203705,0.1424713,0.0304947,0.1831512c0.0203705,0.0101852,0.0509262,0.0203705,0.0712357,0.0203705
				c0.040741,0,0.0814209-0.0203705,0.1119137-0.0509262c0.1017914-0.1424103,0.2035217-0.2746944,0.3154984-0.4171658
				L17.8256207,21.0308475z M26.4441891,14.9561405c-0.1627808,0.0508642-0.3256226,0.1017294-0.4782162,0.1627798
				c0.0101852,0.0712357,0.0304928,0.1526566,0.0610504,0.2442007c0.1627789-0.0610504,0.3256207-0.1221008,0.4883995-0.172965
				c0.0712357-0.0203714,0.1017933-0.0915442,0.0814209-0.1526566C26.5764732,14.9663258,26.5052376,14.93577,26.4441891,14.9561405
				z M38.1358185,13.1245737c-0.0101852-0.0101852-0.0305557-0.0203705-0.0509262-0.0305557
				c-0.0610504-0.0203714-0.1221008-0.0406799-0.1831512-0.0508652c-0.2848778-0.0916061-0.5901909-0.172965-0.8852577-0.2543859
				c-0.0304947-0.0101852-0.0610504-0.0203705-0.0915451-0.0203705c-0.2543831-0.0712357-0.5189552-0.1322861-0.7733421-0.1831503
				c-0.6003761-0.1322861-1.2108803-0.2340155-1.8214417-0.2950659c-0.2543869-0.0305557-0.518898-0.0509262-0.7732811-0.0712357
				c-0.2340775-0.0203705-0.4579086-0.0305557-0.6919861-0.040741c-0.0813599-0.0203085-0.1627808-0.0203085-0.2543869-0.0101233
				c-0.1933365-0.0203714-0.3967934-0.0203714-0.6003151-0.0203714s-0.4070415,0-0.600378,0.0203714
				c-0.0915451-0.0101852-0.172966-0.0101852-0.2543869,0.0101233c-0.2340145,0.0101852-0.468029,0.0203705-0.7021065,0.040741
				c-0.2543869,0.0203094-0.5189571,0.0406799-0.773344,0.0712357c-0.5698223,0.0610504-1.1294575,0.1525946-1.6890945,0.2645712
				c-0.3154373,0.0711737-0.6308727,0.1424093-0.9361229,0.2238302c-0.3154373,0.0814209-0.6308727,0.1627798-0.9463081,0.2645712
				c-0.0610504,0.0101852-0.1221008,0.0304937-0.1831512,0.0508652c-0.0203705,0.0101852-0.040741,0.0203705-0.0509262,0.0305557
				c-0.2238312,0.1017294-0.3459301,0.3459301-0.2848816,0.5901308c0,0,0.0508652,0.1933355,0.1424713,0.5291424
				c0.3154373-0.1119146,0.6409969-0.2238913,0.9666176-0.3154354c0.0101852,0,0.0203705-0.0101862,0.0305557-0.0101862
				c0.386673-0.1119146,0.773344-0.213706,1.1701393-0.2950649c0.2645702-0.0610504,0.5291424-0.1220999,0.8038979-0.1628418
				c0.3764877-0.0610504,0.7631588-0.1220999,1.1600151-0.1627798c0.0711746-0.0203705,0.1525955-0.0305557,0.2238312-0.0305557
				c1.2719288-0.1221008,2.5642281-0.1221008,3.846344,0c0.0711746,0,0.1322861,0.0101852,0.2034607,0.0203705
				c0.4172287,0.040679,0.8242073,0.1017294,1.2210655,0.1831503c0.2238922,0.0406799,0.4477196,0.0814209,0.6614265,0.1322861
				c0.4375381,0.0916061,0.8648872,0.2035208,1.2922401,0.3256216c0.3256187,0.0915442,0.6512413,0.2035208,0.9666786,0.3154354
				c0.0916061-0.3358068,0.1424713-0.5291424,0.1424713-0.5291424
				C38.4817505,13.4705038,38.3596497,13.2263031,38.1358185,13.1245737z M25.6810303,49.7154121
				c-0.1424084-0.0508652-0.2848797-0.1017303-0.427351-0.1525955c-0.2848797-0.1119766-0.5596371-0.2238922-0.8343925-0.345993
				c-0.3256226-0.1424713-0.641058-0.295063-0.9564953-0.4579048c-0.4884014-0.2442017-0.9564934-0.5087738-1.4144001-0.7936516
				c-0.4476604-0.2747574-0.8852577-0.5698242-1.3024235-0.8954468c-0.2340164-0.1729622-0.4782791-0.3662987-0.7122936-0.5596352
				c-0.1322861-0.1017914-0.2747574-0.2238922-0.4069805-0.3561783c-0.1832123-0.1424713-0.3561783-0.3052483-0.5291424-0.4782143
				c-0.4375362-0.4070435-0.8649502-0.8445778-1.2515583-1.3024864c-0.2442627-0.2645721-0.4680939-0.5392647-0.6818008-0.8242073
				c-0.0304928-0.0203705-0.0508633-0.0508652-0.0610485-0.0712357c-0.2136459-0.2645721-0.4069805-0.5392685-0.600317-0.8242073
				c-0.2645702,0.2238922-0.4172268,0.3459892-0.4172268,0.3459892c-0.2035217,0.1627808-0.2543869,0.4477234-0.1119156,0.6613693
				c0.0508652,0.0712357,0.1017303,0.1424675,0.1627789,0.2137032c0.173027,0.2442017,0.3561783,0.4782791,0.5597,0.7122955
				c0,0.0101852,0.0101223,0.0304947,0.0304928,0.0406799c0.1933365,0.2340775,0.3968582,0.4680901,0.600378,0.6919212
				c0.518959,0.5901909,1.0887794,1.1396446,1.6789112,1.6484146c0.5901928,0.5087738,1.2108803,0.9972382,1.8621216,1.4347725
				c0.4884014,0.3358078,0.987051,0.6410599,1.5059452,0.9361229c0.1933365,0.1017914,0.386673,0.2035217,0.5901928,0.3052521
				c0.4375362,0.2238922,0.8954449,0.4375343,1.3533516,0.6308708c0.0304947,0.0101852,0.0712357,0.0305557,0.1017303,0.040741
				c0.4579067,0.1933365,0.9259987,0.3663025,1.4042149,0.518959c0.254385,0.0915451,0.5291424-0.040741,0.6308727-0.2951279
				c0,0,0.0712357-0.1831512,0.2035198-0.4985886C26.3322735,49.9494896,26.0066509,49.837513,25.6810303,49.7154121z
				 M26.566288,48.8199692c-0.0610504-0.0203094-0.1322231,0.0101852-0.1525936,0.0814209
				c-0.0203705,0.0610504,0.0101852,0.1322861,0.0814209,0.1526566c0.1627789,0.0508614,0.3255596,0.1017265,0.4884014,0.1424065
				c0.0203705-0.0712357,0.0508652-0.1424065,0.0814209-0.2238274
				C26.8919106,48.9217606,26.7291298,48.8708344,26.566288,48.8199692z M37.4438362,48.8199692
				c-0.1627808,0.0508652-0.3255615,0.1017914-0.4985886,0.1526566c0.0305557,0.0814209,0.0610504,0.1525917,0.0916061,0.2238274
				c0.1627808-0.0406799,0.3256226-0.0915451,0.4782181-0.1424065c0.0712357-0.0203705,0.1119766-0.0916061,0.0814209-0.1526566
				C37.5761223,48.8301544,37.5048866,48.7996597,37.4438362,48.8199692z M51.7708702,30.2905331
				c-0.0101852-0.173027-0.0203705-0.3358059-0.0406799-0.4986477c-0.0305557-0.2543869-0.0610504-0.4985867-0.1017914-0.7529736
				c-0.0406799-0.3154354-0.1017303-0.6410561-0.172966-0.9666157c-0.0304947-0.173027-0.0610504-0.3358078-0.1119156-0.4986496
				c-0.040741-0.2238293-0.0916061-0.4477215-0.1628418-0.6715508c-0.0508652-0.213707-0.1119118-0.427351-0.1831474-0.641058
				c-0.1017303-0.3866711-0.2340164-0.773344-0.3764877-1.1498299c-0.1017303-0.2848797-0.2136459-0.5596371-0.3358078-0.8343925
				c-0.1119156-0.2848797-0.2340126-0.5494518-0.3662987-0.8242092c-0.0915451-0.2035198-0.1933365-0.3968563-0.3052521-0.6003151
				c-0.0916061-0.173027-0.172966-0.3358078-0.2747574-0.4986496c-0.3662987-0.681736-0.7834663-1.3431034-1.2515602-1.9638519
				c-0.1627769-0.2238293-0.4680901-0.2746944-0.6919212-0.1322861l-0.4579048,0.2951279
				c0.3561745,0.4375362,0.6716118,0.9056282,0.9768639,1.3838444c0.1221008,0.1933365,0.2340126,0.386673,0.3459282,0.5800076
				c0.4172287,0.6919231,0.7733459,1.414402,1.0887794,2.1571884c0.1221008,0.2848797,0.2442017,0.5698223,0.3358078,0.8547649
				c0.0101852,0,0.0101852,0,0.0101852,0.0101223c0.1017303,0.2747574,0.1933365,0.5597,0.2950668,0.8547649
				c0.1017914,0.3459301,0.2035179,0.7021065,0.295063,1.0582218c0.1221619,0.4985867,0.2238922,1.0073586,0.3053131,1.5263176
				c0.0610504,0.3561764,0.1119156,0.722477,0.1424103,1.0887794c0.0305557,0.2340145,0.0509262,0.4782772,0.0610504,0.7122917
				v0.0101852c0.0101852,0.2136459,0.0203705,0.4171658,0.0305557,0.6308727v0.0406799
				c0.0101852,0.173027,0.0101852,0.3561764,0.0101852,0.5291424c0,0.1627808,0,0.3256226-0.0101852,0.4883995
				c0.345993-0.0203056,0.5393257-0.0304909,0.5393257-0.0304909c0.2746964-0.0101852,0.4782181-0.2238922,0.4884033-0.4985886
				C51.8522911,31.3894367,51.8217354,30.8399849,51.7708702,30.2905331z M49.8172035,31.8982086
				c-0.0712357,0-0.1322861,0.0610504-0.1322861,0.1221008c0,0.173027,0,0.3561783-0.0101852,0.5291405
				c0.0916061-0.0101852,0.172966-0.0101852,0.2543869-0.0101852c0.0101852-0.1729622,0.0101852-0.335743,0.0101852-0.50877
				C49.9393044,31.959259,49.8782539,31.8982086,49.8172035,31.8982086z M47.9245872,42.9996452
				c0,0-0.1526566-0.122097-0.4172287-0.335804c-0.1831512,0.2747536-0.386673,0.5494499-0.6003151,0.8140221
				c-0.2442627,0.3154335-0.4986496,0.6207466-0.7530365,0.9259987c-0.0711708,0.0813599-0.1424065,0.1627808-0.2136421,0.2442017
				c-0.2747574,0.295063-0.5393295,0.5698204-0.8242111,0.8445778c-0.2238922,0.2238312-0.4579048,0.4375381-0.7021065,0.6511803
				c-0.1424713,0.1221008-0.2849426,0.2543869-0.4375343,0.3663635c-0.2340775,0.1933365-0.4680939,0.386673-0.7122955,0.5596352
				c-0.2442017,0.1831512-0.4883995,0.3561172-0.7326622,0.5290833c-0.2543869,0.1628418-0.5087738,0.335804-0.7732811,0.4884605
				c-0.213707,0.1322861-0.4375992,0.2645721-0.6614304,0.386673c-0.1424713,0.0813599-0.2849426,0.1525955-0.4375343,0.2340164
				c-0.345993,0.1831512-0.7021103,0.345993-1.068409,0.50877c-0.2747574,0.1221008-0.5495148,0.2340164-0.8343925,0.345993
				l-0.4274139,0.1525955c-0.3154373,0.1221008-0.640995,0.2340775-0.9666176,0.3256187
				c0.1221008,0.3154373,0.1933365,0.4985886,0.1933365,0.4985886c0.081356,0.2035217,0.2746925,0.3256226,0.4782143,0.3256226
				c0.0508652,0,0.1017914-0.0101852,0.1526566-0.0304947c0.6206856-0.1933365,1.2210655-0.4274139,1.8111954-0.6919861
				c0.2951279-0.1322212,0.5901947-0.2645073,0.8750725-0.4069786c0.2849426-0.1322861,0.5698853-0.2849426,0.8445816-0.4375381
				c0.4680901-0.2747574,0.9361229-0.5596352,1.3737183-0.854763c0.5290833-0.3561172,1.0378532-0.7326012,1.5364418-1.1498299
				c0.2442627-0.2035217,0.4782753-0.4069786,0.7122917-0.6206856c0.040741-0.0304947,0.0712357-0.0610504,0.1017914-0.0916061
				c0.2034607-0.1932755,0.3967972-0.3764877,0.5901299-0.5698242c0.3663635-0.3561134,0.7122955-0.7326012,1.0480995-1.1294594
				c0.1424713-0.1627769,0.2747574-0.335804,0.4171677-0.50877c0.040741-0.0508652,0.0814209-0.1017303,0.1221008-0.1525955
				c0.1322861-0.173027,0.2645721-0.345993,0.3968544-0.5291405C48.1789703,43.4778633,48.1382294,43.1726112,47.9245872,42.9996452
				z M46.6119156,41.921051c-0.0915451,0.1424713-0.1933365,0.2848816-0.2950668,0.4273529
				c-0.0406799,0.0610504-0.0203705,0.1424713,0.0304947,0.1831512c0.0203705,0.0101852,0.0509262,0.0203705,0.0712357,0.0203705
				c0.040741,0,0.0814209-0.0203705,0.1119766-0.0508652c0.1017303-0.1322861,0.1932755-0.2747574,0.2848816-0.4070435
				C46.7543869,42.0329666,46.6831512,41.9821014,46.6119156,41.921051z M17.6933365,42.3484039
				c-0.1017303-0.1424713-0.2035217-0.2848816-0.2950668-0.4273529c-0.0712357,0.0610504-0.1424694,0.1119156-0.2035198,0.172966
				c0.0915432,0.1322861,0.1831493,0.2747574,0.2848797,0.4070435c0.0305557,0.0304947,0.0712357,0.0508652,0.1119766,0.0508652
				c0.0203094,0,0.0508652-0.0101852,0.0711727-0.0203705C17.713707,42.4908752,17.7340145,42.4094543,17.6933365,42.3484039z
				 M16.6147423,20.2575035c-0.213707-0.1424084-0.5087719-0.0915432-0.6716146,0.1119785
				c-0.46803,0.6308708-0.895381,1.2922382-1.2719297,1.9841595c-0.1017294,0.1628418-0.1831503,0.3256226-0.2746944,0.4986496
				c-0.1017914,0.2034588-0.2035208,0.3967953-0.3052502,0.6003151c-0.1221008,0.2747574-0.2442627,0.5393295-0.3663635,0.8242092
				c-0.1119146,0.2747555-0.2238293,0.5495129-0.3357449,0.8343925c-0.0101852,0.0610504-0.0305557,0.1119156-0.0610495,0.172966
				c-0.0916071,0.2645702-0.1832132,0.5393276-0.2645721,0.814085c-0.0916061,0.2746944-0.173027,0.5596352-0.2441998,0.8445148
				c-0.0203714,0.0610504-0.0305567,0.1221008-0.0509272,0.1730289c-0.0711737,0.2950649-0.1322861,0.5799446-0.1933355,0.8750725
				c-0.1424093,0.6715508-0.2442007,1.3431644-0.3052511,2.0350876c-0.0406799,0.3154354-0.0610504,0.6308727-0.0712357,0.9463081
				c-0.0203085,0.3256207-0.0304937,0.6512432-0.0304937,0.9869881c0,0.2645721,0.213644,0.4782791,0.4782152,0.4884644
				c0,0,0.2035217,0.0101852,0.5495138,0.0304909c-0.0101852-0.1627769-0.0101852-0.3256187-0.0101852-0.4883995
				c0-0.172966,0-0.3561153,0.0101852-0.5291424h-0.0101852c0-0.1424713,0.0101852-0.2950649,0.0203705-0.4375362
				c0.0304937-0.641058,0.0915442-1.2719307,0.1932735-1.8926182c0.0916061-0.6206856,0.213707-1.2414341,0.3765488-1.8417511
				c0.0813589-0.3052502,0.172965-0.6105633,0.2645092-0.9056282c0.0916061-0.2848797,0.1832123-0.5698223,0.2747564-0.8445797
				c0.0101852-0.0101223,0.0101852-0.0101223,0.0101852-0.0101223c0.1119156-0.2951279,0.2238302-0.5800076,0.3358068-0.8547649
				c0.3663015-0.8547649,0.7936525-1.6789722,1.2719297-2.4624386c0.1017303-0.173027,0.2034588-0.345993,0.3154373-0.5087719
				c0.0712357-0.1119766,0.1525936-0.213707,0.2238293-0.3256226c0.1831493-0.2849407,0.3866711-0.5596352,0.600378-0.8242073
				L16.6147423,20.2575035z M14.3252678,32.0203094c0-0.0610504-0.0610495-0.1221008-0.1220999-0.1221008c0,0,0,0-0.0101852,0
				c-0.0610504,0-0.1221008,0.0610504-0.1221008,0.1322861c0,0.173027,0,0.3358078,0.0101852,0.50877
				c0.0813589,0,0.1627798,0,0.2543859,0.0101852C14.3252678,32.3764877,14.3252678,32.1933365,14.3252678,32.0203094z
				 M46.5,21.4378891c-0.1017303-0.1424713-0.2035217-0.2747555-0.3154373-0.4070415l-0.213707,0.1424713
				c0.1119804,0.1424713,0.213707,0.2747555,0.3154373,0.4171658c0.0305557,0.0305557,0.0712357,0.0509262,0.1119766,0.0509262
				c0.0203094,0,0.0508652-0.0101852,0.0711746-0.0203705C46.5203705,21.5803604,46.5406799,21.4989395,46.5,21.4378891z
				 M37.5659332,14.9561405c-0.0610466-0.0203705-0.1322212,0.0101852-0.1525917,0.0813589
				c-0.0203705,0.0611124,0.0101852,0.1322851,0.0814209,0.1526566c0.1627808,0.0508642,0.3255577,0.1119146,0.4883995,0.172965
				c0.0304947-0.0915442,0.0508652-0.172965,0.0610504-0.2442007C37.8814316,15.0578699,37.728775,15.0070047,37.5659332,14.9561405
				z"/>
			<path class="st0" d="M50.8245621,31.4606724v-0.0406799c-0.0101852-0.213707-0.0203705-0.4172268-0.0305557-0.6308727v-0.0101852
				c-0.0101242-0.2340145-0.0304947-0.4782772-0.0610504-0.7122917c-0.0304947-0.3663025-0.0813599-0.7326031-0.1424103-1.0887794
				c-0.0814209-0.518959-0.1831512-1.0277309-0.3053131-1.5263176c-0.0915451-0.3561153-0.1932716-0.7122917-0.295063-1.0582218
				c-0.1017303-0.2950649-0.1933365-0.5800076-0.2950668-0.8547649c0-0.0101223,0-0.0101223-0.0101852-0.0101223
				c-0.1017303-0.2951279-0.213707-0.5800076-0.3358078-0.8547649c-0.3154335-0.7427864-0.6715508-1.4652653-1.0887794-2.1571884
				c-0.1119156-0.1933346-0.2238274-0.3866711-0.3459282-0.5800076c-0.3052521-0.4782162-0.6206894-0.9463081-0.9768639-1.3838444
				l-0.7529755,0.4782162c0.1119156,0.1322861,0.213707,0.2645702,0.3154373,0.4070415
				c0.0406799,0.0610504,0.0203705,0.1424713-0.0305557,0.1831512c-0.0203094,0.0101852-0.0508652,0.0203705-0.0711746,0.0203705
				c-0.040741,0-0.0814209-0.0203705-0.1119766-0.0509262c-0.1017303-0.1424103-0.2034569-0.2746944-0.3154373-0.4171658
				l-6.4003258,4.1007309c-0.7631607,0.4884014-1.760334,0.4375362-2.6049118-0.1933365
				c-0.7733421-0.5596981-1.1294594-1.4856358-0.9056282-2.350523c0.5495148-2.1165085,1.414402-5.4032173,1.923172-7.3670692
				c-0.1628418-0.0610504-0.3256187-0.1221008-0.4883995-0.172965c-0.0712357-0.0203714-0.1017914-0.0915442-0.0814209-0.1526566
				c0.0203705-0.0711737,0.0915451-0.1017294,0.1525917-0.0813589c0.1628418,0.0508642,0.3154984,0.1017294,0.4782791,0.1627798
				c0.1017303-0.3459301,0.172966-0.641058,0.2340164-0.8750734c-0.3154373-0.1119146-0.6410599-0.2238913-0.9666786-0.3154354
				c-0.4273529-0.1221008-0.854702-0.2340155-1.2922401-0.3256216c-0.213707-0.0508652-0.4375343-0.0916061-0.6614265-0.1322861
				c-0.4069824-0.0712357-0.8140221-0.1322851-1.2210655-0.1831503c-0.0711746-0.0101852-0.1322861-0.0203705-0.2034607-0.0203705
				c-1.2821159-0.1221008-2.5744152-0.1221008-3.846344,0c-0.0712357,0-0.1526566,0.0101852-0.2238312,0.0305557
				c-0.3968563,0.0406799-0.7835274,0.1017294-1.1600151,0.1627798c-0.2747555,0.0407419-0.5393276,0.1017914-0.8038979,0.1628418
				c-0.3967953,0.0813589-0.7834663,0.1831503-1.1701393,0.2950649c-0.0101852,0-0.0203705,0.0101862-0.0305557,0.0101862
				c-0.3256207,0.0915442-0.6511803,0.2035208-0.9666176,0.3154354c0.0610504,0.2340155,0.132225,0.5291433,0.2340164,0.8750734
				c0.1525936-0.0610504,0.3154354-0.1119156,0.4782162-0.1627798c0.0610485-0.0203705,0.1322842,0.0101852,0.1526546,0.0813589
				c0.0203724,0.0611124-0.0101852,0.1322851-0.0814209,0.1526566c-0.1627789,0.0508642-0.3256207,0.1119146-0.4883995,0.172965
				c0.5087719,1.9638519,1.3736591,5.2505608,1.923172,7.3670692c0.2238293,0.8648872-0.1322861,1.7908249-0.9666786,2.4013882
				c-0.7835293,0.5800076-1.7807026,0.6308727-2.5438595,0.1424713l-6.4003296-4.1007309
				c-0.1119766,0.1424713-0.213707,0.2747555-0.3154984,0.4171658c-0.0304928,0.0305557-0.0711727,0.0509262-0.1119137,0.0509262
				c-0.0203094,0-0.0508652-0.0101852-0.0712357-0.0203705c-0.0508652-0.0406799-0.0712357-0.1221008-0.0304947-0.1831512
				c0.1017303-0.1424713,0.2035217-0.2747555,0.3154354-0.4070415l-0.7529716-0.4782162
				c-0.213707,0.2645721-0.4172287,0.5392666-0.600378,0.8242073c-0.0712357,0.1119156-0.1525936,0.2136459-0.2238293,0.3256226
				c-0.1119785,0.1627789-0.213707,0.3357449-0.3154373,0.5087719c-0.4782772,0.7834663-0.9056282,1.6076736-1.2719297,2.4624386
				c-0.1119766,0.2747574-0.2238913,0.5596371-0.3358068,0.8547649c0,0,0,0-0.0101852,0.0101223
				c-0.0915442,0.2747574-0.1831503,0.5597-0.2747564,0.8445797c-0.0915442,0.2950649-0.1831503,0.600378-0.2645092,0.9056282
				c-0.1526566,0.600317-0.2747564,1.2210655-0.3765488,1.8417511c-0.0915442,0.6206875-0.1525936,1.2515602-0.1932735,1.8926182
				c0,0.1424713-0.0101852,0.2849407-0.0101852,0.4375362c-0.0101852,0.173027-0.0101852,0.3561764-0.0101852,0.5291424
				c0,0.1627808,0,0.3256226,0.0101852,0.4883995c0.2340155,0.0203705,0.5290804,0.0305595,0.8852577,0.0610504
				c-0.0101852-0.1729622-0.0101852-0.335743-0.0101852-0.50877c0-0.0712357,0.0610504-0.1322861,0.1221008-0.1322861
				c0.0101852,0,0.0101852,0,0.0101852,0c0.0610504,0,0.1220999,0.0610504,0.1220999,0.1221008
				c0,0.173027,0,0.3561783,0.0101852,0.5291405c2.0147171,0.1119156,5.4133415,0.3052521,7.6010227,0.4375381
				c0.8954449,0.0508652,1.668787,0.681797,1.9842243,1.6585999c0.3052502,0.9260025,0.0508633,1.8926163-0.6512432,2.4624405
				c-1.6890965,1.3839073-4.3041916,3.5309105-5.8711872,4.8130226c0.0915451,0.1424713,0.1933365,0.2848816,0.2950668,0.4273529
				c0.040678,0.0610504,0.0203705,0.1424713-0.0305576,0.1831512c-0.0203075,0.0101852-0.0508633,0.0203705-0.0711727,0.0203705
				c-0.040741,0-0.0814209-0.0203705-0.1119766-0.0508652c-0.1017303-0.1322861-0.1933365-0.2747574-0.2848797-0.4070435
				c-0.2747574,0.2238922-0.5087719,0.4171677-0.6919231,0.559639c0.1933365,0.2849388,0.3866711,0.5596352,0.600317,0.8242073
				c0.0101852,0.0203705,0.0305557,0.0508652,0.0610485,0.0712357c0.213707,0.2849426,0.4375381,0.5596352,0.6818008,0.8242073
				c0.3866081,0.4579086,0.8140221,0.895443,1.2515583,1.3024864c0.1729641,0.172966,0.3459301,0.335743,0.5291424,0.4782143
				c0.1322231,0.1322861,0.2746944,0.2442017,0.4069805,0.3561783c0.2340145,0.1933365,0.4782772,0.386673,0.7122936,0.5596352
				c0.427351,0.3154373,0.854763,0.6105042,1.3024235,0.8954468c0.4579067,0.2848778,0.9259987,0.5494499,1.4144001,0.7936516
				c0.3154373,0.1628418,0.6308727,0.3154335,0.9564953,0.4579048c0.2747555,0.1221008,0.5495129,0.2340164,0.8343925,0.345993
				c0.1424713,0.0508652,0.2849426,0.1017303,0.427351,0.1525955c0.3256207,0.1221008,0.6512432,0.2340775,0.9768639,0.3256187
				c0.0814209-0.2238274,0.1933365-0.50877,0.3256226-0.8445778c-0.1628418-0.0406799-0.3256226-0.0915451-0.4884014-0.1424065
				c-0.0712357-0.0203705-0.1017914-0.0916061-0.0814209-0.1526566c0.0203705-0.0712357,0.0915432-0.1017303,0.1525936-0.0814209
				c0.1628418,0.0508652,0.3256226,0.1017914,0.4986496,0.1526566c0.7326012-1.8824959,1.9638519-5.0572281,2.7676888-7.0923157
				c0.3256226-0.8343315,1.1498299-1.3736572,2.2080536-1.3736572c0,0,0.0101852,0,0.0305557,0
				c0.9564934,0,1.7807007,0.5393257,2.1063232,1.3736572c0.8038368,2.0350876,2.0350876,5.2098198,2.7676888,7.0923157
				c0.173027-0.0508652,0.3358078-0.1017914,0.4985886-0.1526566c0.0610504-0.0203094,0.1322861,0.0101852,0.1526566,0.0814209
				c0.0305557,0.0610504-0.0101852,0.1322861-0.0814209,0.1526566c-0.1525955,0.0508614-0.3154373,0.1017265-0.4782181,0.1424065
				c0.1322861,0.3358078,0.2442017,0.6207504,0.3256226,0.8445778c0.3256226-0.0915413,0.6511803-0.2035179,0.9666176-0.3256187
				l0.4274139-0.1525955c0.2848778-0.1119766,0.5596352-0.2238922,0.8343925-0.345993
				c0.3662987-0.1627769,0.7224159-0.3256187,1.068409-0.50877c0.1525917-0.0814209,0.295063-0.1526566,0.4375343-0.2340164
				c0.2238312-0.1221008,0.4477234-0.2543869,0.6614304-0.386673c0.2645073-0.1526566,0.5188942-0.3256187,0.7732811-0.4884605
				c0.2442627-0.172966,0.4884605-0.345932,0.7326622-0.5290833c0.2442017-0.1729622,0.4782181-0.3662987,0.7122955-0.5596352
				c0.1525917-0.1119766,0.295063-0.2442627,0.4375343-0.3663635c0.2442017-0.2136421,0.4782143-0.4273491,0.7021065-0.6511803
				c0.2848816-0.2747574,0.5494537-0.5495148,0.8242111-0.8445778c0.0712357-0.0814209,0.1424713-0.1628418,0.2136421-0.2442017
				c0.2543869-0.3052521,0.5087738-0.6105652,0.7530365-0.9259987c0.2136421-0.2645721,0.4171638-0.5392685,0.6003151-0.8140221
				c-0.1831512-0.1526566-0.4171638-0.345932-0.6919212-0.5698242c-0.0916061,0.1322861-0.1831512,0.2747574-0.2848816,0.4070435
				C46.5,42.5315552,46.4593201,42.5519257,46.4185791,42.5519257c-0.0203094,0-0.0508652-0.0101852-0.0712357-0.0203705
				c-0.0508652-0.0406799-0.0711746-0.1221008-0.0304947-0.1831512c0.1017303-0.1424713,0.2035217-0.2848816,0.2950668-0.4273529
				c-1.5669975-1.2821121-4.1820908-3.4291153-5.8711853-4.8130226c-0.7021103-0.5698242-0.9564934-1.536438-0.6309357-2.5336761
				c0.2951279-0.9055672,1.06847-1.536499,1.963913-1.5873642c2.1876831-0.1322861,5.5761223-0.3256226,7.5908394-0.4375381
				h0.0101852c0.0101852-0.1729622,0.0101852-0.3561134,0.0101852-0.5291405c0-0.0610504,0.0610504-0.1221008,0.1322861-0.1221008
				c0.0610504,0,0.1221008,0.0610504,0.1221008,0.1322861c0,0.173027,0,0.3358078-0.0101852,0.50877
				c0.3561134-0.0304909,0.6614265-0.0406799,0.895443-0.0610504c0.0101852-0.1627769,0.0101852-0.3256187,0.0101852-0.4883995
				C50.8347473,31.8168488,50.8347473,31.6336994,50.8245621,31.4606724z M32.0101852,36.5077133
				c-2.4929943,0-4.5178967-2.0249023-4.5178967-4.5178986c0-2.4828091,2.0249023-4.5077114,4.5178967-4.5077114
				c2.482811,0,4.5077133,2.0249023,4.5077133,4.5077114C36.5178986,34.482811,34.4929962,36.5077133,32.0101852,36.5077133z"/>
			<path class="st0" d="M51.7708702,30.2905331c-0.0101852-0.173027-0.0203705-0.3358059-0.0406799-0.4986477
				c-0.0305557-0.2543869-0.0610504-0.4985867-0.1017914-0.7529736c-0.0406799-0.3154354-0.1017303-0.6410561-0.172966-0.9666157
				c-0.0304947-0.173027-0.0610504-0.3358078-0.1119156-0.4986496c-0.040741-0.2238293-0.0916061-0.4477215-0.1628418-0.6715508
				c-0.0508652-0.213707-0.1119118-0.427351-0.1831474-0.641058c-0.1017303-0.3866711-0.2340164-0.773344-0.3764877-1.1498299
				c-0.1017303-0.2848797-0.2136459-0.5596371-0.3358078-0.8343925c-0.1119156-0.2848797-0.2340126-0.5494518-0.3662987-0.8242092
				c-0.0915451-0.2035198-0.1933365-0.3968563-0.3052521-0.6003151c-0.0916061-0.173027-0.172966-0.3358078-0.2747574-0.4986496
				c-0.3662987-0.681736-0.7834663-1.3431034-1.2515602-1.9638519c-2.431942-3.378252-5.9119263-5.9627914-9.9515457-7.2652159
				c-0.0712357-0.0305557-0.1526566-0.0610504-0.2340775-0.0814209c-0.2848778-0.0916061-0.5901909-0.172965-0.8852577-0.2543859
				c-0.0304947-0.0101852-0.0610504-0.0203705-0.0915451-0.0203705c-0.2543831-0.0712357-0.5189552-0.1322861-0.7733421-0.1831503
				c-0.6003761-0.1322861-1.2108803-0.2340155-1.8214417-0.2950659c-0.2543869-0.0305557-0.518898-0.0509262-0.7732811-0.0712357
				c-0.2340775-0.0203705-0.4579086-0.0305557-0.6919861-0.040741c-0.0813599-0.0203085-0.1627808-0.0203085-0.2543869-0.0101233
				c-0.1933365-0.0203714-0.3967934-0.0203714-0.6003151-0.0203714s-0.4070415,0-0.600378,0.0203714
				c-0.0915451-0.0101852-0.172966-0.0101852-0.2543869,0.0101233c-0.2340145,0.0101852-0.468029,0.0203705-0.7021065,0.040741
				c-0.2543869,0.0203094-0.5189571,0.0406799-0.773344,0.0712357c-0.5698223,0.0610504-1.1294575,0.1525946-1.6890945,0.2645712
				c-0.3154373,0.0711737-0.6308727,0.1424093-0.9361229,0.2238302c-0.3154373,0.0814209-0.6308727,0.1627798-0.9463081,0.2645712
				c-0.0712357,0.0203705-0.1526566,0.0508652-0.2340775,0.0814209c-4.0294342,1.3024244-7.4992943,3.8768396-9.9312391,7.2449083
				c-0.46803,0.6308708-0.895381,1.2922382-1.2719297,1.9841595c-0.1017294,0.1628418-0.1831503,0.3256226-0.2746944,0.4986496
				c-0.1017914,0.2034588-0.2035208,0.3967953-0.3052502,0.6003151c-0.1221008,0.2747574-0.2442627,0.5393295-0.3663635,0.8242092
				c-0.1119146,0.2747555-0.2238293,0.5495129-0.3357449,0.8343925c-0.0101852,0.0610504-0.0305557,0.1119156-0.0610495,0.172966
				c-0.0916071,0.2645702-0.1832132,0.5393276-0.2645721,0.814085c-0.0916061,0.2746944-0.173027,0.5596352-0.2441998,0.8445148
				c-0.0203714,0.0610504-0.0305567,0.1221008-0.0509272,0.1730289c-0.0711737,0.2950649-0.1322861,0.5799446-0.1933355,0.8750725
				c-0.1424093,0.6715508-0.2442007,1.3431644-0.3052511,2.0350876c-0.0406799,0.3154354-0.0610504,0.6308727-0.0712357,0.9463081
				c-0.0203085,0.3256207-0.0304937,0.6512432-0.0304937,0.9869881v0.0305557c0,4.365242,1.4042149,8.4049225,3.805604,11.6711998
				c0.0508652,0.0712357,0.1017303,0.1424675,0.1627789,0.2137032c0.173027,0.2442017,0.3561783,0.4782791,0.5597,0.7122955
				c0,0.0101852,0.0101223,0.0304947,0.0304928,0.0406799c0.1933365,0.2340775,0.3968582,0.4680901,0.600378,0.6919212
				c0.518959,0.5901909,1.0887794,1.1396446,1.6789112,1.6484146c0.5901928,0.5087738,1.2108803,0.9972382,1.8621216,1.4347725
				c0.4884014,0.3358078,0.987051,0.6410599,1.5059452,0.9361229c0.1933365,0.1017914,0.386673,0.2035217,0.5901928,0.3052521
				c0.4375362,0.2238922,0.8954449,0.4375343,1.3533516,0.6308708c0.0304947,0.0101852,0.0712357,0.0305557,0.1017303,0.040741
				c0.4579067,0.1933365,0.9259987,0.3663025,1.4042149,0.518959c1.9536667,0.6511803,4.0294952,0.9971733,6.1866837,0.9971733
				c2.1673737,0,4.2431412-0.345993,6.1764984-0.9971733c0.6206856-0.1933365,1.2210655-0.4274139,1.8111954-0.6919861
				c0.2951279-0.1322212,0.5901947-0.2645073,0.8750725-0.4069786c0.2849426-0.1322861,0.5698853-0.2849426,0.8445816-0.4375381
				c0.4680901-0.2747574,0.9361229-0.5596352,1.3737183-0.854763c0.5290833-0.3561172,1.0378532-0.7427864,1.5364418-1.1498299
				c0.2442627-0.2035217,0.4782753-0.4069786,0.7122917-0.6206856c0.040741-0.0304947,0.0712357-0.0610504,0.1017914-0.0916061
				c0.2034607-0.1932755,0.3967972-0.3764877,0.5901299-0.5698242c0.3663635-0.3561134,0.7122955-0.7326012,1.0480995-1.1294594
				c0.1424713-0.1627769,0.2747574-0.335804,0.4171677-0.50877c0.040741-0.0508652,0.0814209-0.1017303,0.1221008-0.1525955
				c0.1322861-0.173027,0.2645721-0.345993,0.3968544-0.5291405c2.4115753-3.2765236,3.8361626-7.3263283,3.8361626-11.7017555
				v-0.0406799C51.8522911,31.3894367,51.8217354,30.8399849,51.7708702,30.2905331z M47.5073586,42.6638412
				c-0.1831512,0.2747536-0.386673,0.5494499-0.6003151,0.8140221c-0.2340775,0.3154335-0.4884644,0.6207466-0.7530365,0.9259987
				c-0.0711708,0.0813599-0.1424065,0.1627808-0.2136421,0.2442017c-0.2747574,0.295063-0.5393295,0.5698204-0.8242111,0.8445778
				c-0.2238922,0.2238312-0.4579048,0.4375381-0.7021065,0.6511803c-0.1424713,0.1221008-0.2849426,0.2543869-0.4375343,0.3663635
				c-0.2340775,0.1933365-0.4680939,0.386673-0.7122955,0.5596352c-0.2442017,0.1831512-0.4883995,0.3561172-0.7326622,0.5290833
				c-0.2543869,0.1628418-0.5087738,0.335804-0.7732811,0.4884605c-0.213707,0.1322861-0.4375992,0.2645721-0.6614304,0.386673
				c-0.1424713,0.0813599-0.2849426,0.1525955-0.4375343,0.2340164c-0.345993,0.1831512-0.7021103,0.345993-1.068409,0.50877
				c-0.2747574,0.1221008-0.5495148,0.2442017-0.8343925,0.345993l-0.4274139,0.1525955
				c-0.3154373,0.1221008-0.640995,0.2340775-0.9666176,0.3256187c-1.6993446,0.4985886-3.4901695,0.7733459-5.3522911,0.7733459
				s-3.6530094-0.2747574-5.3522911-0.7733459c-0.3256207-0.0915413-0.6512432-0.2035179-0.9768639-0.3256187
				c-0.1424084-0.0508652-0.2848797-0.1017303-0.427351-0.1525955c-0.2848797-0.1017914-0.5596371-0.2238922-0.8343925-0.345993
				c-0.3256226-0.1424713-0.641058-0.295063-0.9564953-0.4579048c-0.4884014-0.2442017-0.9564934-0.5087738-1.4144001-0.7936516
				c-0.4476604-0.2849426-0.8750725-0.5800095-1.3024235-0.8954468c-0.2340164-0.1729622-0.4782791-0.3662987-0.7122936-0.5596352
				c-0.1322861-0.1119766-0.2747574-0.2238922-0.4069805-0.3561783c-0.1832123-0.1424713-0.3561783-0.3052483-0.5291424-0.4782143
				c-0.4375362-0.4070435-0.8649502-0.8445778-1.2515583-1.3024864c-0.2442627-0.2645721-0.4680939-0.5392647-0.6818008-0.8242073
				c-0.0304928-0.0203705-0.0508633-0.0508652-0.0610485-0.0712357c-0.2136459-0.2645721-0.4069805-0.5392685-0.600317-0.8242073
				c-2.0045938-2.9101639-3.2154732-6.4105148-3.3070173-10.1754417c-0.0101852-0.1627769-0.0101852-0.3256187-0.0101852-0.4883995
				c0-0.172966,0-0.3561153,0.0101852-0.5291424c0-0.1525955,0.0101852-0.2950649,0.0101852-0.4375362
				c0.0406799-0.641058,0.1017294-1.2719307,0.1932735-1.8926182c0.1017923-0.6206856,0.2238922-1.2414341,0.3765488-1.8417511
				c0.0813589-0.3052502,0.172965-0.6105633,0.2645092-0.9056282c0.0916061-0.2848797,0.1832123-0.5698223,0.2747564-0.8445797
				c0.0101852-0.0101223,0.0101852-0.0101223,0.0101852-0.0101223c0.1119156-0.2951279,0.2238302-0.5800076,0.3358068-0.8547649
				c0.3663015-0.8547649,0.7936525-1.6789722,1.2719297-2.4624386c0.1017303-0.173027,0.2034588-0.345993,0.3154373-0.5087719
				c0.0712357-0.1119766,0.1525936-0.213707,0.2238293-0.3256226c0.1831493-0.2849407,0.3866711-0.5596352,0.600378-0.8242073
				c2.1876812-2.8694801,5.1894493-5.087719,8.6593075-6.3087845c0.3154373-0.1119146,0.6409969-0.2238913,0.9666176-0.3154354
				c0.0101852,0,0.0203705-0.0101862,0.0305557-0.0101862c0.386673-0.1119146,0.773344-0.213706,1.1701393-0.2950649
				c0.2645702-0.0610504,0.5291424-0.1220999,0.8038979-0.1628418c0.3764877-0.0610504,0.7631588-0.1220999,1.1600151-0.1627798
				c0.0711746-0.0203705,0.1525955-0.0305557,0.2238312-0.0305557c0.6308708-0.0712357,1.2719288-0.1017294,1.923172-0.1017294
				c0.6512413,0,1.2923012,0.0304937,1.923172,0.1017294c0.0711746,0,0.1322861,0.0101852,0.2034607,0.0203705
				c0.4172287,0.040679,0.8242073,0.1017294,1.2210655,0.1831503c0.2238922,0.0305567,0.4477196,0.0814209,0.6614265,0.1322861
				c0.4375381,0.0916061,0.8648872,0.2035208,1.2922401,0.3256216c0.3256187,0.0915442,0.6512413,0.2035208,0.9666786,0.3154354
				c3.4698601,1.2210655,6.4716263,3.4393044,8.6593094,6.3087845c0.3561745,0.4375362,0.6716118,0.9056282,0.9768639,1.3838444
				c0.1221008,0.1831512,0.2441978,0.386673,0.3459282,0.5800076c0.4172287,0.6919231,0.7733459,1.414402,1.0887794,2.1571884
				c0.1221008,0.2747574,0.2340775,0.5596371,0.3358078,0.8547649c0.0101852,0,0.0101852,0,0.0101852,0.0101223
				c0.1017303,0.2747574,0.1933365,0.5597,0.2950668,0.8547649c0.1017914,0.3459301,0.2035179,0.7021065,0.295063,1.0582218
				c0.1221619,0.4985867,0.2238922,1.0073586,0.3053131,1.5263176c0.0610504,0.3561764,0.1119156,0.722477,0.1424103,1.0887794
				c0.0305557,0.2340145,0.0509262,0.4782772,0.0610504,0.7122917v0.0101852
				c0.0101852,0.2136459,0.0203705,0.4171658,0.0305557,0.6308727v0.0406799
				c0.0101852,0.173027,0.0101852,0.3561764,0.0101852,0.5291424c0,0.1627808,0,0.3256226-0.0101852,0.4883995
				C50.7329559,36.2533264,49.5119514,39.7536774,47.5073586,42.6638412z"/>
			<path class="st0" d="M32.0101852,9.8582354c-12.2105255,0-22.1315784,9.9312391-22.1315784,22.1315804
				c0,9.066288,5.4642048,16.8607101,13.2789345,20.2796402c2.7066402,1.1905098,5.7084064,1.8519402,8.852644,1.8519402
				c3.2459679,0,6.3290939-0.7021103,9.107029-1.974041c7.6722603-3.4697952,13.0245514-11.1929817,13.0245514-20.1575394
				C54.1417656,19.7894745,44.2105255,9.8582354,32.0101852,9.8582354z M53.3582344,35.3680687
				c-0.0712357,0.5392647-0.1831474,1.0785942-0.3052483,1.5975494c0,0.0203094-0.0101852,0.0406799-0.0203705,0.0610504
				c-0.0406799,0.2035217-0.0915451,0.4069824-0.1525955,0.6003151c-0.0305557,0.1221008-0.0610504,0.2442017-0.1017914,0.3663635
				c-0.1221008,0.4578476-0.2746964,0.9055672-0.4375381,1.3532906c-0.0915413,0.2543869-0.1831474,0.5189552-0.295063,0.7631569
				c-0.0712357,0.1933365-0.1526566,0.3764877-0.2340775,0.5596352c-0.7834663,1.7908897-1.8111954,3.4494896-3.0322609,4.9453125
				c-0.1017303,0.1322861-0.2136459,0.2645721-0.3358078,0.3967934c-1.9332962,2.2793503-4.3448715,4.1515961-7.0718803,5.4642677
				c-0.3154373,0.1525955-0.6308708,0.2950668-0.9564934,0.4375381c-0.2035217,0.0813599-0.3968582,0.1627808-0.6003799,0.2442017
				c-0.1729622,0.0610466-0.335804,0.1322823-0.50877,0.1831474c-0.2950668,0.1119156-0.5800095,0.2035217-0.8750725,0.2950668
				c-0.3358078,0.1119766-0.681736,0.2035217-1.027729,0.2951279c-0.345993,0.0915451-0.691925,0.172966-1.0480385,0.2442017
				c-1.4042168,0.2848778-2.8593597,0.4375343-4.3449326,0.4375343c-3.4938946,0-6.7960052-0.8324661-9.7190838-2.3091621
				c-0.0011177-0.0005569-0.0021744-0.0010529-0.0032921-0.0016136c-5.2390709-2.6478233-9.2564564-7.3669472-10.9791517-13.0715027
				c-0.0188179-0.0625381-0.0357723-0.1257019-0.0540314-0.188427c-0.1566935-0.5367203-0.2900972-1.0831299-0.405304-1.6360588
				c-0.0217371-0.1054535-0.0463314-0.2098541-0.066515-0.3158684c-0.1199274-0.622303-0.2183027-1.2523041-0.283514-1.8921204
				c-0.0712357-0.7224159-0.1119146-1.4652672-0.1119146-2.2080536c0-2.2284241,0.3358068-4.3856125,0.9768019-6.4207001
				c0.1017914-0.3358059,0.213707-0.6716137,0.3358068-1.0073586c2.1877441-5.9526672,6.9192867-10.6842098,12.871954-12.871954
				c0.3358078-0.1322861,0.6613674-0.2442007,1.0073586-0.3358068c2.0350876-0.641058,4.192276-0.9869881,6.4308853-0.9869881
				c11.9153976,0,21.6228065,9.7073469,21.6228065,21.6228065c0,0.8648872-0.0508652,1.7196503-0.1628418,2.5540466
				C53.4498405,34.8185539,53.4090996,35.0933113,53.3582344,35.3680687z"/>
			<path class="st1" d="M34.548954,31.9912014c0,1.4070568-1.1405106,2.5475674-2.5401535,2.5475674
				c-1.4071045,0-2.5475674-1.1405106-2.5475674-2.5475674c0-1.3996906,1.1404629-2.5401535,2.5475674-2.5401535
				C33.4084435,29.4510479,34.548954,30.5915108,34.548954,31.9912014z"/>
		</g>
	</g>
</g>
</svg>
