<svg width="37" height="31" viewBox="0 0 37 31" fill="none" xmlns="http://www.w3.org/2000/svg">
<mask id="path-1-inside-1_556_9011" fill="white">
<path d="M37 16.2708C37 14.1464 35.2718 12.4166 33.1458 12.4166H32.0065L24.5588 1.7329C23.8388 0.69998 22.6579 0.083313 21.3968 0.083313H9.06654C7.474 0.083313 6.02483 1.08231 5.46212 2.57156L1.39367 13.3016H1.39675C0.544208 14.0107 0 15.0776 0 16.2708V24.75H3.08333V26.2916C3.08333 28.8416 5.15842 30.9166 7.70833 30.9166C10.2582 30.9166 12.3333 28.8416 12.3333 26.2916V24.75H24.6667V26.2916C24.6667 28.8416 26.7417 30.9166 29.2917 30.9166C31.8416 30.9166 33.9167 28.8416 33.9167 26.2916V24.75H37V16.2708ZM23.293 2.61627L30.1257 12.4166H15.4167V1.62498H21.3968C22.1522 1.62498 22.8614 1.99498 23.293 2.61627ZM6.90358 3.11731C7.24121 2.22469 8.10917 1.62498 9.065 1.62498H13.8735V12.4166H3.85417C3.68921 12.4166 3.52733 12.429 3.367 12.449L6.90358 3.11731ZM10.7901 26.2916C10.7901 27.9921 9.40725 29.375 7.70679 29.375C6.00633 29.375 4.62346 27.9921 4.62346 26.2916V24.75H10.7917L10.7901 26.2916ZM32.3735 26.2916C32.3735 27.9921 30.9906 29.375 29.2901 29.375C27.5897 29.375 26.2068 27.9921 26.2068 26.2916V24.75H32.3735V26.2916ZM35.4568 23.2083H1.54167V16.2708C1.54167 14.9959 2.57921 13.9583 3.85417 13.9583H33.1458C34.4208 13.9583 35.4583 14.9959 35.4583 16.2708L35.4568 23.2083Z"/>
</mask>
<path d="M32.0065 12.4166L-33.6209 58.1664L-9.74457 92.4166H32.0065V12.4166ZM24.5588 1.7329L-41.0717 47.4783L-41.0687 47.4827L24.5588 1.7329ZM5.46212 2.57156L80.2655 30.9345L80.2819 30.8913L80.2982 30.8481L5.46212 2.57156ZM1.39367 13.3016L-73.4097 -15.0614L-114.497 93.3016H1.39367V13.3016ZM1.39675 13.3016L52.5568 74.8048L222.668 -66.6984H1.39675V13.3016ZM0 24.75H-80V104.75H0V24.75ZM3.08333 24.75H83.0833V-55.25H3.08333V24.75ZM12.3333 24.75V-55.25H-67.6667V24.75H12.3333ZM24.6667 24.75H104.667V-55.25H24.6667V24.75ZM33.9167 24.75V-55.25H-46.0833V24.75H33.9167ZM37 24.75V104.75H117V24.75H37ZM23.293 2.61627L-42.4059 48.2632L-42.3691 48.3162L-42.3322 48.3692L23.293 2.61627ZM30.1257 12.4166V92.4166H183.424L95.751 -33.3362L30.1257 12.4166ZM15.4167 12.4166H-64.5833V92.4166H15.4167V12.4166ZM15.4167 1.62498V-78.375H-64.5833V1.62498H15.4167ZM6.90358 3.11731L81.7114 31.4684L81.7207 31.444L81.73 31.4195L6.90358 3.11731ZM13.8735 1.62498H93.8735V-78.375H13.8735V1.62498ZM13.8735 12.4166V92.4166H93.8735V12.4166H13.8735ZM3.367 12.449L-71.4409 -15.9021L-118.514 108.307L13.2898 91.8313L3.367 12.449ZM10.7901 26.2916L-69.2098 26.2117L-69.2099 26.2517V26.2916H10.7901ZM4.62346 24.75V-55.25H-75.3765V24.75H4.62346ZM10.7917 24.75L90.7916 24.83L90.8717 -55.25H10.7917V24.75ZM26.2068 24.75V-55.25H-53.7932V24.75H26.2068ZM32.3735 24.75H112.373V-55.25H32.3735V24.75ZM35.4568 23.2083V103.208H115.439L115.457 23.2261L35.4568 23.2083ZM1.54167 23.2083H-78.4583V103.208H1.54167V23.2083ZM35.4583 16.2708L115.458 16.2886L115.458 16.2797V16.2708H35.4583ZM37 16.2708H117C117 -30.0156 79.4753 -67.5834 33.1458 -67.5834V12.4166V92.4166C-8.93176 92.4166 -43 58.3084 -43 16.2708H37ZM33.1458 12.4166V-67.5834H32.0065V12.4166V92.4166H33.1458V12.4166ZM32.0065 12.4166L97.634 -33.3331L90.1862 -44.0169L24.5588 1.7329L-41.0687 47.4827L-33.6209 58.1664L32.0065 12.4166ZM24.5588 1.7329L90.1892 -44.0125C74.5041 -66.5158 48.8103 -79.9167 21.3968 -79.9167V0.083313V80.0833C-3.49451 80.0833 -26.8265 67.9158 -41.0717 47.4783L24.5588 1.7329ZM21.3968 0.083313V-79.9167H9.06654V0.083313V80.0833H21.3968V0.083313ZM9.06654 0.083313V-79.9167C-25.7038 -79.9167 -57.0159 -58.4114 -69.3739 -25.705L5.46212 2.57156L80.2982 30.8481C69.0656 60.576 40.6518 80.0833 9.06654 80.0833V0.083313ZM5.46212 2.57156L-69.3412 -25.7914L-73.4097 -15.0614L1.39367 13.3016L76.197 41.6645L80.2655 30.9345L5.46212 2.57156ZM1.39367 13.3016V93.3016H1.39675V13.3016V-66.6984H1.39367V13.3016ZM1.39675 13.3016L-49.7633 -48.2017C-67.993 -33.0377 -80 -9.82974 -80 16.2708H0H80C80 39.9849 69.0814 61.0592 52.5568 74.8048L1.39675 13.3016ZM0 16.2708H-80V24.75H0H80V16.2708H0ZM0 24.75V104.75H3.08333V24.75V-55.25H0V24.75ZM3.08333 24.75H-76.9167V26.2916H3.08333H83.0833V24.75H3.08333ZM3.08333 26.2916H-76.9167C-76.9167 73.0243 -39.0244 110.917 7.70833 110.917V30.9166V-49.0834C49.3412 -49.0834 83.0833 -15.3412 83.0833 26.2916H3.08333ZM7.70833 30.9166V110.917C54.4411 110.917 92.3333 73.0243 92.3333 26.2916H12.3333H-67.6667C-67.6667 -15.3412 -33.9246 -49.0834 7.70833 -49.0834V30.9166ZM12.3333 26.2916H92.3333V24.75H12.3333H-67.6667V26.2916H12.3333ZM12.3333 24.75V104.75H24.6667V24.75V-55.25H12.3333V24.75ZM24.6667 24.75H-55.3333V26.2916H24.6667H104.667V24.75H24.6667ZM24.6667 26.2916H-55.3333C-55.3333 73.0243 -17.4411 110.917 29.2917 110.917V30.9166V-49.0834C70.9246 -49.0834 104.667 -15.3412 104.667 26.2916H24.6667ZM29.2917 30.9166V110.917C76.0244 110.917 113.917 73.0243 113.917 26.2916H33.9167H-46.0833C-46.0833 -15.3411 -12.3413 -49.0834 29.2917 -49.0834V30.9166ZM33.9167 26.2916H113.917V24.75H33.9167H-46.0833V26.2916H33.9167ZM33.9167 24.75V104.75H37V24.75V-55.25H33.9167V24.75ZM37 24.75H117V16.2708H37H-43V24.75H37ZM23.293 2.61627L-42.3322 48.3692L-35.4995 58.1695L30.1257 12.4166L95.751 -33.3362L88.9183 -43.1366L23.293 2.61627ZM30.1257 12.4166V-67.5834H15.4167V12.4166V92.4166H30.1257V12.4166ZM15.4167 12.4166H95.4167V1.62498H15.4167H-64.5833V12.4166H15.4167ZM15.4167 1.62498V81.625H21.3968V1.62498V-78.375H15.4167V1.62498ZM21.3968 1.62498V81.625C-4.01413 81.625 -27.8642 69.1929 -42.4059 48.2632L23.293 2.61627L88.992 -43.0307C73.587 -65.2029 48.3185 -78.375 21.3968 -78.375V1.62498ZM6.90358 3.11731L81.73 31.4195C70.2895 61.6663 41.3458 81.625 9.065 81.625V1.62498V-78.375C-25.1275 -78.375 -55.807 -57.2169 -67.9228 -25.1849L6.90358 3.11731ZM9.065 1.62498V81.625H13.8735V1.62498V-78.375H9.065V1.62498ZM13.8735 1.62498H-66.1265V12.4166H13.8735H93.8735V1.62498H13.8735ZM13.8735 12.4166V-67.5834H3.85417V12.4166V92.4166H13.8735V12.4166ZM3.85417 12.4166V-67.5834C-0.295821 -67.5834 -3.84069 -67.2726 -6.55578 -66.9332L3.367 12.449L13.2898 91.8313C10.8954 92.1306 7.67424 92.4166 3.85417 92.4166V12.4166ZM3.367 12.449L78.1749 40.8001L81.7114 31.4684L6.90358 3.11731L-67.9043 -25.2338L-71.4409 -15.9021L3.367 12.449ZM10.7901 26.2916H-69.2099C-69.2099 -16.1907 -34.7755 -50.625 7.70679 -50.625V29.375V109.375C53.59 109.375 90.7901 72.1749 90.7901 26.2916H10.7901ZM7.70679 29.375V-50.625C50.1891 -50.625 84.6235 -16.1906 84.6235 26.2916H4.62346H-75.3765C-75.3765 72.1749 -38.1765 109.375 7.70679 109.375V29.375ZM4.62346 26.2916H84.6235V24.75H4.62346H-75.3765V26.2916H4.62346ZM4.62346 24.75V104.75H10.7917V24.75V-55.25H4.62346V24.75ZM10.7917 24.75L-69.2083 24.67L-69.2098 26.2117L10.7901 26.2916L90.7901 26.3716L90.7916 24.83L10.7917 24.75ZM32.3735 26.2916H-47.6265C-47.6265 -16.1907 -13.1922 -50.625 29.2901 -50.625V29.375V109.375C75.1734 109.375 112.373 72.1749 112.373 26.2916H32.3735ZM29.2901 29.375V-50.625C71.7724 -50.625 106.207 -16.1907 106.207 26.2916H26.2068H-53.7932C-53.7932 72.1749 -16.5931 109.375 29.2901 109.375V29.375ZM26.2068 26.2916H106.207V24.75H26.2068H-53.7932V26.2916H26.2068ZM26.2068 24.75V104.75H32.3735V24.75V-55.25H26.2068V24.75ZM32.3735 24.75H-47.6265V26.2916H32.3735H112.373V24.75H32.3735ZM35.4568 23.2083V-56.7917H1.54167V23.2083V103.208H35.4568V23.2083ZM1.54167 23.2083H81.5417V16.2708H1.54167H-78.4583V23.2083H1.54167ZM1.54167 16.2708H81.5417C81.5417 59.1787 46.7619 93.9583 3.85417 93.9583V13.9583V-66.0417C-41.6035 -66.0417 -78.4583 -29.187 -78.4583 16.2708H1.54167ZM3.85417 13.9583V93.9583H33.1458V13.9583V-66.0417H3.85417V13.9583ZM33.1458 13.9583V93.9583C-9.76194 93.9583 -44.5417 59.1787 -44.5417 16.2708H35.4583H115.458C115.458 -29.187 78.6035 -66.0417 33.1458 -66.0417V13.9583ZM35.4583 16.2708L-44.5417 16.253L-44.5432 23.1905L35.4568 23.2083L115.457 23.2261L115.458 16.2886L35.4583 16.2708Z" fill="#C32138" mask="url(#path-1-inside-1_556_9011)"/>
</svg>
