<svg width="38" height="40" viewBox="0 0 38 40" fill="none" xmlns="http://www.w3.org/2000/svg">
<path d="M37.406 31.0424V27.6849C37.406 27.5212 37.3879 27.3636 37.3818 27.2061C37.3879 27.1636 37.406 27.1273 37.406 27.0849C37.406 27.0121 37.3879 26.9455 37.3636 26.8849C37.0606 22.4424 34.2606 18.6788 30.3454 17V15.3697C30.3454 14.3273 29.497 13.4788 28.4545 13.4788C27.4121 13.4788 26.5636 14.3273 26.5636 15.3697V16.103C26.303 16.0849 26.0424 16.0606 25.7757 16.0606H24.4788C23.503 16.0606 22.7091 16.8546 22.7091 17.8303V30.8485H17.7879V29.6121C17.7879 28.6485 17 27.8606 16.0363 27.8606H15.4424V26.5152C15.4424 25.0182 14.2242 23.8 12.7273 23.8C12.0182 23.8 11.3697 24.0788 10.8848 24.5333L5.41816 20.4061C5.63635 20.0182 5.76968 19.5758 5.76968 19.103C5.76968 18.8546 5.72725 18.6182 5.66059 18.394C7.28483 17.3697 10.0182 15.6364 14.6303 12.7152H21.2303C22 12.7152 22.6242 12.0909 22.6242 11.3212V2.27274C22.6242 1.50304 22 0.878802 21.2303 0.878802H19.0545C18.6363 0.878802 18.2485 1.06062 17.9818 1.38789L16.2424 3.50304C16.1454 3.6182 16 3.69092 15.8485 3.69092H11.0424C10.8909 3.69092 10.7454 3.62426 10.6485 3.50304L8.90907 1.38183C8.64241 1.06062 8.25453 0.872742 7.83635 0.872742H5.66665C4.89695 0.872742 4.27271 1.49698 4.27271 2.26668V11.3091C4.27271 12.0788 4.89695 12.703 5.66665 12.703H12.406C10.1818 14.1091 7.17574 16.0182 5.10301 17.3273C4.60604 16.7636 3.89089 16.394 3.07877 16.394C1.59392 16.394 0.3818 17.6061 0.3818 19.0909C0.3818 20.5758 1.58786 21.7879 3.07877 21.7879C3.65453 21.7879 4.18786 21.6 4.63029 21.2909L10.2182 25.5091C10.097 25.8182 10.0242 26.1576 10.0242 26.5091V27.8546H9.42422C8.46059 27.8546 7.67271 28.6424 7.67271 29.6061V30.8424H1.26665C0.569679 30.8424 0.00604248 31.4061 0.00604248 32.103V34.8C0.00604248 35.497 0.569679 36.0606 1.26665 36.0606H4.89089C4.96968 36.7636 5.26059 37.4061 5.70301 37.9152H1.19392C0.866648 37.9152 0.593921 38.1818 0.593921 38.5152C0.593921 38.8424 0.860588 39.1152 1.19392 39.1152H36.806C37.1333 39.1152 37.406 38.8485 37.406 38.5152C37.406 38.1879 37.1394 37.9152 36.806 37.9152H32.4485C32.8909 37.4061 33.1818 36.7636 33.2545 36.0606H36.7273C37.4242 36.0606 37.9879 35.497 37.9879 34.8V32.103C37.9939 31.6606 37.7576 31.2667 37.406 31.0424ZM5.47271 11.3152V2.27274C5.47271 2.16365 5.56362 2.0788 5.66665 2.0788H7.84241C7.90301 2.0788 7.95756 2.10304 7.99392 2.15153L9.73332 4.26668C10.0606 4.66062 10.5394 4.89092 11.0485 4.89092H15.8545C16.3636 4.89092 16.8424 4.66668 17.1697 4.26668L18.9091 2.15153C18.9454 2.10304 19 2.0788 19.0606 2.0788H21.2363C21.3454 2.0788 21.4303 2.16971 21.4303 2.27274V11.3152C21.4303 11.4243 21.3394 11.5091 21.2363 11.5091H5.66665C5.55756 11.5152 5.47271 11.4243 5.47271 11.3152ZM3.07271 20.594C2.24847 20.594 1.57574 19.9212 1.57574 19.097C1.57574 18.2667 2.24847 17.594 3.07271 17.594C3.90301 17.594 4.57574 18.2667 4.57574 19.097C4.57574 19.9212 3.90301 20.594 3.07271 20.594ZM11.2121 26.5152C11.2121 25.6788 11.897 24.994 12.7333 24.994C13.5697 24.994 14.2545 25.6727 14.2545 26.5152V27.8606H11.2121V26.5152ZM8.86665 29.6121C8.86665 29.303 9.11513 29.0546 9.42422 29.0546H10.606H10.6121H14.8485H14.8545H16.0363C16.3454 29.0546 16.5939 29.303 16.5939 29.6121V30.8485H8.86665V29.6121ZM36.2121 27.6849V29.0182H35.9454C35.5757 29.0182 35.2788 28.7212 35.2788 28.3515C35.2788 27.9818 35.5757 27.6849 35.9454 27.6849H36.2121ZM27.7576 15.3636C27.7576 14.9818 28.0727 14.6667 28.4545 14.6667C28.8363 14.6667 29.1515 14.9818 29.1515 15.3636V16.5576C28.697 16.4182 28.2303 16.3152 27.7576 16.2364V15.3636ZM23.903 17.8303C23.903 17.5091 24.1636 17.2546 24.4788 17.2546H25.7757C31.1212 17.2546 35.5394 21.303 36.1333 26.4909H35.9394C34.9091 26.4909 34.0788 27.3273 34.0788 28.3515C34.0788 29.3818 34.9151 30.2121 35.9394 30.2121H36.206V30.8485H23.903V17.8303ZM6.06059 35.6909C6.06059 34.4606 7.06059 33.4606 8.29089 33.4606C9.52119 33.4606 10.5151 34.4606 10.5151 35.6909C10.5151 36.9212 9.51513 37.9212 8.29089 37.9212C7.06059 37.9212 6.06059 36.9212 6.06059 35.6909ZM11.6909 36.0667H26.4545C26.5333 36.7697 26.8242 37.4121 27.2666 37.9212H10.8848C11.3212 37.4121 11.6182 36.7697 11.6909 36.0667ZM27.6303 35.6909C27.6303 34.4606 28.6303 33.4606 29.8606 33.4606C31.0909 33.4606 32.0848 34.4606 32.0848 35.6909C32.0848 36.9212 31.0848 37.9212 29.8606 37.9212C28.6303 37.9212 27.6303 36.9212 27.6303 35.6909ZM36.8 34.8061C36.8 34.8424 36.7697 34.8727 36.7333 34.8727H33.1757C32.806 33.3818 31.4606 32.2667 29.8606 32.2667C28.2545 32.2667 26.9091 33.3758 26.5394 34.8727H11.6121C11.2424 33.3818 9.89695 32.2667 8.29695 32.2667C6.69089 32.2667 5.34544 33.3758 4.97574 34.8727H1.26665C1.23028 34.8727 1.19998 34.8424 1.19998 34.8061V32.1091C1.19998 32.0727 1.23028 32.0424 1.26665 32.0424H36.7333C36.7697 32.0424 36.8 32.0727 36.8 32.1091V34.8061Z" fill="#C32138"/>
<path d="M34.6672 25.9515C34.8854 25.6485 34.946 25.2606 34.8308 24.9031C33.6066 21.1334 30.2611 18.497 26.3217 18.1818C25.9945 18.1576 25.6672 18.2667 25.4248 18.4909C25.1884 18.7091 25.049 19.0243 25.049 19.3455V25.2606C25.049 25.9031 25.5763 26.4303 26.2187 26.4303H33.7217C34.0975 26.4303 34.449 26.2546 34.6672 25.9515ZM26.243 25.2364L26.2248 19.3758C29.6854 19.6485 32.6187 21.9637 33.7217 25.2364H26.243Z" fill="#C32138"/>
<path d="M26.946 27.097H25.649C25.3217 27.097 25.049 27.3637 25.049 27.697C25.049 28.0303 25.3157 28.297 25.649 28.297H26.946C27.2733 28.297 27.546 28.0303 27.546 27.697C27.546 27.3637 27.2733 27.097 26.946 27.097Z" fill="#C32138"/>
</svg>
