<?xml version="1.0" encoding="utf-8"?>
<!-- Generator: Adobe Illustrator 27.6.1, SVG Export Plug-In . SVG Version: 6.00 Build 0)  -->
<svg version="1.1" id="Layer_1" xmlns="http://www.w3.org/2000/svg" xmlns:xlink="http://www.w3.org/1999/xlink" x="0px" y="0px"
	 viewBox="0 0 64 64" style="enable-background:new 0 0 64 64;" xml:space="preserve">
<style type="text/css">
	.st0{fill:#C23545;}
	.st1{fill:#3F3244;}
	.st2{fill:#51AB39;}
	.st3{fill:#B8B7BC;}
	.st4{fill:#F9A622;}
</style>
<g>
	<g>
		<path class="st1" d="M3.0050049,32.7399902v6.3200073c0,0.5100098,0.4299927,0.9099731,0.9400024,0.8699951l0.1499634-0.0100098
			L6.875,39.7099609c0.710022-0.0599976,1.25,0.6300049,1.0299683,1.3099976l-0.75,3.6900024
			c-0.1199951,0.3800049-0.4599609,0.6500244-0.8599854,0.6900024l-1.6799927,0.1500244
			c-0.6900024,0.0599976-1.039978,0.8699951-0.6099854,1.4099731l1.4899902,1.8800049
			c0.1699829,0.210022,0.4199829,0.3400269,0.6900024,0.3400269h0.7399902c1.039978,0,1.8800049,0.8399658,1.8800049,1.8800049
			l6.8800049-0.3400269C14.7750244,48.75,14.2650146,46.5599976,14.2650146,44.25c0-8.5599976,6.9400024-15.5,15.5-15.5
			s15.5,6.9400024,15.5,15.5c0,1.7699585-0.2900391,3.4599609-0.8400269,5.039978l16.5700073-0.8200073V14.5499878h-8.4000244
			c0,0-36.4499512,3.3200073-48.3899536,11.4199829v4.6799927c0,0.25-0.0900269,0.4900513-0.2600098,0.6700439l-0.6799927,0.75
			C3.0949707,32.25,3.0050049,32.4899902,3.0050049,32.7399902z M6.1450195,26.7699585
			C6.0750122,26.3499756,6.375,25.9599609,6.7949829,25.9199829L18.5250244,24.25
			c-2.1700439,1.8999634-8.1000366,5.1499634-10.5600586,6.25c-0.5599976,0.2399902-1.1999512-0.1000366-1.2999878-0.7000122
			L6.1450195,26.7699585z"/>
		<path class="st0" d="M6.1450195,26.7699585l0.5199585,3.0300293C6.7650146,30.3999634,7.4049683,30.7399902,7.9649658,30.5
			c2.460022-1.1000366,8.3900146-4.3500366,10.5600586-6.25L6.7949829,25.9199829
			C6.375,25.9599609,6.0750122,26.3499756,6.1450195,26.7699585z"/>
		<polygon class="st0" points="55.7050171,14.5499878 60.9949951,14.5499878 60.9949951,9.3999634 		"/>
		<path class="st1" d="M52.5949707,14.5499878h3.1100464l5.289978-5.1500244V6.25
			C60.9949951,6.25,55.9949951,10.25,52.5949707,14.5499878z"/>
		<path class="st1" d="M55.7050171,14.5499878l5.289978-5.1500244
			C59.3150024,10.9699707,57.5150146,12.7099609,55.7050171,14.5499878z"/>
		<path class="st0" d="M4.0949707,39.9199829l0.5200195,5.6282349l1.6799927-0.1500244
			c0.4000244-0.039978,0.7399902-0.3099976,0.8599854-0.6900024l0.75-3.6881714
			C8.125,40.3400269,7.585022,39.6500244,6.875,39.710022L4.0949707,39.9199829z"/>
		<path class="st0" d="M55.9949951,46.2801514c0.0234375,0,0.0478516-0.0024414,0.0722656-0.0068359
			c0.203125-0.0400391,0.3359375-0.2368164,0.2958984-0.4404297l-0.6738281-3.4428711L55.5203857,23.355957l3.5576172-4.5556641
			c0.1269531-0.1635742,0.0976562-0.3989258-0.0654297-0.5263672c-0.1621094-0.1274414-0.3984375-0.0986328-0.5263672,0.0644531
			l-3.6376953,4.6591797c-0.0517578,0.0673828-0.0800781,0.1499023-0.0791016,0.2348633l0.1767578,19.2337646l0.6806641,3.5112305
			C55.6619873,46.1561279,55.8192139,46.2801514,55.9949951,46.2801514z"/>
		<path class="st0" d="M51.2503128,25.25l-8.7074165,0.862978c0,0,4.7499695,2.5412769,8.7074165,2.5412769V25.25z"/>
		<path class="st0" d="M22.9754639,23.0292969c0.0351562,0,0.0712891-0.0048828,0.1074219-0.015625
			c5.0439453-1.5063477,23.3115234-4.0473633,23.4960938-4.0727539c0.2050781-0.0283203,0.3476562-0.2177734,0.3193359-0.4228516
			c-0.0273438-0.2045898-0.2138672-0.3500977-0.4228516-0.3203125c-0.7529297,0.1044922-18.5087891,2.574707-23.6074219,4.097168
			c-0.1982422,0.059082-0.3115234,0.2680664-0.2519531,0.4667969C22.664917,22.9243164,22.8133545,23.0292969,22.9754639,23.0292969
			z"/>
	</g>
	<g>
		<path class="st1" d="M17.791523,43.7930756c0,0.799633-0.9242458,1.8692818-1.3188667,2.2950211
			c-0.0311203,0.0311852-0.0519104,0.0415154-0.0830307,0.0415154c0.0830307,0.5919304,0.2077045,1.1630745,0.3738308,1.7238808
			l0.4154091-0.1350021c0.0726376-0.0207901,0.1453362,0.0103951,0.1661263,0.0830917
			c0.0207901,0.0623055-0.0103951,0.14534-0.0830936,0.1661263l-0.4361362,0.135006
			c0.124609,0.4465332,0.2907982,0.8930626,0.4673195,1.3188667c0.0623055,0.1557312,0.135006,0.3115273,0.2077045,0.4569244
			c0.2284317-0.4985046,0.685358-1.6511803,0.4776516-2.284626c-0.0207253-0.0727005,0.0207901-0.145401,0.0934906-0.1661911
			c0.0623055-0.0207253,0.135004,0.0207901,0.1557312,0.0830956c0.2492828,0.7580566-0.2907372,2.0665283-0.539957,2.5961533
			c-0.0103951,0.0207901-0.0311852,0.0415154-0.0519104,0.0519104c0.2492199,0.5296249,0.539957,1.0384636,0.8722725,1.5265732
			l0.3634987-0.2492218c0.0519104-0.0415802,0.1349411-0.0311852,0.1765213,0.0311203
			c0.0415154,0.0519104,0.0311203,0.135006-0.0311852,0.1765213l-0.3634357,0.2596169
			c0.3530407,0.5296249,0.7476616,1.0281296,1.1838608,1.4953842c0.0623055-0.5295601,0.1453381-1.7965164-0.2492828-2.3261414
			c-0.0415154-0.0623055-0.0207272-0.145401,0.0311832-0.1869164s0.135006-0.0311203,0.1869164,0.0311852
			c0.4673195,0.6438408,0.3531036,2.0561333,0.280405,2.6376686c0,0.0311203-0.0207901,0.0519104-0.0311852,0.0727005
			c0.4050159,0.4257393,0.8411522,0.8203621,1.2980766,1.1838608l0.2596169-0.3634987
			c0.0519104-0.0519104,0.135004-0.0727005,0.1869144-0.0311203c0.0623055,0.0519104,0.0727005,0.1246109,0.0311852,0.1869125
			l-0.27001,0.3634377c0.5088348,0.394619,1.0384617,0.7477264,1.5992069,1.0592499
			c-0.1142159-0.5088348-0.4153461-1.744606-0.9657612-2.1496201c-0.0623055-0.0415154-0.0727005-0.1246109-0.0311203-0.1765213
			c0.0519104-0.0623055,0.124609-0.0727005,0.1869144-0.0311852c0.6438408,0.4673195,0.9761562,1.8484917,1.079977,2.419632
			c0,0.0311203,0,0.0519104-0.0207253,0.0727005c0.5192299,0.2803421,1.0591869,0.5296249,1.619997,0.7269363l0.135006-0.4154091
			c0.0207253-0.0727005,0.0934258-0.1142159,0.1661243-0.0830956c0.0727005,0.0207901,0.1038208,0.0934906,0.0830956,0.1557961
			l-0.1453991,0.4361343c0.5919304,0.2077065,1.204586,0.3842278,1.8380966,0.4984398
			c-0.27001-0.4672546-0.9346409-1.5265045-1.5680866-1.734211c-0.0727005-0.0207253-0.1038857-0.0934258-0.0830956-0.1661263
			c0.0207901-0.0623055,0.0934887-0.1038857,0.1661892-0.0830956c0.7580566,0.2492218,1.4953232,1.4642029,1.7757282,1.9731026
			c0.0103951,0.0207253,0.0103951,0.0415154,0.0103951,0.0623055c0.5711422,0.1142159,1.1526775,0.1765213,1.755003,0.1973114
			v-0.4361992c0-0.0727005,0.0623055-0.135006,0.135006-0.135006c0.0726986,0,0.124609,0.0623055,0.124609,0.135006v0.4465294
			C29.53652,57.75,29.6507359,57.75,29.7650146,57.75c0.5296249,0,1.0488567-0.0311203,1.5576916-0.0934258
			c-0.3842258-0.3531036-1.3603821-1.1734657-2.0250111-1.1734657c-0.0727005,0-0.135006-0.0519104-0.135006-0.1246109
			s0.0623055-0.1246109,0.135006-0.1246109c0.7996349,0,1.8692169,0.9138527,2.2950211,1.3188019
			c0.0207272,0.0103951,0.0311222,0.0415802,0.0311222,0.0623055c0.5919285-0.0726357,1.1734676-0.1869164,1.7342129-0.3530388
			l-0.135006-0.425808c-0.0207253-0.0726357,0.0207901-0.1453362,0.0830956-0.1661263
			c0.0727005-0.0207863,0.145401,0.0207901,0.1661873,0.0830956l0.14534,0.4361382
			c0.6127167-0.1765213,1.2046509-0.3946228,1.7757912-0.6646309c-0.4881096-0.2284317-1.6615143-0.6957512-2.2950249-0.4880486
			c-0.0727005,0.0207291-0.1453362-0.0207901-0.1661263-0.0830917c-0.0207863-0.0727005,0.0207901-0.145401,0.0830956-0.1661263
			c0.7580566-0.2492867,2.0665283,0.3011284,2.5961533,0.5399551c0.0311203,0.0103951,0.0519104,0.0415802,0.0519104,0.0727005
			c0.5296249-0.2596169,1.0488586-0.5503502,1.5472984-0.8826675l-0.2700081-0.3634987
			c-0.0415192-0.0623055-0.0311241-0.1453362,0.0311813-0.1869164c0.0519104-0.0415154,0.135006-0.0311203,0.1765213,0.0311852
			l0.280407,0.3738289c0.5295601-0.3634338,1.0280647-0.7684517,1.4953842-1.1942558
			c-0.5192299-0.0623055-1.8069763-0.1453362-2.3469315,0.2492867c-0.0207901,0.0103302-0.0519104,0.0207253-0.0830956,0.0207253
			s-0.0727005-0.0207253-0.1038208-0.0519104c-0.0415802-0.0519104-0.0207901-0.135006,0.0311203-0.1765213
			c0.6438408-0.4777145,2.0665283-0.3634987,2.6376724-0.2907982c0.0311813,0,0.0623665,0.0207863,0.0830917,0.0415764
			c0.4258041-0.4154091,0.8204269-0.8515434,1.1838608-1.3084717l-0.3738289-0.259613
			c-0.0519104-0.0415802-0.0623055-0.1246109-0.0207901-0.1869164c0.0415154-0.0519753,0.1246109-0.0727005,0.1765213-0.0311852
			l0.3738937,0.280407c0.394558-0.5088387,0.7476616-1.0488586,1.0591888-1.6096039
			c-0.5088387,0.1038208-1.7550049,0.4153481-2.1599541,0.9657631c-0.0207901,0.0415154-0.0623703,0.0519104-0.1038857,0.0519104
			c-0.0207901,0-0.0519104,0-0.0727005-0.0207901c-0.0623055-0.0415154-0.0727005-0.1246109-0.0311203-0.1869164
			c0.4776535-0.6438408,1.8484306-0.9657631,2.4195709-1.0799789c0.0311852-0.0103951,0.0623055,0,0.0830956,0.0207291
			c0.2804031-0.5192337,0.5296249-1.0487938,0.7269325-1.6096039l-0.4257393-0.145401
			c-0.0727005-0.0207253-0.1142807-0.0934258-0.0830956-0.1661263c0.0207253-0.0623055,0.0830956-0.1038208,0.1557312-0.0830917
			l0.4465942,0.1453972c0.2180367-0.5919304,0.3842278-1.2149811,0.5088348-1.8484268
			c-0.4569244,0.259613-1.5472946,0.944973-1.7550011,1.5784187c-0.0207901,0.0519104-0.0623055,0.0934868-0.1246109,0.0934868
			c-0.0103951,0-0.0207901,0-0.0415802-0.0103951c-0.0623016-0.0207863-0.1038208-0.0934868-0.0830307-0.1661873
			c0.2492218-0.7580566,1.4642029-1.4953232,1.9730415-1.7757301c0.0311813-0.0103951,0.0519104-0.0207901,0.0830917-0.0103951
			c0.1038208-0.5711403,0.1661263-1.1630707,0.1869164-1.7550011h-0.4465294c-0.0727005,0-0.135006-0.0623055-0.135006-0.135006
			s0.0623055-0.1246109,0.135006-0.1246109h0.4569244c0.0103951-0.1142159,0.0103951-0.2284279,0.0103951-0.3427086
			c0-0.5296249-0.0311852-1.0488548-0.0934906-1.5680885c-0.3530388,0.3842888-1.1734657,1.3604469-1.1734657,2.035408
			c0,0.0727005-0.0623055,0.135006-0.135006,0.135006s-0.1246109-0.0623055-0.1246109-0.135006
			c0-0.799633,0.9242477-1.8692169,1.3188667-2.2950211c0.0207901-0.0207253,0.0415154-0.0311203,0.0727005-0.0311203
			c-0.0727005-0.5919304-0.1973076-1.1734695-0.3531036-1.7446098l-0.4361382,0.145401
			c-0.0103912,0.0103302-0.0207863,0.0103302-0.0415154,0.0103302c-0.0519714,0-0.1038818-0.0415154-0.1246719-0.0934258
			c-0.0207253-0.0623055,0.0207901-0.145401,0.0830956-0.1661873l0.4465294-0.1349449h0.0103951
			c-0.1869164-0.6127205-0.4153481-1.2150459-0.6853561-1.7965813c-0.2181015,0.4881096-0.695816,1.6719093-0.4881096,2.3054199
			c0.0207901,0.0727005-0.0207253,0.1453362-0.0830307,0.1661263H41.416523c-0.0519104,0-0.1038208-0.0311241-0.1246109-0.0830956
			c-0.2492218-0.7580566,0.3011322-2.0665283,0.550415-2.5961533c0.0103302-0.0311203,0.0311203-0.0519104,0.0726357-0.0623055
			c-0.2699471-0.5295639-0.5607452-1.0487938-0.8826675-1.5369034l-0.3738289,0.2700081
			c-0.0207901,0.0207901-0.0519104,0.0311241-0.0727005,0.0311241c-0.0415154,0-0.0830956-0.0207291-0.1142159-0.0623055
			c-0.0415802-0.0519104-0.0207901-0.135006,0.0311203-0.1765213l0.3738327-0.2700119h0.0103951
			c-0.3634377-0.5296249-0.7684517-1.0384598-1.2045898-1.5057793c-0.0623055,0.5192299-0.1453972,1.8069763,0.2492218,2.3469315
			c0.0415154,0.0623055,0.0311852,0.145401-0.0311203,0.1869164c-0.0207901,0.0103951-0.0415802,0.0207901-0.0727005,0.0207901
			c-0.0415802,0-0.0830956-0.0207901-0.1038857-0.0519104c-0.4673195-0.6438408-0.3530388-2.0561333-0.2907333-2.6376724
			c0-0.0311813,0.0207253-0.0623665,0.0415154-0.0830917c-0.4154091-0.4258041-0.8515472-0.8204269-1.3084717-1.1838608
			l-0.2596169,0.3738289c-0.0311203,0.0311852-0.0623055,0.0519104-0.1038208,0.0519104
			c-0.0311852,0-0.0519104-0.0103302-0.0830956-0.0207253c-0.0519104-0.0519104-0.0623055-0.1246109-0.0207863-0.1869164
			l0.2700081-0.3738937c-0.5088348-0.394558-1.0384598-0.7476616-1.5992088-1.0487938
			c0.1142159,0.5192299,0.4154129,1.7550049,0.955368,2.149559c0.0623055,0.0415802,0.0727005,0.1246758,0.0311852,0.1765862
			c-0.0207901,0.0415154-0.0623055,0.0519104-0.1038857,0.0519104c-0.0207253,0-0.0519104,0-0.0727005-0.0207901
			c-0.654171-0.4673195-0.9761543-1.8484306-1.0903702-2.4195709c0-0.0311852,0-0.0623055,0.0207901-0.0830956
			c-0.5192337-0.2804031-1.0592537-0.529623-1.6096039-0.7373295l-0.145401,0.4361362
			c-0.0207901,0.0623703-0.0727005,0.0934906-0.1246109,0.0934906c-0.0103912,0-0.0207863,0-0.0415154-0.0103951
			c-0.0623665-0.0207253-0.1038818-0.0934258-0.0830917-0.1557312l0.1453972-0.4465942
			c-0.6023254-0.2180367-1.2150459-0.3842258-1.8484917-0.5088367c0.2596169,0.4569263,0.944973,1.5472965,1.5784836,1.755003
			c0.0727005,0.0207901,0.1142159,0.0934906,0.0830307,0.1661911c-0.0103302,0.0519104-0.0623055,0.0830307-0.1246109,0.0830307
			h-0.0311203c-0.7684517-0.2492218-1.5057831-1.4642048-1.7861862-1.9730396
			c-0.010334-0.0311852-0.0207253-0.0519104-0.010334-0.0830956c-0.5712032-0.1038208-1.1631336-0.1661263-1.7550011-0.1869144
			v0.4465294c0,0.0727005-0.0623055,0.135006-0.135004,0.135006c-0.0623055,0-0.1246109-0.0623055-0.1246109-0.135006v-0.4569244
			C29.9830513,30.75,29.8792305,30.75,29.7650146,30.75c-0.5296249,0-1.0592518,0.0311852-1.5680866,0.1038837
			c0.3946209,0.3634357,1.3707771,1.1630726,2.025013,1.1630726c0.0726986,0,0.135004,0.0623055,0.135004,0.135006
			s-0.0623055,0.1246109-0.135004,0.1246109c-0.7892418,0-1.8692818-0.9138527-2.295023-1.3188686
			c-0.0207901-0.0207882-0.0415154-0.0415154-0.0415154-0.0726986c-0.5919323,0.0726986-1.1630726,0.1973095-1.7238827,0.3634987
			l0.135006,0.4257412c0.0311832,0.0727005-0.0103951,0.1453991-0.0830956,0.1661892h-0.0415154
			c-0.0519104,0-0.1038208-0.0311832-0.1142159-0.0830936l-0.1453991-0.4465313
			c-0.6230526,0.1765213-1.214983,0.4049511-1.7861233,0.6749611c0.4776516,0.2181015,1.6615124,0.695816,2.2949581,0.4881096
			c0.0727005-0.0207901,0.145401,0.0207253,0.1661892,0.0830307c0.0207272,0.0727005-0.0103931,0.145401-0.0830936,0.1661911
			c-0.135006,0.0415154-0.2908001,0.0623055-0.4465313,0.0623055c-0.7581196,0-1.7134876-0.405014-2.149622-0.6023254
			c-0.0311852-0.0103951-0.0519104-0.0415154-0.0519104-0.0727005c-0.5400219,0.2596169-1.0488567,0.550415-1.5369663,0.8827286
			l0.2596149,0.3634377c0.0415783,0.0623055,0.0311832,0.145401-0.0207272,0.1869164
			c-0.0311832,0.0103951-0.0519104,0.0207901-0.0830936,0.0207901c-0.0415154,0-0.0727005-0.0207901-0.1038208-0.0519104
			l-0.27001-0.3738327c-0.5296268,0.3634377-1.0177364,0.7580566-1.484993,1.1941948
			c0.529562,0.0623055,1.7861233,0.1453972,2.3365383-0.2492218c0.0519104-0.0415154,0.135006-0.0311852,0.1765213,0.0311203
			c0.0415154,0.0519753,0.0311203,0.135006-0.0311852,0.1765862c-0.3738308,0.2803383-1.0176716,0.3530388-1.5992069,0.3530388
			c-0.415411,0-0.7996368-0.0311203-1.0384617-0.0623055c-0.0207901,0-0.0415154-0.0207253-0.0623055-0.0311203
			c-0.4257412,0.3946228-0.8203621,0.8307571-1.1838608,1.2980766l0.3531036,0.2596169
			c0.0519104,0.0415154,0.0727005,0.1246109,0.0311222,0.1869164c-0.0311222,0.0311203-0.0727005,0.0519104-0.1038208,0.0519104
			c-0.0311852,0-0.0623055-0.0103951-0.0830956-0.0207901l-0.3530407-0.2699471
			c-0.3946209,0.4984398-0.7477264,1.0280647-1.0384617,1.5784187c0.5192299-0.1038208,1.7342129-0.4153481,2.1184387-0.944973
			c0.0415154-0.0623055,0.124609-0.0727005,0.1765194-0.0311852c0.0623055,0.0415802,0.0727005,0.1246109,0.0311852,0.1765862
			c-0.4673195,0.654171-1.8484917,0.9761543-2.4196339,1.0903702c-0.0103931,0-0.0103931,0-0.0207882,0
			c-0.0103321,0-0.0311222,0-0.0415154-0.0103951c-0.2181015,0.3842278-0.4050159,0.7684517-0.5711422,1.1734657
			c-0.0623055,0.145401-0.1142159,0.2907372-0.1661892,0.4361382l0.4258041,0.135006
			c0.0623055,0.0207901,0.1038208,0.0934868,0.0830956,0.1661263c-0.0207901,0.0519714-0.0727005,0.0934868-0.1246738,0.0934868
			c-0.0103321,0-0.0311203-0.0103951-0.0415154-0.0103951l-0.4361362-0.1453972
			c-0.2180996,0.6023254-0.3842258,1.2150459-0.5192318,1.8484917c0.4465313-0.2492218,1.5472984-0.9346428,1.755003-1.5784836
			c0.0207272-0.0727005,0.0934258-0.1038208,0.1661263-0.0830307c0.0727005,0.0207253,0.1038837,0.0934258,0.0830956,0.1661263
			c-0.2492218,0.7580566-1.4538727,1.495388-1.9627075,1.7757912c-0.0207272,0.010334-0.0415173,0.010334-0.0623055,0.010334
			c-0.0103951,0-0.0103951,0-0.0207901-0.010334c-0.1038208,0.5711403-0.1661263,1.1630745-0.1869164,1.7653351h0.4362011
			c0.0726986,0,0.135004,0.0623055,0.135004,0.135006s-0.0623055,0.1246109-0.135004,0.1246109h-0.4465313
			c-0.0103951,0.1142769-0.0103951,0.2180977-0.0103951,0.3323135c0,0.54002,0.0311203,1.0488548,0.0934258,1.5680885
			c0.3635006-0.3842278,1.1734676-1.3603821,1.1734676-2.025013c0-0.0727005,0.0519104-0.135006,0.124609-0.135006
			C17.7292175,43.6580696,17.791523,43.7203751,17.791523,43.7930756z M17.9992275,44.2603951
			c0-6.4903831,5.2754021-11.7761192,11.7657871-11.7761192c6.4799881,0,11.7657242,5.2857361,11.7657242,11.7761192
			c0,6.4799881-5.2857361,11.7657852-11.7657242,11.7657852C23.2746296,56.0261803,17.9992275,50.7403831,17.9992275,44.2603951z
			 M18.2588425,44.2603951c0,6.344986,5.1611233,11.5061722,11.5061722,11.5061722
			c6.344986,0,11.5061073-5.1611862,11.5061073-11.5061722c0-6.355381-5.1611214-11.5165024-11.5061073-11.5165024
			C23.4199657,32.7438927,18.2588425,37.905014,18.2588425,44.2603951z M19.8788414,44.2603951
			c0-5.4519234,4.4342499-9.8861732,9.8861732-9.8861732c5.4415283,0,9.8757782,4.4342499,9.8757782,9.8861732
			c0,5.4415283-4.4342499,9.8757782-9.8757782,9.8757782C24.3130913,54.1361732,19.8788414,49.7019234,19.8788414,44.2603951z"/>
		<g>
			<path class="st0" d="M23.1188354,48.559639c0.0727005,0.1142159,0.1453991,0.2284317,0.2284946,0.3427124
				c0.0311203,0.0311203,0.0726357,0.0519104,0.1038208,0.0519104c0.0311203,0,0.0623055-0.0103951,0.0830936-0.0207901
				c0.0519104-0.0415154,0.0727005-0.1246109,0.0311222-0.1869164c-0.0830956-0.1142159-0.1661263-0.2284317-0.2388268-0.3531036
				L23.1188354,48.559639z M22.2880783,49.660408c0,0.0103951,0.0103951,0.0311203,0.0207901,0.0415154
				c0.0207253,0.0207901,0.0415154,0.0519753,0.0623055,0.0727005c0.5711403,0.7788467,1.2772865,1.4642639,2.0665283,2.0146179
				c0.1557312,0.1246109,0.3219204,0.2284927,0.4984417,0.3323135c0.405014,0.2492218,0.8307552,0.4673195,1.2669544,0.6542358
				c0.2284317,0.0934906,0.4569263,0.1765213,0.685358,0.2492218h0.0103951c0.0103931,0,0.0103931,0,0.0207882,0
				c0.0311222,0.0103951,0.0519104,0.0207901,0.0830326,0.0207901c0.1557941,0,0.3011932-0.0934906,0.3634987-0.2492218
				c0,0,0.0623055-0.145401,0.1557312-0.394619c-0.2596149-0.0623055-0.5088367-0.145401-0.7476616-0.2388916
				c-0.1765842-0.0623055-0.3531055-0.1350021-0.5296249-0.2180367c-0.1661892-0.0726967-0.3323154-0.1557922-0.4984417-0.249218
				c-0.2388897-0.135006-0.4777145-0.280407-0.7062092-0.4258041c-0.1142159-0.0830956-0.2284317-0.1557312-0.3322525-0.2388268
				c-0.5815353-0.4361382-1.090435-0.9346428-1.5473614-1.495388c-0.1557312-0.1973114-0.3115253-0.4154091-0.4569244-0.6334457
				l-0.3219223,0.2699471C22.2257729,49.2865753,22.1945896,49.504612,22.2880783,49.660408z M27.24156,51.6335106
				c-0.0207882,0.0726357,0.0207272,0.1453362,0.0830326,0.1661263c0.124609,0.0415154,0.2492199,0.0727005,0.3842258,0.1038208
				c0.0415783-0.0726395,0.0623035-0.1557312,0.1038837-0.2388268c-0.135006-0.0311203-0.27001-0.0727005-0.4050159-0.1142159
				C27.3349876,51.5296249,27.2622871,51.5712051,27.24156,51.6335106z M31.7069321,51.6646309
				c0.0415154,0.0830956,0.0623055,0.1661873,0.1038208,0.2388268c0.135006-0.0311203,0.2596169-0.0623055,0.3842278-0.1038208
				c0.0726967-0.0207901,0.1038818-0.0934906,0.0830917-0.1661263c-0.0207863-0.0623055-0.0934868-0.1038857-0.1661263-0.0830956
				C31.9769421,51.5919304,31.841938,51.6335106,31.7069321,51.6646309z M31.9976692,52.4019623
				c0.0934906,0.249218,0.1557961,0.394619,0.1557961,0.394619c0.0726967,0.1869164,0.2907333,0.2907372,0.4880447,0.2284317
				c0.2077065-0.0727005,0.4154091-0.145401,0.6231155-0.2284317c0.6022606-0.2388878,1.1734657-0.550415,1.7030907-0.9242439
				c0.1142159-0.0727005,0.2076416-0.145401,0.3115273-0.2181015c0.2388268-0.1765213,0.4673195-0.3634377,0.6853561-0.5711403
				c0.1142159-0.0934906,0.2181015-0.1973114,0.3219223-0.3011322c0.1038818-0.1038857,0.2077026-0.2077065,0.3011932-0.3219185
				c0.1038208-0.1038857,0.1973114-0.2181015,0.2803421-0.3219223c0.1246109-0.135006,0.2388878-0.2804031,0.3427086-0.4361992
				c0.1246109-0.1661263,0.0934906-0.404953-0.0623055-0.5296249c0,0-0.1246109-0.1038208-0.3323135-0.2699471
				c-0.135006,0.2180367-0.2907372,0.4361343-0.4569283,0.6334457c-0.6126556,0.7788467-1.3707771,1.4330826-2.2119255,1.9523125
				c-0.280407,0.1661263-0.5711441,0.3219223-0.8722725,0.4569244c-0.1765862,0.0830345-0.3531075,0.1557312-0.5296249,0.2180367
				C32.5065041,52.2669563,32.2572861,52.3396568,31.9976692,52.4019623z M35.9957848,48.9334717
				c0.0207253,0.0103951,0.0415154,0.0207901,0.0727005,0.0207901c0.0415154,0,0.0830307-0.0207901,0.1038208-0.0519104
				c0.0830917-0.1142807,0.1557922-0.2284966,0.2388229-0.3427124c-0.0726967-0.0519104-0.1350021-0.114212-0.2077026-0.1661873
				c-0.0726357,0.1246719-0.1557312,0.2388878-0.2388268,0.3531036
				C35.9230843,48.8088608,35.9334793,48.8919563,35.9957848,48.9334717z M36.3696136,38.984993
				c0.1557961,0.1973114,0.3115273,0.405014,0.4569283,0.6231155c0.2804031,0.4257393,0.5192299,0.8826675,0.7269325,1.3603821
				c0.0415192,0.0934258,0.0727005,0.1869125,0.1142159,0.2804031c0.1557961,0.4257431,0.2907372,0.8618774,0.3738327,1.3084106
				c0.0207901,0.0934868,0.0415802,0.1973076,0.0623055,0.3011932c0.0207901,0.1142159,0.0311852,0.2284317,0.0519104,0.3530426
				c0.0207901,0.2180977,0.0415802,0.4361992,0.0519714,0.6542358c0.010334,0.1350021,0.010334,0.259613,0.010334,0.394619
				c0,0.1246109,0,0.2596169-0.010334,0.3842239c0.2699471-0.0103951,0.4257431-0.0207253,0.4257431-0.0207253
				c0.1973114-0.0207901,0.3634377-0.1869774,0.3634377-0.394619v-0.0311852c0-0.1973114-0.010334-0.405014-0.0311241-0.6023254
				c-0.0103912-0.3115273-0.0519104-0.6230507-0.1038208-0.9241829c-0.0311813-0.1661873-0.0623665-0.3427086-0.1038818-0.5088997
				c-0.0623055-0.259613-0.135006-0.5192299-0.2181015-0.7684517c-0.0519104-0.1765213-0.1142159-0.3426476-0.1869125-0.5088348
				c-0.0727005-0.2180367-0.1661263-0.4257431-0.2699471-0.6230507c-0.0623703-0.135006-0.135006-0.2700119-0.2077065-0.4050179
				c-0.0830956-0.1661263-0.1765823-0.3323135-0.2907982-0.4880447c-0.0934258-0.1661911-0.2077065-0.3323174-0.3219223-0.4881096
				c-0.0103951-0.0103951-0.0103951-0.0207901-0.0207901-0.0311203c-0.1246109-0.1661911-0.3530388-0.2077065-0.5192299-0.0934906
				L36.3696136,38.984993z M35.6841965,39.4211922c0.1038818,0.1038208,0.1869774,0.2180367,0.2700081,0.3323135
				c0.0207901,0.0415154,0.0623055,0.0519104,0.1038857,0.0519104c0.0207253,0,0.0519104,0,0.0727005-0.0207863
				c0.0623016-0.0415192,0.0726357-0.1246109,0.0311203-0.1765213c-0.0830956-0.1142159-0.1661263-0.2284966-0.2596169-0.3323174
				L35.6841965,39.4211922z M32.0495796,36.8250389c-0.0207253,0.0623055,0.0207901,0.135006,0.0934906,0.1661263
				c0.1350021,0.0415764,0.259613,0.0934868,0.394619,0.1453972c0.0207901-0.0934868,0.0415154-0.1765175,0.0623055-0.259613
				c-0.1246109-0.0519104-0.2596169-0.0934906-0.3842278-0.135006
				C32.1430702,36.7211533,32.0807648,36.7523384,32.0495796,36.8250389z M26.6807518,35.9319115
				c0,0,0.0415783,0.1557961,0.1038837,0.4154129c0.2388248-0.0934258,0.4880466-0.1765213,0.7372665-0.2388268v-0.0103951
				c0.0415783-0.0103951,0.0830956-0.0207901,0.135006-0.0311852c0.2180996-0.0623055,0.4361362-0.1038208,0.664629-0.1453362
				c0.1246109-0.0207901,0.2492218-0.0415802,0.3738327-0.0623055c0.1661892-0.0103951,0.3323135-0.0311852,0.4984398-0.0415802
				c0.1869793-0.0103912,0.3738956-0.0207253,0.5712051-0.0207253s0.3842258,0.010334,0.5711403,0.0207253
				c0.1661263,0.0103951,0.3323154,0.0311852,0.4984417,0.0415802c0.1246109,0.0207253,0.2492218,0.0415154,0.3738308,0.0623055
				c0.2284946,0.0415154,0.4465942,0.0830307,0.6646309,0.1453362c0.0415802,0.0103951,0.0830956,0.0207901,0.1246109,0.0311852
				c0.2596169,0.0727005,0.5088348,0.1557961,0.7477264,0.2492218c0.0623055-0.2596169,0.1038208-0.4154129,0.1038208-0.4154129
				c0.0519104-0.1972466-0.0623055-0.4049492-0.2596169-0.4672546c-0.1661263-0.0519753-0.3427086-0.1038857-0.5192299-0.1557961
				c-0.0830956-0.0207901-0.1557312-0.0415154-0.2388268-0.0519104c-0.2077045-0.0519104-0.4258041-0.0934906-0.6334457-0.1246109
				c-0.1661892-0.0207901-0.3323154-0.0519104-0.4881096-0.0623055c-0.0830956-0.0103951-0.1661263-0.0207863-0.2388268-0.0207863
				c-0.2388897-0.0207901-0.4673195-0.0311241-0.7061462-0.0311241c-0.0103951,0-0.0103951,0-0.0207901,0
				c-0.2284298,0-0.4465294,0.010334-0.675024,0.0311241c-0.2492218,0.0103912-0.5088367,0.0415154-0.7476635,0.0830917
				c-0.1973095,0.0311203-0.3842239,0.0727005-0.5815353,0.1142159c-0.280405,0.0623055-0.550415,0.135006-0.81003,0.2181015
				C26.7326622,35.5269623,26.6288414,35.7346649,26.6807518,35.9319115z M37.4080772,44.6965294
				c0.0830956-0.0103302,0.1765213-0.0103302,0.259613-0.0207253c0.0103951-0.135006,0.0103951-0.259613,0.0103951-0.394619
				c0-0.0727005-0.0519104-0.135006-0.1246109-0.135006c-0.0726967,0-0.1350021,0.0623055-0.1350021,0.135006
				C37.4184723,44.4161911,37.4184723,44.5615883,37.4080772,44.6965294z M21.8415489,44.2811852
				c0,0.135006,0,0.259613,0.0207253,0.394619c0.0830956,0.0103951,0.1661892,0.0103951,0.2596149,0.0207253
				c-0.0103302-0.1349411-0.0207253-0.2803383-0.0207253-0.4153442c0-0.0727005-0.0519104-0.135006-0.1246109-0.135006
				S21.8415489,44.2084846,21.8415489,44.2811852z M20.5330772,44.1980896v0.0623055
				c0.0103931,0.1973114,0.1661243,0.3427086,0.3634357,0.3634987c0,0,0.1557941,0.0103302,0.4154091,0.0207253
				c-0.0103951-0.1246071-0.0103951-0.259613-0.0103951-0.3842239c0-0.135006,0-0.2596169,0.0103951-0.394619
				c0.0103951-0.2077065,0.0207901-0.4153481,0.0519104-0.6230545c0.0207901-0.1765213,0.0519104-0.3427086,0.0830956-0.5088348
				c0.0519104-0.3323135,0.135004-0.6646309,0.2388248-0.9865494c0.0415802-0.1246109,0.0830956-0.2492218,0.1246109-0.3738327
				c0.0311852-0.0934906,0.0727005-0.1869164,0.1142159-0.2804031c0.0623684-0.1661263,0.135004-0.3323174,0.2180996-0.4984436
				c0.0830936-0.1869164,0.1869144-0.3738937,0.2908001-0.550415c0.0726986-0.1246109,0.1453362-0.2492218,0.2284298-0.3634338
				c0.0103951-0.0311852,0.0207901-0.0519104,0.0415173-0.0727005c0.1453991-0.2181015,0.2907982-0.4258041,0.4569244-0.6231155
				l-0.3530407-0.2284317c-0.1661892-0.1038208-0.3635006-0.0830956-0.4984417,0.0727005
				c-0.0103951-0.0103951-0.0207901,0.0103951-0.0311852,0.0207901c-0.0623035,0.0830307-0.1142139,0.1661263-0.1661243,0.249218
				c-0.1765842,0.2388268-0.3323154,0.4984436-0.4673214,0.7580566c-0.135004,0.2596169-0.27001,0.5296288-0.3842258,0.8100319
				c-0.0726986,0.1557312-0.135004,0.3115273-0.1869144,0.4776535c-0.0415802,0.1246071-0.0830956,0.249218-0.1246109,0.3738289
				c-0.0415783,0.145401-0.0830956,0.2907982-0.1246738,0.4361992c-0.0311203,0.1453362-0.0726357,0.2803421-0.1038208,0.4257431
				c-0.0727005,0.394619-0.135004,0.799633-0.1557941,1.2149811C20.5434704,43.7930756,20.5330772,44.0007782,20.5330772,44.1980896
				z M23.3888454,39.7846298c0.0311203,0.0207863,0.0519104,0.0207863,0.0830956,0.0207863
				c0.0415154,0,0.0726986-0.0103951,0.1038208-0.0519104c0.0830936-0.1142769,0.1661243-0.2284927,0.27001-0.3323135
				l-0.2180996-0.135006c-0.0934277,0.1038208-0.1765213,0.2077065-0.2596169,0.3219223
				C23.32654,39.6600189,23.336935,39.7431107,23.3888454,39.7846298z M26.9299717,36.8769493
				c0.0207901,0.0830956,0.0415783,0.1661263,0.0623055,0.259613c0.124609-0.0519104,0.2596149-0.1038208,0.3946209-0.1453972
				c0.0623035-0.0311203,0.1038837-0.1038208,0.0830936-0.1661263c-0.0207901-0.0727005-0.0934887-0.1038857-0.1661263-0.0830956
				C27.1792564,36.7834587,27.0545826,36.8250389,26.9299717,36.8769493z"/>
			<path class="st0" d="M20.5330772,44.1980896v0.0623055c0,2.0146179,0.6542358,3.8838348,1.7550011,5.400013
				c0.0207901,0.0415154,0.0519104,0.0830956,0.0830956,0.1142159c0.5711403,0.7788467,1.2772865,1.4642639,2.0665283,2.0146179
				c0.1557312,0.1246109,0.3219204,0.2284927,0.4984417,0.3323135c0.405014,0.2492218,0.8307552,0.4673195,1.2669544,0.6542358
				c0.2284317,0.0934906,0.4569263,0.1765213,0.685358,0.2492218h0.0103951c0.0103931,0,0.0103931,0,0.0207882,0
				c0.0311222,0.0103951,0.0519104,0.0207901,0.0830326,0.0207901c0.8723354,0.2907372,1.8069115,0.4465294,2.7623425,0.4465294
				c1.0072765,0,1.9730396-0.1661873,2.8764954-0.4673195c0.2077065-0.0727005,0.4154091-0.145401,0.6231155-0.2284317
				c0.6022606-0.2388878,1.1734657-0.550415,1.7030907-0.9242439c0.1142159-0.0727005,0.2076416-0.145401,0.3115273-0.2181015
				c0.2388268-0.1765213,0.4673195-0.3634377,0.6853561-0.5711403c0.1142159-0.0934906,0.2181015-0.1973114,0.3219223-0.3011322
				c0.1038818-0.1038857,0.2077026-0.2077065,0.3011932-0.3219185c0.1038208-0.1038857,0.1973114-0.2181015,0.2803421-0.3219223
				c0.1246109-0.135006,0.2388878-0.2804031,0.3427086-0.4361992c1.1215553-1.5265083,1.7861252-3.4061203,1.7861252-5.4415283
				v-0.0623055c0-0.1973114-0.010334-0.405014-0.0311241-0.6023254c-0.0103912-0.3115273-0.0519104-0.6230507-0.1038208-0.9241829
				c-0.0311813-0.1661873-0.0623665-0.3427086-0.1038818-0.5088997c-0.0623055-0.259613-0.135006-0.5192299-0.2181015-0.7684517
				c-0.0519104-0.1765213-0.1142159-0.3426476-0.1869125-0.5088348c-0.0727005-0.2180367-0.1661263-0.4257431-0.2699471-0.6230507
				c-0.0623703-0.135006-0.135006-0.2700119-0.2077065-0.4050179c-0.0830956-0.1661263-0.1765823-0.3323135-0.2907982-0.4880447
				c-0.0934258-0.1661911-0.2077065-0.3323174-0.3219223-0.4881096c-0.0103951-0.0103951-0.0103951-0.0207901-0.0207901-0.0311203
				c-1.1422806-1.5784836-2.7622795-2.7831345-4.6522865-3.3853951c-0.1661263-0.0519753-0.3427086-0.1038857-0.5192299-0.1557961
				c-0.0830956-0.0207901-0.1557312-0.0415154-0.2388268-0.0519104c-0.2077045-0.0519104-0.4258041-0.0934906-0.6334457-0.1246109
				c-0.1661892-0.0207901-0.3323154-0.0519104-0.4881096-0.0623055c-0.0830956-0.0103951-0.1661263-0.0207863-0.2388268-0.0207863
				c-0.2388897-0.0207901-0.4673195-0.0311241-0.7061462-0.0311241c-0.0103951,0-0.0103951,0-0.0207901,0
				c-0.2284298,0-0.4465294,0.010334-0.675024,0.0311241c-0.2492218,0.0103912-0.5088367,0.0415154-0.7476635,0.0830917
				c-0.1973095,0.0311203-0.3842239,0.0727005-0.5815353,0.1142159c-0.280405,0.0623055-0.550415,0.135006-0.81003,0.2181015
				c-1.8796139,0.6022606-3.4892159,1.7965164-4.6211033,3.3646049c-0.0727005,0.0830956-0.135006,0.1765213-0.1973095,0.2700081
				c-0.1661892,0.2388268-0.3219204,0.4984436-0.4673214,0.7580566c-0.135004,0.2596169-0.27001,0.5296288-0.3842258,0.8100319
				c-0.0726986,0.1557312-0.135004,0.3115273-0.1869144,0.4776535c-0.0415802,0.1246071-0.0830956,0.249218-0.1246109,0.3738289
				c-0.0415783,0.145401-0.0830956,0.2907982-0.1246738,0.4361992c-0.0311203,0.1453362-0.0726357,0.2803421-0.1038208,0.4257431
				c-0.0727005,0.394619-0.135004,0.799633-0.1557941,1.2149811C20.5434704,43.7930756,20.5330772,44.0007782,20.5330772,44.1980896
				z M21.3119221,44.644619c-0.0103951-0.1246071-0.0103951-0.259613-0.0103951-0.3842239
				c0-0.135006,0-0.2596169,0.0103951-0.394619c0.0103951-0.2077065,0.0207901-0.4153481,0.0519104-0.6230545
				c0.0207901-0.1765213,0.0415154-0.3427086,0.0830956-0.5088348c0.0519104-0.3323135,0.135004-0.6646309,0.2388248-0.9865494
				c0.0415802-0.1246109,0.0830956-0.2492218,0.1246109-0.3738327c0.0311852-0.0934906,0.0727005-0.1869164,0.1142159-0.2804031
				c0.0623684-0.1661263,0.135004-0.3323174,0.2180996-0.4984436c0.0830936-0.1869164,0.1869144-0.3738937,0.2908001-0.550415
				c0.0726986-0.1246109,0.1453362-0.2492218,0.2284298-0.3634338c0.0103951-0.0311852,0.0207901-0.0519104,0.0415173-0.0727005
				c0.1453991-0.2181015,0.2907982-0.4258041,0.4569244-0.6231155c0.9346409-1.1837997,2.1912022-2.1080437,3.6242847-2.6376686
				c0.2388248-0.0934258,0.4880466-0.1765213,0.7372665-0.2388268c0.0415783-0.0207901,0.0830956-0.0311852,0.135006-0.0415802
				c0.2180996-0.0623055,0.4361362-0.1038208,0.664629-0.1453362c0.1246109-0.0207901,0.2492218-0.0415802,0.3738327-0.0623055
				c0.1661892-0.0103951,0.3323135-0.0311852,0.4984398-0.0415802c0.1869793-0.0103912,0.3738956-0.0207253,0.5712051-0.0207253
				s0.3842258,0.010334,0.5711403,0.0207253c0.1661263,0.0103951,0.3323154,0.0311852,0.4984417,0.0415802
				c0.1246109,0.0207253,0.2492218,0.0415154,0.3738308,0.0623055c0.2284946,0.0415154,0.4465942,0.0830307,0.6646309,0.1453362
				c0.0415802,0.0103951,0.0830956,0.0207901,0.1246109,0.0311852c0.2596169,0.0727005,0.5088348,0.1557961,0.7477264,0.2492218
				c1.4330788,0.5296249,2.679184,1.4538689,3.624218,2.6376686c0.1557961,0.1973114,0.3115273,0.405014,0.4569283,0.6231155
				c0.2804031,0.4257393,0.5192299,0.8826675,0.7269325,1.3603821c0.0415192,0.0934258,0.0727005,0.1869125,0.1142159,0.2804031
				c0.1557961,0.4257431,0.2907372,0.8618774,0.3738327,1.3084106c0.0207901,0.0934868,0.0415802,0.1973076,0.0623055,0.3011932
				c0.0207901,0.1142159,0.0311852,0.2284317,0.0519104,0.3530426c0.0207901,0.2180977,0.0415802,0.4361992,0.0519714,0.6542358
				c0.010334,0.1350021,0.010334,0.259613,0.010334,0.394619c0,0.1246109,0,0.2596169-0.010334,0.3842239
				c-0.0726967,1.5680885-0.5712013,3.0219612-1.3915634,4.2577324c-0.135006,0.2180367-0.2907372,0.4361343-0.4569283,0.6334457
				c-0.6126556,0.7788467-1.3707771,1.4330826-2.2119255,1.9523125c-0.280407,0.1661263-0.5711441,0.3219223-0.8722725,0.4569244
				c-0.1765862,0.0830345-0.3531075,0.1557312-0.5296249,0.2180367c-0.2388916,0.1038857-0.4881096,0.1765862-0.7477264,0.2388916
				c-0.7061462,0.2077026-1.4538078,0.3115234-2.2326546,0.3115234s-1.5369663-0.1038208-2.2431126-0.3115234
				c-0.2596149-0.0623055-0.5088367-0.145401-0.7476616-0.2388916c-0.1765842-0.0623055-0.3531055-0.1350021-0.5296249-0.2180367
				c-0.1661892-0.0726967-0.3323154-0.1557922-0.4984417-0.249218c-0.2388897-0.135006-0.4777145-0.280407-0.7062092-0.4258041
				c-0.1142159-0.0830956-0.2284317-0.1557312-0.3322525-0.2388268c-0.5815353-0.4361382-1.090435-0.9346428-1.5473614-1.495388
				c-0.1557312-0.1973114-0.3115253-0.4154091-0.4569244-0.6334457
				C21.8830643,47.6665802,21.3846226,46.2127075,21.3119221,44.644619z"/>
			<path class="st0" d="M19.6192245,44.2603951c0,5.5869293,4.5484676,10.1353951,10.1457901,10.1353951
				c5.5869293,0,10.1353951-4.5484657,10.1353951-10.1353951c0-5.5973244-4.5484657-10.1457901-10.1353951-10.1457901
				C24.1676922,34.1146049,19.6192245,38.6630707,19.6192245,44.2603951z M19.8788414,44.2603951
				c0-5.4519234,4.4342499-9.8861732,9.8861732-9.8861732c5.4415283,0,9.8757782,4.4342499,9.8757782,9.8861732
				c0,5.4415283-4.4342499,9.8757782-9.8757782,9.8757782C24.3130913,54.1361732,19.8788414,49.7019234,19.8788414,44.2603951z"/>
			<path class="st0" d="M21.301527,44.2603951c0,0.1246109,0,0.2596169,0.0103951,0.3842239
				c0.1557941,0.0103951,0.3323154,0.0207901,0.5503521,0.0311852c-0.0207253-0.135006-0.0207253-0.259613-0.0207253-0.394619
				c0-0.0727005,0.0623035-0.135006,0.135004-0.135006s0.1246109,0.0623055,0.1246109,0.135006
				c0,0.135006,0.0103951,0.2804031,0.0207253,0.4153442c0.9242458,0.0519753,2.1704121,0.1142807,3.0219593,0.1661911
				c0.3530407,0.0207901,0.6438408,0.2700081,0.7580566,0.6230507c0.1246109,0.3946228,0.0311832,0.7684517-0.2388268,0.9865532
				L23.32654,48.3934517c0.0727005,0.1246719,0.1557312,0.2388878,0.2388268,0.3531036
				c0.0415783,0.0623055,0.0207882,0.145401-0.0311222,0.1869164c-0.0207882,0.0103951-0.0519733,0.0207901-0.0830936,0.0207901
				c-0.0311852,0-0.0727005-0.0207901-0.1038208-0.0519104c-0.0830956-0.1142807-0.1557941-0.2284966-0.2284946-0.3427124
				l-0.4154091,0.3427124c0.1453991,0.2180367,0.3011932,0.4361343,0.4569244,0.6334457
				c0.4569263,0.5607452,0.965826,1.0592499,1.5473614,1.495388c0.1038208,0.0830956,0.2180367,0.1557312,0.3322525,0.2388268
				c0.2284946,0.1453972,0.4673195,0.2907982,0.7062092,0.4258041c0.1661263,0.0934258,0.3322525,0.1765213,0.4984417,0.249218
				c0.1765194,0.0830345,0.3530407,0.1557312,0.5296249,0.2180367c0.2388248,0.0934906,0.4880466,0.1765862,0.7476616,0.2388916
				c0.0519104-0.135006,0.1142159-0.3115273,0.1869164-0.4985046c-0.135006-0.0311203-0.2596169-0.0623055-0.3842258-0.1038208
				c-0.0623055-0.0207901-0.1038208-0.0934906-0.0830326-0.1661263c0.0207272-0.0623055,0.0934277-0.1038857,0.1661263-0.0830956
				c0.135006,0.0415154,0.27001,0.0830956,0.4050159,0.1142159c0.3323154-0.8619423,0.7892399-2.035408,1.1007671-2.83498
				c0.124609-0.3219223,0.4465294-0.5296249,0.8203602-0.5296249c0.0103951,0,0.0103951,0,0.0103951,0
				c0.415411,0,0.7373314,0.2077026,0.8619423,0.5296249c0.3115253,0.799572,0.7684498,1.9730377,1.1007652,2.83498
				c0.135006-0.0311203,0.27001-0.0727005,0.405014-0.1142159c0.0726395-0.0207901,0.14534,0.0207901,0.1661263,0.0830956
				c0.0207901,0.0726357-0.0103951,0.1453362-0.0830917,0.1661263c-0.1246109,0.0415154-0.2492218,0.0727005-0.3842278,0.1038208
				v0.0103951c0.0727005,0.1869125,0.135006,0.3531036,0.1869164,0.4881096
				c0.2596169-0.0623055,0.5088348-0.135006,0.7477264-0.2388916c0.1765175-0.0623055,0.3530388-0.1350021,0.5296249-0.2180367
				c0.3011284-0.1350021,0.5918655-0.2907982,0.8722725-0.4569244c0.8411484-0.5192299,1.5992699-1.1734657,2.2119255-1.9523125
				c0.1661911-0.1973114,0.3219223-0.4154091,0.4569283-0.6334457c-0.1142159-0.0934906-0.2492218-0.2181015-0.4050179-0.3427124
				c-0.0830307,0.1142159-0.1557312,0.2284317-0.2388229,0.3427124c-0.0207901,0.0311203-0.0623055,0.0519104-0.1038208,0.0519104
				c-0.0311852,0-0.0519753-0.0103951-0.0727005-0.0207901c-0.0623055-0.0415154-0.0727005-0.1246109-0.0311852-0.1869164
				c0.0830956-0.1142159,0.1661911-0.2284317,0.2388268-0.3531036c-0.7268715-0.5918694-1.6926346-1.3811073-2.3468704-1.9211273
				c-0.2700119-0.2181015-0.3634987-0.5919304-0.2492828-0.955368c0.1246719-0.3842278,0.4258041-0.6334457,0.7685127-0.6542358
				c0.8515472-0.0519104,2.1080437-0.1142159,3.0322914-0.1661911c0.0103951-0.1349411,0.0103951-0.2803383,0.0103951-0.4153442
				c0-0.0727005,0.0623055-0.135006,0.1350021-0.135006c0.0727005,0,0.1246109,0.0623055,0.1246109,0.135006
				c0,0.135006,0,0.259613-0.0103951,0.394619c0.2077065-0.0103951,0.3946228-0.0207901,0.54002-0.0311852
				c0.010334-0.1246071,0.010334-0.259613,0.010334-0.3842239c0-0.135006,0-0.2596169-0.010334-0.394619
				c-0.0103912-0.2180367-0.0311813-0.4361382-0.0519714-0.6542358c-0.0207253-0.1246109-0.0311203-0.2388268-0.0519104-0.3530426
				c-0.0207253-0.1038857-0.0415154-0.2077065-0.0623055-0.3011932c-0.0830956-0.4465332-0.2180367-0.8826675-0.3738327-1.3084106
				c-0.0415154-0.0934906-0.0726967-0.1869774-0.1142159-0.2804031c-0.2077026-0.4777145-0.4465294-0.9346428-0.7269325-1.3603821
				c-0.145401-0.2181015-0.3011322-0.4258041-0.4569283-0.6231155l-0.4673195,0.2907982
				c0.0934906,0.1038208,0.1765213,0.2181015,0.2596169,0.3323174c0.0415154,0.0519104,0.0311813,0.1350021-0.0311203,0.1765213
				c-0.0207901,0.0207863-0.0519753,0.0207863-0.0727005,0.0207863c-0.0415802,0-0.0830956-0.0103951-0.1038857-0.0519104
				c-0.0830307-0.1142769-0.1661263-0.2284927-0.2700081-0.3323135l-2.5441818,1.6303902
				c-0.2907982,0.1869164-0.6750259,0.1661263-0.9865494-0.0623016c-0.3323174-0.2388916-0.4673214-0.6023254-0.3842278-0.9346428
				c0.2077045-0.8203621,0.5296249-2.025013,0.7684517-2.9180756c-0.135006-0.0519104-0.2596169-0.1038208-0.394619-0.1453972
				c-0.0727005-0.0311203-0.1142159-0.1038208-0.0934906-0.1661263c0.0311852-0.0727005,0.0934906-0.1038857,0.1661873-0.0830956
				c0.1246109,0.0415154,0.2596169,0.0830956,0.3842278,0.135006c0.0519104-0.2077065,0.1038208-0.3842278,0.145401-0.5296249
				c-0.2388916-0.0934258-0.4881096-0.1765213-0.7477264-0.2492218c-0.0415154-0.0103951-0.0830307-0.0207901-0.1246109-0.0311852
				c-0.2180367-0.0623055-0.4361362-0.1038208-0.6646309-0.1453362c-0.124609-0.0207901-0.2492199-0.0415802-0.3738308-0.0623055
				c-0.1661263-0.0103951-0.3323154-0.0311852-0.4984417-0.0415802c-0.1869144-0.0103912-0.3738308-0.0207253-0.5711403-0.0207253
				s-0.3842258,0.010334-0.5712051,0.0207253c-0.1661263,0.0103951-0.3322506,0.0311852-0.4984398,0.0415802
				c-0.1246109,0.0207253-0.2492218,0.0415154-0.3738327,0.0623055c-0.2284927,0.0415154-0.4465294,0.0830307-0.664629,0.1453362
				c-0.0519104,0.0103951-0.0934277,0.0207901-0.135006,0.0415802c-0.2492199,0.0623055-0.4984417,0.145401-0.7372665,0.2388268
				c0.0415154,0.1453972,0.0934258,0.3219185,0.1453362,0.5296249c0.1246109-0.0519104,0.2492847-0.0934906,0.3738937-0.135006
				c0.0726376-0.0207901,0.1453362,0.0103951,0.1661263,0.0830956c0.0207901,0.0623055-0.0207901,0.135006-0.0830936,0.1661263
				c-0.135006,0.0415764-0.2700119,0.0934868-0.3946209,0.1453972c0.2388897,0.8930626,0.550415,2.0977135,0.7581196,2.9180756
				c0.0934258,0.3323174-0.0519104,0.6957512-0.3531055,0.9138527c-0.3323154,0.249218-0.7165394,0.2700081-1.0176716,0.0830917
				l-2.5338478-1.6303902c-0.1038857,0.1038208-0.1869164,0.2180367-0.27001,0.3323135
				c-0.0311222,0.0415154-0.0623055,0.0519104-0.1038208,0.0519104c-0.0311852,0-0.0519753,0-0.0830956-0.0207863
				c-0.0519104-0.0415192-0.0623055-0.1246109-0.0207901-0.1765213c0.0830956-0.1142159,0.1661892-0.2181015,0.2596169-0.3219223
				l-0.4673214-0.3011932c-0.1661263,0.1973114-0.3115253,0.405014-0.4569244,0.6231155
				c-0.0207272,0.0207901-0.0311222,0.0415154-0.0415173,0.0727005c-0.0830936,0.114212-0.1557312,0.2388229-0.2284298,0.3634338
				c-0.1038857,0.1765213-0.2077065,0.3634987-0.2908001,0.550415c-0.0830956,0.1661263-0.1557312,0.3323174-0.2180996,0.4984436
				c-0.0415154,0.0934868-0.0830307,0.1869125-0.1142159,0.2804031c-0.0415154,0.1246109-0.0830307,0.2492218-0.1246109,0.3738327
				c-0.1038208,0.3219185-0.1869144,0.6542358-0.2388248,0.9865494c-0.0311852,0.1661263-0.0623055,0.3323135-0.0830956,0.5088348
				c-0.0311203,0.2077065-0.0415154,0.4153481-0.0519104,0.6230545C21.301527,44.0007782,21.301527,44.1253891,21.301527,44.2603951
				z M27.5426922,44.2603951c0-1.2253761,0.9969463-2.2223244,2.2223225-2.2223244s2.2119274,0.9969482,2.2119274,2.2223244
				c0,1.2149811-0.9865513,2.2119293-2.2119274,2.2119293S27.5426922,45.4753761,27.5426922,44.2603951z"/>
			<path class="st0" d="M32.0495796,36.8250389c-0.0207253,0.0623055,0.0207901,0.135006,0.0934906,0.1661263
				c0.1350021,0.0415764,0.259613,0.0934868,0.394619,0.1453972c1.2149811,0.4673233,2.3261452,1.2565613,3.1465073,2.2846298
				c0.1038818,0.1038208,0.1869774,0.2180367,0.2700081,0.3323135c0.0207901,0.0415154,0.0623055,0.0519104,0.1038857,0.0519104
				c0.0207253,0,0.0519104,0,0.0727005-0.0207863c0.0623016-0.0415192,0.0726357-0.1246109,0.0311203-0.1765213
				c-0.0830956-0.1142159-0.1661263-0.2284966-0.2596169-0.3323174c-0.8722725-1.0799751-2.025013-1.9107971-3.3022995-2.3988419
				c-0.1246109-0.0519104-0.2596169-0.0934906-0.3842278-0.135006
				C32.1430702,36.7211533,32.0807648,36.7523384,32.0495796,36.8250389z"/>
			<path class="st0" d="M27.24156,51.6335106c-0.0207882,0.0726357,0.0207272,0.1453362,0.0830326,0.1661263
				c0.124609,0.0415154,0.2492199,0.0727005,0.3842258,0.1038208c0.664629,0.1869774,1.3603821,0.2804031,2.0561962,0.2804031
				c0.6957512,0,1.3811073-0.0934258,2.0457382-0.2700081v-0.0103951c0.135006-0.0311203,0.2596169-0.0623055,0.3842278-0.1038208
				c0.0726967-0.0207901,0.1038818-0.0934906,0.0830917-0.1661263c-0.0207863-0.0623055-0.0934868-0.1038857-0.1661263-0.0830956
				c-0.135004,0.0415154-0.2700081,0.0830956-0.405014,0.1142159c-1.2669563,0.3323135-2.6273384,0.3427086-3.8942299,0
				c-0.135006-0.0311203-0.27001-0.0727005-0.4050159-0.1142159C27.3349876,51.5296249,27.2622871,51.5712051,27.24156,51.6335106z"
				/>
			<path class="st0" d="M23.3888454,39.7846298c0.0311203,0.0207863,0.0519104,0.0207863,0.0830956,0.0207863
				c0.0415154,0,0.0726986-0.0103951,0.1038208-0.0519104c0.0830936-0.1142769,0.1661243-0.2284927,0.27001-0.3323135
				c0.8203621-1.0280685,1.9211273-1.8173065,3.1465054-2.2846298c0.124609-0.0519104,0.2596149-0.1038208,0.3946209-0.1453972
				c0.0623035-0.0311203,0.1038837-0.1038208,0.0830936-0.1661263c-0.0207901-0.0727005-0.0934887-0.1038857-0.1661263-0.0830956
				c-0.124609,0.0415154-0.2492828,0.0830956-0.3738937,0.135006c-1.2876816,0.4777145-2.4403591,1.3188667-3.3022995,2.4092369
				c-0.0934277,0.1038208-0.1765213,0.2077065-0.2596169,0.3219223C23.32654,39.6600189,23.336935,39.7431107,23.3888454,39.7846298
				z"/>
			<path class="st0" d="M21.8415489,44.2811852c0,0.135006,0,0.259613,0.0207253,0.394619
				c0.0623055,1.3915024,0.4985046,2.7207642,1.2565613,3.8838348c0.0727005,0.1142159,0.1453991,0.2284317,0.2284946,0.3427124
				c0.0311203,0.0311203,0.0726357,0.0519104,0.1038208,0.0519104c0.0311203,0,0.0623055-0.0103951,0.0830936-0.0207901
				c0.0519104-0.0415154,0.0727005-0.1246109,0.0311222-0.1869164c-0.0830956-0.1142159-0.1661263-0.2284317-0.2388268-0.3531036
				c-0.7269344-1.1110992-1.1319504-2.3780556-1.2046509-3.6969223c-0.0103302-0.1349411-0.0207253-0.2803383-0.0207253-0.4153442
				c0-0.0727005-0.0519104-0.135006-0.1246109-0.135006S21.8415489,44.2084846,21.8415489,44.2811852z"/>
			<path class="st0" d="M35.9957848,48.9334717c0.0207253,0.0103951,0.0415154,0.0207901,0.0727005,0.0207901
				c0.0415154,0,0.0830307-0.0207901,0.1038208-0.0519104c0.0830917-0.1142807,0.1557922-0.2284966,0.2388229-0.3427124
				c0.7581215-1.1630707,1.1838646-2.4923325,1.2565613-3.8838348c0.0103951-0.135006,0.0103951-0.259613,0.0103951-0.394619
				c0-0.0727005-0.0519104-0.135006-0.1246109-0.135006c-0.0726967,0-0.1350021,0.0623055-0.1350021,0.135006
				c0,0.135006,0,0.2804031-0.0103951,0.4153442c-0.0727005,1.3188667-0.4881096,2.5858231-1.2046509,3.6969223
				c-0.0726357,0.1246719-0.1557312,0.2388878-0.2388268,0.3531036
				C35.9230843,48.8088608,35.9334793,48.8919563,35.9957848,48.9334717z"/>
			<path class="st1" d="M28.321537,44.2603951c0,0.7892418,0.6438427,1.4330826,1.4434776,1.4330826
				c0.7892418,0,1.4330826-0.6438408,1.4330826-1.4330826c0-0.7996368-0.6438408-1.4434776-1.4330826-1.4434776
				C28.9653797,42.8169174,28.321537,43.4607582,28.321537,44.2603951z"/>
		</g>
	</g>
</g>
</svg>
