<?xml version="1.0" encoding="utf-8"?>
<!-- Generator: Adobe Illustrator 27.6.1, SVG Export Plug-In . SVG Version: 6.00 Build 0)  -->
<svg version="1.1" id="Layer_1" xmlns="http://www.w3.org/2000/svg" xmlns:xlink="http://www.w3.org/1999/xlink" x="0px" y="0px"
	 viewBox="0 0 64 64" style="enable-background:new 0 0 64 64;" xml:space="preserve">
<style type="text/css">
	.st0{fill:#C23545;}
	.st1{fill:#3F3244;}
	.st2{fill:#51AB39;}
	.st3{fill:#B8B7BC;}
	.st4{fill:#F9A622;}
</style>
<g>
	<path class="st1" d="M61,8.2799568c0,0-18,3-25,10l5.4699707,0.1699829l0.7000122,0.0200195L61,19.0699348v30.3900261
		l-9.2700195-0.3899536c0.6000366-1.8200073,0.8699951-3.7800293,0.7399902-5.8099976
		c-0.4399414-6.960022-5.6199951-12.75-12.2699585-14.1700439C40,29.039978,39.8099976,29,39.6099854,28.9699707
		c-0.6499634-0.1099854-1.3099976-0.1799927-1.9799805-0.2099609C28.7800293,28.4099731,21.5,35.4799805,21.5,44.25
		c0,1.2299805,0.1400146,2.4299927,0.4199829,3.5799561l-7.2799683-0.2999878L12,42.25l-4-3l-5-1v-6l2.8300171-2.8200073L6,29.25
		v-8.1100578c0-0.7299805,0.5499878-1.3400269,1.2700195-1.4199829l17.1199951-1.8500366
		C47.3900146,5.0799451,61,6.2799573,61,6.2799573V8.2799568z"/>
	<polygon class="st0" points="14.6400146,47.5299683 8,47.25 5,45.25 3,38.25 8,39.25 12,42.25 	"/>
	<g>
		<path class="st1" d="M37,32.7438278c-6.3449841,0-11.5061722,5.1611862-11.5061722,11.5165672
			c0,1.3707123,0.2388897,2.679184,0.685421,3.9045601C27.7784557,52.5888138,32.0257912,55.7665024,37,55.7665024
			c4.6315613,0,8.640007-2.7518845,10.4573135-6.7084198c0.6749649-1.4642677,1.0488586-3.0842628,1.0488586-4.7976875
			C48.5061722,37.905014,43.344986,32.7438278,37,32.7438278z M37,54.1361122c-4.0292358,0-7.5080566-2.429966-9.045023-5.8880615
			c-0.539957-1.2253761-0.8411503-2.5753632-0.8411503-3.9876556c0-5.4519234,4.4342499-9.8861732,9.8861732-9.8861732
			c5.4415283,0,9.8757782,4.4342499,9.8757782,9.8861732c0,1.7134247-0.4361343,3.3230247-1.2046509,4.724987
			C43.9888268,52.0488548,40.7281036,54.1361122,37,54.1361122z M37,32.7438278
			c-6.3449841,0-11.5061722,5.1611862-11.5061722,11.5165672c0,1.3707123,0.2388897,2.679184,0.685421,3.9045601
			C27.7784557,52.5888138,32.0257912,55.7665024,37,55.7665024c4.6315613,0,8.640007-2.7518845,10.4573135-6.7084198
			c0.6749649-1.4642677,1.0488586-3.0842628,1.0488586-4.7976875C48.5061722,37.905014,43.344986,32.7438278,37,32.7438278z
			 M37,54.1361122c-4.0292358,0-7.5080566-2.429966-9.045023-5.8880615
			c-0.539957-1.2253761-0.8411503-2.5753632-0.8411503-3.9876556c0-5.4519234,4.4342499-9.8861732,9.8861732-9.8861732
			c5.4415283,0,9.8757782,4.4342499,9.8757782,9.8861732c0,1.7134247-0.4361343,3.3230247-1.2046509,4.724987
			C43.9888268,52.0488548,40.7281036,54.1361122,37,54.1361122z M50.0326805,44.5926476h0.4569244
			C50.5,44.4784317,50.5,44.3642159,50.5,44.25c0-0.5296249-0.0311852-1.0488548-0.0934906-1.5680885
			c-0.3530388,0.3842278-1.1734009,1.3603821-1.1734009,2.035408c0,0.0726357-0.0623703,0.1349411-0.135006,0.1349411
			c-0.0727005,0-0.1246109-0.0623055-0.1246109-0.1349411c0-0.799633,0.9241829-1.8692818,1.3188019-2.2950211
			c0.0207901-0.0207901,0.0415802-0.0311852,0.0727005-0.0311852c-0.0727005-0.5918655-0.1973076-1.1734657-0.3530388-1.744606
			l-0.436203,0.1453972c-0.0103912,0.0103951-0.0207253,0.0103951-0.0415154,0.0103951
			c-0.0519104,0-0.1038818-0.0415154-0.1246071-0.0934906c-0.0207901-0.0623016,0.0207253-0.1453362,0.0830917-0.1661224
			l0.4465332-0.135006h0.0103302c-0.1869164-0.6127205-0.4153481-1.2149849-0.6853561-1.7965202
			c-0.2181015,0.4880486-0.6957512,1.6719093-0.4880486,2.3053551c0.0207291,0.0727005-0.0207863,0.145401-0.0830917,0.1661911
			h-0.0415802c-0.0519104,0-0.1038208-0.0311852-0.1246109-0.0830956c-0.2492218-0.7580566,0.3011932-2.0665283,0.550415-2.5961533
			c0.0103951-0.0311852,0.0311203-0.0519104,0.0727005-0.0623055c-0.2700119-0.5296249-0.5608101-1.0488586-0.8827324-1.5369682
			l-0.3738289,0.2700119c-0.0207901,0.0207901-0.0519104,0.0311852-0.0727005,0.0311852
			c-0.0415154,0-0.0830307-0.0207901-0.1142159-0.0623055c-0.0415154-0.0519104-0.0207901-0.135006,0.0311852-0.1765213
			l0.3738289-0.2700119h0.0103951c-0.3634987-0.5296249-0.7685127-1.0384598-1.2046509-1.5057793
			c-0.0623055,0.5192299-0.1453972,1.8069115,0.2492218,2.3469315c0.0415802,0.0623055,0.0311852,0.1453362-0.0311203,0.1869164
			c-0.0207901,0.0103951-0.0415802,0.0207901-0.0727005,0.0207901c-0.0415154,0-0.0830956-0.0207901-0.1038208-0.0519753
			c-0.4673195-0.6438408-0.3531036-2.0561333-0.2907982-2.6376686c0-0.0311852,0.0207901-0.0623055,0.0415154-0.0830956
			c-0.4153481-0.4257393-0.8514824-0.8203621-1.3084106-1.1838608l-0.259613,0.3738937
			c-0.0311852,0.0311203-0.0623055,0.0519104-0.1038857,0.0519104c-0.0311203,0-0.0519104-0.0103951-0.0830956-0.0207901
			c-0.0519104-0.0519104-0.0623055-0.1246109-0.0207253-0.1869164l0.2700119-0.3738289
			c-0.5088997-0.394619-1.0384636-0.7477264-1.5992737-1.0488548c0.1142159,0.5192299,0.4154129,1.7550011,0.9554329,2.1496201
			c0.0623055,0.0415154,0.0726357,0.1246109,0.0311203,0.1765213c-0.0207901,0.0415802-0.0623055,0.0519104-0.1038208,0.0519104
			c-0.0207901,0-0.0519753,0-0.0727005-0.0207253c-0.6542358-0.4673195-0.9761581-1.8484917-1.090374-2.419632
			c0-0.0311852,0-0.0623055,0.0207291-0.0830956c-0.5192337-0.2803421-1.0591888-0.5296268-1.6096039-0.7372684l-0.145401,0.4361362
			c-0.0207253,0.0623055-0.0727005,0.0934258-0.1246109,0.0934258c-0.0103912,0-0.0207253,0-0.0415154-0.0103302
			c-0.0623055-0.0207901-0.1038818-0.0934906-0.0830917-0.1557941l0.1453972-0.4465313
			c-0.6023254-0.2180996-1.2149811-0.3842258-1.8484917-0.5088367c0.2596169,0.4569263,0.9450378,1.5472965,1.5784836,1.755003
			c0.0727005,0.0207253,0.1142159,0.0934258,0.0830956,0.1661263c-0.0103951,0.0519104-0.0623055,0.0830956-0.1246109,0.0830956
			h-0.0311852c-0.7684517-0.2492218-1.5057831-1.4642677-1.7861252-1.9731026
			c-0.0103951-0.0311222-0.0207863-0.0519104-0.0103951-0.0830326c-0.5711403-0.1038837-1.1630707-0.1661892-1.7550011-0.1869793
			v0.4465942c0,0.0726376-0.0623055,0.134943-0.135006,0.134943c-0.0623055,0-0.1246109-0.0623055-0.1246109-0.134943v-0.4569244
			C37.2181015,30.75,37.1142159,30.75,37,30.75c-0.5296249,0-1.0592499,0.0311203-1.5680885,0.1038208
			c0.3946228,0.3634987,1.3707771,1.1630707,2.025013,1.1630707c0.0727005,0,0.135006,0.0623055,0.135006,0.135006
			s-0.0623055,0.1246109-0.135006,0.1246109c-0.789238,0-1.8692169-0.9138508-2.2950211-1.3188038
			c-0.0207253-0.0207882-0.0415154-0.0415783-0.0415154-0.0726986c-0.5919304,0.0726986-1.1630745,0.1973095-1.7238197,0.3634357
			l0.1349411,0.4258041c0.0311852,0.0726376-0.0103302,0.1453362-0.0830307,0.1661263h-0.0415802
			c-0.0519104,0-0.1038208-0.0311852-0.114212-0.0830956l-0.145401-0.4465294
			c-0.6230507,0.1765194-1.214983,0.405014-1.7861233,0.675024c0.4777145,0.2180367,1.6615124,0.6957512,2.295023,0.4880486
			c0.0726357-0.0207291,0.1453362,0.0207863,0.1661263,0.0830917c0.0207901,0.0727005-0.0103951,0.145401-0.0830956,0.1661263
			c-0.135006,0.0415802-0.2907372,0.0623055-0.4465294,0.0623055c-0.7580566,0-1.7134247-0.4049492-2.1496239-0.6022606
			c-0.0311222-0.0103951-0.0519104-0.0415802-0.0519104-0.0727005c-0.5400219,0.2596169-1.0488567,0.5503502-1.5369034,0.8826675
			l0.2596149,0.3634987c0.0415154,0.0623055,0.0311203,0.1453362-0.0207901,0.1869164
			c-0.0311203,0.0103951-0.0519104,0.0207253-0.0830936,0.0207253c-0.0415154,0-0.0727005-0.0207253-0.1038208-0.0519104
			l-0.27001-0.3738289c-0.5296268,0.3634338-1.0176716,0.7580566-1.484993,1.1942558
			c0.5296249,0.0623055,1.7861233,0.1453362,2.3365383-0.2492867c0.0519104-0.0415154,0.135006-0.0311203,0.1765213,0.0311852
			c0.0415783,0.0519104,0.0311832,0.135006-0.0311203,0.1765213c-0.3738956,0.2804031-1.0177364,0.3531036-1.5992718,0.3531036
			c-0.4153461,0-0.799572-0.0311852-1.0384617-0.0623055c-0.0207272,0-0.0415154-0.0207901-0.0623055-0.0311813
			c-0.4257412,0.394619-0.8203621,0.8307533-1.1837978,1.2980766l0.3530407,0.259613
			c0.0519104,0.0415802,0.0727005,0.1246109,0.0311852,0.1869164c-0.0311852,0.0311852-0.0727005,0.0519753-0.1038837,0.0519753
			c-0.0311222,0-0.0623055-0.0103951-0.0830326-0.0207901l-0.3531036-0.2700119
			c-0.3946209,0.4984436-0.7477264,1.0280685-1.0384617,1.5784836c0.5192299-0.1038857,1.7342129-0.4154091,2.1184387-0.9450378
			c0.0415783-0.0623055,0.124609-0.0726967,0.1765842-0.0311203c0.0623055,0.0415154,0.0726357,0.1246109,0.0311203,0.1765213
			c-0.4673195,0.6542358-1.8484287,0.9761581-2.4196339,1.090374c-0.0103302,0-0.0103302,0-0.0207253,0
			s-0.0311852,0-0.0415783-0.0103951c-0.2180367,0.3842239-0.404953,0.7685127-0.5711422,1.1734657
			c-0.0623055,0.145401-0.1142159,0.2907982-0.1661263,0.4361992l0.4257412,0.1349411
			c0.0623055,0.0207901,0.1038857,0.0934906,0.0830956,0.1661911c-0.0207901,0.0519104-0.0727005,0.0934258-0.1246109,0.0934258
			c-0.0103951,0-0.0311832-0.010334-0.0415783-0.010334l-0.4361362-0.1453972
			c-0.2180367,0.6023254-0.3842258,1.2149811-0.5192318,1.8484268c0.4465313-0.2492218,1.5472984-0.9345779,1.755003-1.5784187
			c0.0207901-0.0727005,0.0934906-0.1038818,0.1661892-0.0830956c0.0726376,0.0207901,0.1038208,0.0934906,0.0830326,0.1661263
			c-0.2492218,0.7581215-1.4538097,1.495388-1.9626446,1.775795c-0.0207901,0.0103951-0.0415802,0.0103951-0.0623684,0.0103951
			c-0.0103321,0-0.0103321,0-0.0207272-0.0103951c-0.1038837,0.5711403-0.1661892,1.1630707-0.1869144,1.7653961h0.4361362
			c0.0726986,0,0.135004,0.0623055,0.135004,0.135006s-0.0623055,0.1246109-0.135004,0.1246109h-0.4465313
			C23.5,44.0318985,23.5,44.1357841,23.5,44.25c0,0.5399551,0.0311852,1.0488548,0.0934887,1.5680885
			c0.3634377-0.3842278,1.1734047-1.3603821,1.1734047-2.025013c0-0.0727005,0.0519733-0.135006,0.1246738-0.135006
			c0.0726357,0,0.1349411,0.0623055,0.1349411,0.135006c0,0.799572-0.9241829,1.8692169-1.3188038,2.29496
			c-0.0311832,0.0311813-0.0519104,0.0415764-0.0830936,0.0415764c0.0830936,0.5919304,0.2077045,1.1630745,0.3738308,1.7238197
			l0.4154091-0.135006c0.0727005-0.0207253,0.145401,0.0103951,0.1661263,0.0830956
			c0.0207901,0.0623055-0.0103321,0.145401-0.0830307,0.1661263l-0.3738956,0.1142769l-0.0623035,0.0207291
			c0.124609,0.4465942,0.2907982,0.8931236,0.4673195,1.3188629c0.0623055,0.1557961,0.135006,0.3115273,0.2077045,0.4569283
			c0.1765213-0.3738327,0.4777164-1.1319504,0.5192318-1.7446098c0.0207882-0.2077026,0.0103951-0.3842239-0.0415154-0.54002
			c-0.0207901-0.0727005,0.0207253-0.1453972,0.0934258-0.1661263c0.0623055-0.0207901,0.135004,0.0207291,0.1557941,0.0830956
			c0.0623055,0.1869164,0.0727005,0.394558,0.0519104,0.6334457c-0.0519104,0.7165413-0.4050159,1.5576935-0.5919304,1.9627075
			c-0.0103951,0.0207253-0.0311203,0.0415154-0.0519104,0.0519104c0.2492199,0.5296249,0.54002,1.0384636,0.8722725,1.5265083
			l0.3634987-0.2492218c0.0519104-0.0415154,0.135006-0.0311203,0.1765213,0.0311852
			c0.0415154,0.0519104,0.0311832,0.1349411-0.0311203,0.1765213l-0.3635006,0.2596169
			c0.3531055,0.5296249,0.7477245,1.0280647,1.1838608,1.4953842c0.0623055-0.5296249,0.145401-1.7965813-0.2492199-2.3261414
			c-0.0415783-0.0623055-0.0207901-0.145401,0.0311203-0.1869164c0.0519753-0.0415802,0.135006-0.0311852,0.1869164,0.0311203
			c0.4673195,0.6438408,0.3531036,2.0561333,0.280405,2.6376686c0,0.0311852-0.0207901,0.0519753-0.0311222,0.0727005
			c0.404953,0.4258041,0.8411522,0.8204269,1.2980785,1.1838608l0.2596149-0.3634338
			c0.0519104-0.0519753,0.135004-0.0727005,0.1869144-0.0311852c0.0623055,0.0519104,0.0727005,0.1246109,0.0311222,0.1869164
			l-0.27001,0.3634987c0.5088978,0.394619,1.0384617,0.7476616,1.5992699,1.0591888
			c-0.1142139-0.5088387-0.4154091-1.7446098-0.9657612-2.1496239c-0.0623055-0.0415154-0.0727005-0.1246109-0.0311832-0.1765213
			c0.0519104-0.0623055,0.124609-0.0727005,0.1869144-0.0311203c0.6438408,0.4672585,0.9761562,1.8484268,1.08004,2.4195709
			c0,0.0311813,0,0.0519714-0.0207882,0.0727005c0.5192299,0.2804031,1.0592499,0.5296249,1.619997,0.7269325l0.135006-0.4154091
			c0.0207901-0.0726357,0.0934258-0.1142159,0.1661263-0.0830307c0.0727005,0.0207253,0.1038818,0.0934258,0.0830917,0.1557312
			l-0.1453972,0.4361992c0.5919304,0.2076416,1.2046509,0.3842278,1.8380966,0.4984398
			c-0.2700119-0.4673195-0.9346428-1.5265694-1.5680885-1.734211c-0.0727005-0.0207901-0.1038208-0.0934906-0.0830917-0.1661911
			c0.0207863-0.0623055,0.0934868-0.1038208,0.1661873-0.0830917c0.7580566,0.2492828,1.495388,1.4642639,1.7757301,1.9731026
			c0.0103951,0.0207863,0.0103951,0.0415154,0.0103951,0.0623016c0.5712013,0.1142159,1.1527405,0.1765213,1.7550011,0.1973114
			v-0.4361343c0-0.0727005,0.0623055-0.135006,0.135006-0.135006s0.1246109,0.0623055,0.1246109,0.135006v0.4465294
			C36.7715683,57.75,36.8857841,57.75,37,57.75c0.5296249,0,1.0488548-0.0311852,1.5576935-0.0934906
			c-0.3842278-0.3530388-1.3603821-1.1734657-2.025013-1.1734657c-0.0727005,0-0.135006-0.0519104-0.135006-0.1246109
			s0.0623055-0.1246109,0.135006-0.1246109c0.799633,0,1.8692169,0.9138527,2.2950211,1.3188667
			c0.0207901,0.0103951,0.0311203,0.0415154,0.0311203,0.0623055c0.5919304-0.0727005,1.1734695-0.1869164,1.7342796-0.3531036
			l-0.135006-0.4257431c-0.0207901-0.0726967,0.0207253-0.1453972,0.0830307-0.1661873
			c0.0727005-0.0207253,0.145401,0.0207901,0.1661873,0.0830956l0.145401,0.4361343
			c0.6126556-0.1765213,1.2045898-0.394619,1.7757301-0.664566c-0.4880486-0.2284966-1.6615143-0.695816-2.29496-0.4881096
			c-0.0727005,0.0207901-0.145401-0.0207901-0.1661911-0.0830956c-0.0207253-0.0726357,0.0207901-0.1453362,0.0830956-0.1661263
			c0.7580566-0.2492218,2.0665283,0.3011322,2.5961533,0.54002c0.0311203,0.0103951,0.0519104,0.0415154,0.0519104,0.0727005
			c0.5296249-0.2596169,1.0488586-0.550415,1.5472984-0.8827324l-0.2700081-0.3634338
			c-0.0415192-0.0623055-0.0311241-0.145401,0.0311813-0.1869164c0.0519104-0.0415802,0.135006-0.0311852,0.1765213,0.0311203
			l0.280407,0.3738327c0.5296249-0.3634377,1.0280647-0.7684517,1.4953842-1.1941948
			c-0.5192299-0.0623055-1.8069115-0.1453972-2.3469315,0.2492218c-0.0207901,0.0103951-0.0519104,0.0207901-0.0830956,0.0207901
			c-0.0311203,0-0.0727005-0.0207901-0.1038208-0.0519753c-0.0415154-0.0519104-0.0207901-0.1349411,0.0311203-0.1765213
			c0.6439056-0.4776497,2.0665932-0.3634338,2.6377335-0.2907333c0.0311203,0,0.0623055,0.0207253,0.0830956,0.0415154
			c0.4257393-0.4154129,0.8203621-0.8515472,1.1837959-1.3084717l-0.3738289-0.2596169
			c-0.0519104-0.0415154-0.0623055-0.1246109-0.0207901-0.1869164c0.0415802-0.0519104,0.1246109-0.0727005,0.1765862-0.0311203
			l0.3738289,0.2803421c0.394619-0.5088348,0.7476616-1.0488548,1.0592499-1.6096039
			c-0.5088997,0.1038208-1.7550011,0.4154129-2.1600151,0.9657631c-0.0207901,0.0415154-0.0623055,0.0519104-0.1038857,0.0519104
			c-0.0207253,0-0.0519104,0-0.0726357-0.0207253c-0.0623055-0.0415802-0.0727005-0.1246109-0.0311852-0.1869164
			c0.4777145-0.6439056,1.8484917-0.9658241,2.419632-1.08004c0.0311241-0.0103951,0.0623055,0,0.0830345,0.0207901
			c0.259613-0.4777184,0.4881096-0.955368,0.6646271-1.4642677c0.0311852-0.0415154,0.0415802-0.0934258,0.0623055-0.1453362
			l-0.4257393-0.145401c-0.0727005-0.0207901-0.1142159-0.0934868-0.0830956-0.1661873
			c0.0207901-0.0623055,0.0830956-0.1038208,0.1557961-0.0830307l0.4465294,0.1453362
			c0.2180367-0.5918694,0.3842278-1.2149849,0.5088348-1.8484306c-0.4569244,0.2596169-1.5472946,0.944973-1.7550011,1.5784836
			c-0.0207901,0.0519104-0.0623055,0.0934258-0.1246109,0.0934258c-0.0103951,0-0.0207901,0-0.0415154-0.0103951
			c-0.0623055-0.0207253-0.1038857-0.0934258-0.0830956-0.1661263c0.2492218-0.7580566,1.4642029-1.495388,1.9730415-1.7757912
			c0.0311813-0.0103951,0.0519714-0.0207291,0.0830917-0.0103951c0.1038857-0.5711403,0.1661911-1.1630745,0.1869164-1.7550049
			h-0.4465294c-0.0727005,0-0.135006-0.0623055-0.135006-0.1349411C49.8976746,44.644619,49.95998,44.5926476,50.0326805,44.5926476
			z M47.7273254,49.0684776C45.8892288,53.1703491,41.7665672,56.0261192,37,56.0261192
			c-5.1196079,0-9.4915543-3.2919044-11.1011562-7.8714943c-0.4257412-1.2150459-0.6646309-2.5338478-0.6646309-3.8942299
			c0-6.4903831,5.2754021-11.7761803,11.7657871-11.7761803c6.4799881,0,11.7657852,5.2857971,11.7657852,11.7761803
			C48.7657852,45.9738197,48.3918915,47.6042099,47.7273254,49.0684776z M37,32.7438278
			c-6.3449841,0-11.5061722,5.1611862-11.5061722,11.5165672c0,1.3707123,0.2388897,2.679184,0.685421,3.9045601
			C27.7784557,52.5888138,32.0257912,55.7665024,37,55.7665024c4.6315613,0,8.640007-2.7518845,10.4573135-6.7084198
			c0.6749649-1.4642677,1.0488586-3.0842628,1.0488586-4.7976875C48.5061722,37.905014,43.344986,32.7438278,37,32.7438278z
			 M37,54.1361122c-4.0292358,0-7.5080566-2.429966-9.045023-5.8880615
			c-0.539957-1.2253761-0.8411503-2.5753632-0.8411503-3.9876556c0-5.4519234,4.4342499-9.8861732,9.8861732-9.8861732
			c5.4415283,0,9.8757782,4.4342499,9.8757782,9.8861732c0,1.7134247-0.4361343,3.3230247-1.2046509,4.724987
			C43.9888268,52.0488548,40.7281036,54.1361122,37,54.1361122z"/>
		<g>
			<path class="st0" d="M34.5388527,36.7418785c-0.1246109,0.0415802-0.2492218,0.0830956-0.3738327,0.135006
				c0.0207253,0.0830956,0.0415154,0.1661911,0.0623055,0.2596169c0.1246109-0.0519104,0.2596169-0.1038208,0.394619-0.1453362
				c0.0623055-0.0311852,0.1038208-0.1038857,0.0830345-0.1661911
				C34.6842499,36.7522736,34.6115494,36.7211533,34.5388527,36.7418785z M30.8627205,39.2861252
				c-0.0934906,0.1038818-0.1765842,0.2077026-0.2596149,0.3219185c-0.0415802,0.0519104-0.0311852,0.135006,0.0207253,0.1765862
				c0.0311852,0.0207253,0.0519104,0.0207253,0.0830956,0.0207253c0.0415154,0,0.0726986-0.0103951,0.1038208-0.0519104
				c0.0830936-0.1142159,0.1661892-0.2284317,0.27001-0.3323174L30.8627205,39.2861252z M30.0422955,38.7564964
				c-0.1661263-0.1038208-0.3634357-0.0830307-0.4984417,0.0727005c-0.0103951-0.0103951-0.0207901,0.0103951-0.0311852,0.0207901
				c-0.0623035,0.0830956-0.1142139,0.1661263-0.1661243,0.2492218c-0.1661892,0.2388268-0.3219204,0.4984398-0.4673214,0.7580566
				c-0.135004,0.259613-0.27001,0.5296249-0.3842258,0.8100281c-0.0726986,0.1557961-0.135004,0.3115273-0.1869144,0.4777184
				c-0.0415154,0.1246071-0.0830956,0.249218-0.1246109,0.3738289c-0.0415783,0.145401-0.0830956,0.2907372-0.1246109,0.4361382
				c-0.0311832,0.1453972-0.0726986,0.2804031-0.1038837,0.4258041c-0.0727005,0.3945541-0.135004,0.799572-0.1557312,1.2149811
				c-0.0207901,0.1973114-0.0311832,0.405014-0.0311832,0.6023254v0.0623055
				c0.0103931,0.1973114,0.1661892,0.3426476,0.3634987,0.3634377c0,0,0.1557312,0.0103912,0.4153461,0.0207863
				c-0.0103951-0.1246071-0.0103951-0.259613-0.0103951-0.3842239c0-0.135006,0-0.2596169,0.0103951-0.394619
				c0.0103951-0.2077065,0.0207901-0.4154129,0.0519104-0.6231155c0.0207901-0.1765213,0.0519733-0.3426476,0.0830956-0.5088387
				c0.0519104-0.3323135,0.135004-0.6646309,0.2388248-0.9865494c0.0415802-0.1246109,0.0830956-0.2492218,0.1246738-0.3738327
				c0.0311222-0.0934258,0.0726376-0.1869125,0.1142159-0.2804031c0.0623055-0.1661263,0.135006-0.3322525,0.2180367-0.4984398
				c0.0830936-0.1869164,0.1869793-0.3738327,0.2908001-0.550354c0.0726986-0.1246719,0.1453991-0.2492828,0.2284298-0.3634987
				c0.0103951-0.0311203,0.0207901-0.0519104,0.0415802-0.0727005c0.1453991-0.2180367,0.2907352-0.4257393,0.4569244-0.6230507
				L30.0422955,38.7564964z M29.3361492,44.2811203c0-0.0727005-0.0519104-0.135006-0.1246109-0.135006
				s-0.135004,0.0623055-0.135004,0.135006c0,0.135006,0,0.2596169,0.0207882,0.3946228
				c0.0830326,0.0103912,0.1661263,0.0103912,0.2596149,0.0207863
				C29.3465443,44.5615273,29.3361492,44.4161263,29.3361492,44.2811203z M44.7884598,44.1461143
				c-0.0726967,0-0.1350021,0.0623055-0.1350021,0.135006c0,0.135006,0,0.280407-0.0103951,0.4154091
				c0.0830956-0.0103951,0.1765823-0.0103951,0.259613-0.0207863c0.0103951-0.135006,0.0103951-0.2596169,0.0103951-0.3946228
				C44.9130707,44.2084198,44.8611603,44.1461143,44.7884598,44.1461143z M39.824585,35.464592
				c-0.1661263-0.0519104-0.3426476-0.1038208-0.5192299-0.1557312c-0.0830307-0.0207901-0.1557312-0.0415802-0.2388268-0.0519714
				c-0.2077065-0.0519104-0.4257431-0.0934296-0.6334457-0.1246109c-0.1661911-0.0207291-0.3323174-0.0519104-0.4881096-0.0623055
				c-0.0830307-0.0103951-0.1661263-0.0207253-0.2388268-0.0207253C37.4673195,35.0284576,37.2388268,35.0180626,37,35.0180626
				c-0.0103951,0-0.0103951,0-0.0207901,0c-0.2284317,0-0.4465294,0.0103951-0.6749611,0.0311852
				c-0.2492218,0.0103302-0.5088348,0.0415154-0.7477264,0.0830307c-0.1973076,0.0311813-0.3842239,0.0727005-0.5815353,0.1142159
				c-0.2803421,0.0623665-0.5503502,0.1350021-0.809967,0.2180977c-0.1973114,0.0623055-0.3011932,0.2700119-0.2492218,0.4673195
				c0,0,0.0415154,0.1557961,0.1038208,0.4154129c0.2388268-0.0934906,0.4880486-0.1765862,0.7373314-0.2388916v-0.0103951
				c0.0415154-0.0103302,0.0830307-0.0207253,0.1349411-0.0311203c0.2181015-0.0623055,0.4361992-0.1038818,0.6646309-0.145401
				c0.1246109-0.0207863,0.2492218-0.0415154,0.3738327-0.0623016c0.1661873-0.0103951,0.3323135-0.0311241,0.4985046-0.0415192
				C36.6157761,35.8073044,36.8026886,35.7969093,37,35.7969093s0.3842239,0.0103951,0.5711403,0.0207863
				c0.1661911,0.0103951,0.3323174,0.0311241,0.4985046,0.0415192c0.1246109,0.0207863,0.2492218,0.0415154,0.3738327,0.0623016
				c0.2284317,0.0415192,0.4465294,0.0830956,0.6646309,0.145401c0.0415154,0.0103951,0.0830307,0.0207901,0.1246109,0.0311203
				c0.259613,0.0727005,0.5088348,0.1557961,0.7476616,0.2492867c0.0623055-0.2596169,0.1038208-0.4154129,0.1038208-0.4154129
				C40.1361732,35.7346039,40.0218964,35.5268974,39.824585,35.464592z M39.4507523,36.7418785
				c-0.0726967-0.0207253-0.1350021,0.0103951-0.1661224,0.0830956c-0.0207901,0.0623055,0.0207253,0.135006,0.0934258,0.1661911
				c0.1350021,0.0415154,0.259613,0.0934258,0.394619,0.1453362c0.0207901-0.0934258,0.0415802-0.1765213,0.0623055-0.2596169
				C39.7103691,36.8249741,39.5753632,36.7834587,39.4507523,36.7418785z M43.3968964,39.6080437
				c-0.0830307-0.1142159-0.1661263-0.2284317-0.2596169-0.3323135l-0.2180367,0.1453972
				c0.1038208,0.1038857,0.1869164,0.2181015,0.2700119,0.3323174c0.0207253,0.0415154,0.0623055,0.0519104,0.1038208,0.0519104
				c0.0207901,0,0.0519104,0,0.0727005-0.0207253C43.4280777,39.7430496,43.4384727,39.6599541,43.3968964,39.6080437z
				 M46.2007523,43.5957642c-0.0103912-0.3115273-0.0519104-0.6231155-0.1038208-0.9242477
				c-0.0311813-0.1661224-0.0623016-0.3427086-0.1038818-0.5088348c-0.0623055-0.259613-0.1349411-0.5192299-0.2180367-0.7684517
				c-0.0519104-0.1765823-0.1142159-0.3427086-0.1869164-0.5088348c-0.0727005-0.2181015-0.1661873-0.4258041-0.2700081-0.6231155
				c-0.0623055-0.135006-0.135006-0.2700081-0.2077065-0.405014c-0.0830956-0.1661263-0.1765213-0.3322525-0.2907372-0.4880486
				c-0.0934868-0.1661263-0.2077026-0.3323135-0.3219833-0.4881096c-0.0103302-0.0103302-0.0103302-0.0207253-0.0207253-0.0311203
				c-0.1246109-0.1661263-0.3531036-0.2077065-0.5192299-0.0934906L43.604599,38.984993
				c0.1557961,0.1973114,0.3115273,0.405014,0.4569283,0.6230507c0.2804031,0.4258041,0.5192299,0.8827324,0.7269325,1.3603821
				c0.0415192,0.0934906,0.0727005,0.1869164,0.1142159,0.280407c0.1557961,0.4257393,0.290802,0.8619385,0.3738327,1.3084717
				c0.0207901,0.0934258,0.0415802,0.1973076,0.0623665,0.3011284c0.0207291,0.1142159,0.0311241,0.2284966,0.0519104,0.3531075
				c0.0207291,0.2180328,0.0415192,0.4361343,0.0519104,0.6542358c0.0103951,0.1350021,0.0103951,0.259613,0.0103951,0.394619
				c0,0.1246109,0,0.2596169-0.0103951,0.3842239c0.2700119-0.0103951,0.4257431-0.0207863,0.4257431-0.0207863
				c0.1973114-0.0207901,0.3634987-0.1869164,0.3634987-0.3946228v-0.0311203
				C46.2319374,44.0007782,46.2215424,43.7930756,46.2007523,43.5957642z M43.4384727,48.3934517
				c-0.0726967,0.1246109-0.1557922,0.2388268-0.2388878,0.3530426c-0.0311203,0.0415764-0.0311203,0.0934868-0.0103302,0.1350021
				c0,0.0207901,0.0207253,0.0415802,0.0415154,0.0519753c0.0207901,0.0103302,0.0415154,0.0207253,0.0727005,0.0207253
				c0.0415154,0,0.0830917-0.0207253,0.1038208-0.0519104c0,0,0-0.0103951,0.0103951-0.0103951
				c0.0726967-0.1142159,0.1453972-0.2180367,0.2284927-0.3323135
				C43.5734787,48.5076675,43.5111732,48.4453621,43.4384727,48.3934517z M44.3834457,49.1722984
				c0,0-0.1142159-0.0934906-0.3115234-0.2596169c0,0-0.0103951,0-0.0207901-0.0103951c0,0,0,0.0103951-0.010334,0.0103951
				c-0.1246719,0.2181015-0.2804031,0.4257431-0.4465942,0.6230507c-0.6126556,0.7788467-1.3707123,1.4330826-2.2119255,1.9523125
				c-0.2803421,0.1661911-0.5711441,0.3219223-0.8722725,0.4569283c-0.1765213,0.0830956-0.3531075,0.1557922-0.5296249,0.2180977
				c-0.2388268,0.1038208-0.4880486,0.1765213-0.7476616,0.2388268c0.0934258,0.2492218,0.1557312,0.394619,0.1557312,0.394619
				c0.0726967,0.1869164,0.2907982,0.290802,0.4881096,0.2284966c0.2076416-0.0727005,0.4153442-0.145401,0.6230507-0.2284966
				c0.6023254-0.2388229,1.1734657-0.5503502,1.7030907-0.9242439c0.1142159-0.0727005,0.2077065-0.1453362,0.3115273-0.2180367
				c0.2388268-0.1765823,0.4673195-0.3634987,0.6853561-0.5712051c0.1142807-0.0934258,0.2181015-0.1972466,0.3219833-0.3011322
				c0.1038208-0.1038208,0.2076416-0.2077026,0.3011322-0.3219185c0.1038208-0.1038208,0.1973114-0.2181015,0.2804031-0.3219223
				c0.1246109-0.1350021,0.2388268-0.2804031,0.3426476-0.4361343
				C44.5703621,49.5357323,44.5392418,49.2969093,44.3834457,49.1722984z M39.3469315,51.5503502
				c-0.1350021,0.0415802-0.2700081,0.0830956-0.405014,0.1142807c0.0415154,0.0830307,0.0623055,0.1661263,0.1038208,0.2388268
				c0.135006-0.0311852,0.2596169-0.0623055,0.3842888-0.1038857c0.0726357-0.0207253,0.1038208-0.0934258,0.0830307-0.1661263
				C39.4923325,51.5711403,39.419632,51.5296249,39.3469315,51.5503502z M34.6426735,51.5503502
				c-0.0727005-0.0207253-0.1453362,0.0207901-0.1661263,0.0830956c-0.0207901,0.0727005,0.0207901,0.145401,0.0830917,0.1661263
				c0.1246109,0.0415802,0.2492218,0.0727005,0.3842278,0.1038857c0.0415154-0.0727005,0.0623055-0.1557961,0.1038208-0.2388268
				C34.9126816,51.6334457,34.7776756,51.5919304,34.6426735,51.5503502z M34.0092239,52.1630707
				c-0.1765175-0.0623055-0.3530388-0.1350021-0.5296249-0.2180977c-0.1661263-0.0727005-0.3323135-0.1557312-0.4984398-0.2492218
				c-0.2388268-0.135006-0.4777145-0.2804031-0.7061462-0.4257393c-0.1142159-0.0830956-0.2284966-0.1557961-0.3323154-0.2388916
				c-0.5815353-0.4361343-1.0903721-0.9345779-1.5472984-1.495388c-0.1557941-0.1973076-0.3115253-0.4153442-0.4569244-0.6334457
				l-0.3219204,0.2700119c-0.1557961,0.1142159-0.1869164,0.3323135-0.0934906,0.4880447
				c0,0.0103951,0.0103951,0.0311852,0.0207901,0.0415802c0.0207901,0.0207253,0.0415154,0.0519104,0.0623055,0.0727005
				c0.5711403,0.7788467,1.2772865,1.4642029,2.0665283,2.0146179c0.1557941,0.1246109,0.3219204,0.2284317,0.4984398,0.3322525
				c0.4050179,0.2492828,0.830822,0.4673195,1.2669563,0.6542358c0.2284317,0.0934868,0.4569283,0.1765823,0.6853561,0.2492828
				h0.0103951c0.0103951,0,0.0103951,0,0.0207901,0c0.0311203,0.0103302,0.0519104,0.0207253,0.0830956,0.0207253
				c0.1557312,0,0.3011322-0.0934258,0.3634377-0.2492218c0,0,0.0623016-0.1453972,0.1557922-0.394619
				C34.4973373,52.339592,34.2480507,52.2564964,34.0092239,52.1630707z M30.800415,48.7464943
				c-0.0830956-0.1142159-0.1661892-0.2284317-0.2388897-0.3530426l-0.2077045,0.1661263
				c0.0727005,0.1142769,0.1453991,0.2284927,0.2284946,0.3427086c0.0311203,0.0311852,0.0727005,0.0519104,0.1038208,0.0519104
				c0.0311832,0,0.0623055-0.0103951,0.0830936-0.0207253C30.8211403,48.8918915,30.8419304,48.8088608,30.800415,48.7464943z"/>
			<path class="st0" d="M46.2007523,43.5957642c-0.0103912-0.3115273-0.0519104-0.6231155-0.1038208-0.9242477
				c-0.0311813-0.1661224-0.0623016-0.3427086-0.1038818-0.5088348c-0.0623055-0.259613-0.1349411-0.5192299-0.2180367-0.7684517
				c-0.0519104-0.1765823-0.1142159-0.3427086-0.1869164-0.5088348c-0.0727005-0.2181015-0.1661873-0.4258041-0.2700081-0.6231155
				c-0.0623055-0.135006-0.135006-0.2700081-0.2077065-0.405014c-0.0830956-0.1661263-0.1765213-0.3322525-0.2907372-0.4880486
				c-0.0934868-0.1661263-0.2077026-0.3323135-0.3219833-0.4881096c-0.0103302-0.0103302-0.0103302-0.0207253-0.0207253-0.0311203
				c-1.1423454-1.5784798-2.7623444-2.7830696-4.6523514-3.3853951c-0.1661263-0.0519104-0.3426476-0.1038208-0.5192299-0.1557312
				c-0.0830307-0.0207901-0.1557312-0.0415802-0.2388268-0.0519714c-0.2077065-0.0519104-0.4257431-0.0934296-0.6334457-0.1246109
				c-0.1661911-0.0207291-0.3323174-0.0519104-0.4881096-0.0623055c-0.0830307-0.0103951-0.1661263-0.0207253-0.2388268-0.0207253
				C37.4673195,35.0284576,37.2388268,35.0180626,37,35.0180626c-0.0103951,0-0.0103951,0-0.0207901,0
				c-0.2284317,0-0.4465294,0.0103951-0.6749611,0.0311852c-0.2492218,0.0103302-0.5088348,0.0415154-0.7477264,0.0830307
				c-0.1973076,0.0311813-0.3842239,0.0727005-0.5815353,0.1142159c-0.2803421,0.0623665-0.5503502,0.1350021-0.809967,0.2180977
				c-1.879612,0.6023254-3.4892788,1.7965202-4.6211662,3.3646049c-0.0727005,0.0830956-0.135006,0.1765862-0.1973095,0.2700119
				c-0.1661892,0.2388268-0.3219204,0.4984398-0.4673214,0.7580566c-0.135004,0.259613-0.27001,0.5296249-0.3842258,0.8100281
				c-0.0726986,0.1557961-0.135004,0.3115273-0.1869144,0.4777184c-0.0415154,0.1246071-0.0830956,0.249218-0.1246109,0.3738289
				c-0.0415783,0.145401-0.0830956,0.2907372-0.1246109,0.4361382c-0.0311832,0.1453972-0.0726986,0.2804031-0.1038837,0.4258041
				c-0.0727005,0.3945541-0.135004,0.799572-0.1557312,1.2149811c-0.0207901,0.1973114-0.0311832,0.405014-0.0311832,0.6023254
				v0.0623055c0,1.4434128,0.3323135,2.8037949,0.934639,4.0188408c0.2284317,0.4880447,0.5088367,0.944973,0.8203621,1.3811073
				c0.0207901,0.0415802,0.0519104,0.0830956,0.0830956,0.1142807c0.5711403,0.7788467,1.2772865,1.4642029,2.0665283,2.0146179
				c0.1557941,0.1246109,0.3219204,0.2284317,0.4984398,0.3322525c0.4050179,0.2492828,0.830822,0.4673195,1.2669563,0.6542358
				c0.2284317,0.0934868,0.4569283,0.1765823,0.6853561,0.2492828h0.0103951c0.0103951,0,0.0103951,0,0.0207901,0
				c0.0311203,0.0103302,0.0519104,0.0207253,0.0830956,0.0207253C35.109993,53.3365402,36.044632,53.4922714,37,53.4922714
				c1.0072784,0,1.9731026-0.1661263,2.8765602-0.4672585c0.2076416-0.0727005,0.4153442-0.145401,0.6230507-0.2284966
				c0.6023254-0.2388229,1.1734657-0.5503502,1.7030907-0.9242439c0.1142159-0.0727005,0.2077065-0.1453362,0.3115273-0.2180367
				c0.2388268-0.1765823,0.4673195-0.3634987,0.6853561-0.5712051c0.1142807-0.0934258,0.2181015-0.1972466,0.3219833-0.3011322
				c0.1038208-0.1038208,0.2076416-0.2077026,0.3011322-0.3219185c0.1038208-0.1038208,0.1973114-0.2181015,0.2804031-0.3219223
				c0.1246109-0.1350021,0.2388268-0.2804031,0.3426476-0.4361343c0.1765862-0.2388878,0.3427086-0.4881096,0.4881096-0.7477264
				c0.8203621-1.3707771,1.2980766-2.9803772,1.2980766-4.6938019v-0.0623055
				C46.2319374,44.0007782,46.2215424,43.7930756,46.2007523,43.5957642z M44.0511322,48.9022865
				c0,0,0,0.0103951-0.010334,0.0103951c-0.1246719,0.2181015-0.2804031,0.4257431-0.4465942,0.6230507
				c-0.6126556,0.7788467-1.3707123,1.4330826-2.2119255,1.9523125c-0.2803421,0.1661911-0.5711441,0.3219223-0.8722725,0.4569283
				c-0.1765213,0.0830956-0.3531075,0.1557922-0.5296249,0.2180977c-0.2388268,0.1038208-0.4880486,0.1765213-0.7476616,0.2388268
				C38.5265083,52.6096039,37.7788467,52.7134247,37,52.7134247s-1.5369034-0.1038208-2.2430496-0.3115273
				c-0.259613-0.0623055-0.5088997-0.145401-0.7477264-0.2388268c-0.1765175-0.0623055-0.3530388-0.1350021-0.5296249-0.2180977
				c-0.1661263-0.0727005-0.3323135-0.1557312-0.4984398-0.2492218c-0.2388268-0.135006-0.4777145-0.2804031-0.7061462-0.4257393
				c-0.1142159-0.0830956-0.2284966-0.1557961-0.3323154-0.2388916c-0.5815353-0.4361343-1.0903721-0.9345779-1.5472984-1.495388
				c-0.1557941-0.1973076-0.3115253-0.4153442-0.4569244-0.6334457c-0.1246109-0.1869164-0.2492218-0.3842239-0.3531055-0.5919304
				c-0.6126556-1.0903702-0.9761562-2.3365364-1.0384617-3.6657372c-0.0103951-0.1246071-0.0103951-0.259613-0.0103951-0.3842239
				c0-0.135006,0-0.2596169,0.0103951-0.394619c0.0103951-0.2077065,0.0207901-0.4154129,0.0519104-0.6231155
				c0.0207901-0.1765213,0.0415802-0.3426476,0.0830956-0.5088387c0.0519104-0.3323135,0.135004-0.6646309,0.2388248-0.9865494
				c0.0415802-0.1246109,0.0830956-0.2492218,0.1246738-0.3738327c0.0311222-0.0934258,0.0726376-0.1869125,0.1142159-0.2804031
				c0.0623055-0.1661263,0.135006-0.3322525,0.2180367-0.4984398c0.0830936-0.1869164,0.1869793-0.3738327,0.2908001-0.550354
				c0.0726986-0.1246719,0.1453991-0.2492828,0.2284298-0.3634987c0.0103951-0.0311203,0.0207901-0.0519104,0.0415802-0.0727005
				c0.1453991-0.2180367,0.2907352-0.4257393,0.4569244-0.6230507c0.9345779-1.1838608,2.1911411-2.1081085,3.6242199-2.6376686
				c0.2388268-0.0934906,0.4880486-0.1765862,0.7373314-0.2388916c0.0415154-0.0207253,0.0830307-0.0311203,0.1349411-0.0415154
				c0.2181015-0.0623055,0.4361992-0.1038818,0.6646309-0.145401c0.1246109-0.0207863,0.2492218-0.0415154,0.3738327-0.0623016
				c0.1661873-0.0103951,0.3323135-0.0311241,0.4985046-0.0415192C36.6157761,35.8073044,36.8026886,35.7969093,37,35.7969093
				s0.3842239,0.0103951,0.5711403,0.0207863c0.1661911,0.0103951,0.3323174,0.0311241,0.4985046,0.0415192
				c0.1246109,0.0207863,0.2492218,0.0415154,0.3738327,0.0623016c0.2284317,0.0415192,0.4465294,0.0830956,0.6646309,0.145401
				c0.0415154,0.0103951,0.0830307,0.0207901,0.1246109,0.0311203c0.259613,0.0727005,0.5088348,0.1557961,0.7476616,0.2492867
				c1.4330788,0.5295601,2.6792488,1.4538078,3.624218,2.6376686c0.1557961,0.1973114,0.3115273,0.405014,0.4569283,0.6230507
				c0.2804031,0.4258041,0.5192299,0.8827324,0.7269325,1.3603821c0.0415192,0.0934906,0.0727005,0.1869164,0.1142159,0.280407
				c0.1557961,0.4257393,0.290802,0.8619385,0.3738327,1.3084717c0.0207901,0.0934258,0.0415802,0.1973076,0.0623665,0.3011284
				c0.0207291,0.1142159,0.0311241,0.2284966,0.0519104,0.3531075c0.0207291,0.2180328,0.0415192,0.4361343,0.0519104,0.6542358
				c0.0103951,0.1350021,0.0103951,0.259613,0.0103951,0.394619c0,0.1246109,0,0.2596169-0.0103951,0.3842239
				C45.3699989,46.2127075,44.8715553,47.6665154,44.0511322,48.9022865z"/>
			<path class="st0" d="M37,34.1146049c-5.5973225,0-10.1457901,4.5484657-10.1457901,10.1457901
				c0,1.4122925,0.2908001,2.7518845,0.8100319,3.9668655C29.2115383,51.8515472,32.8149681,54.3957253,37,54.3957253
				c3.8734398,0,7.2588348-2.1911392,8.9619293-5.3999481c0.7476616-1.4123573,1.1734657-3.0219574,1.1734657-4.7353821
				C47.1353951,38.6630707,42.5869293,34.1146049,37,34.1146049z M45.6711273,48.9853821
				C43.9888268,52.0488548,40.7281036,54.1361122,37,54.1361122c-4.0292358,0-7.5080566-2.429966-9.045023-5.8880615
				c-0.539957-1.2253761-0.8411503-2.5753632-0.8411503-3.9876556c0-5.4519234,4.4342499-9.8861732,9.8861732-9.8861732
				c5.4415283,0,9.8757782,4.4342499,9.8757782,9.8861732C46.8757782,45.9738197,46.4396439,47.5834198,45.6711273,48.9853821z"/>
			<path class="st0" d="M45.4426956,43.8657761c-0.0103912-0.2181015-0.0311813-0.436203-0.0519104-0.6542358
				c-0.0207863-0.1246109-0.0311813-0.2388916-0.0519104-0.3531075c-0.0207863-0.1038208-0.0415764-0.2077026-0.0623665-0.3011284
				c-0.0830307-0.4465332-0.2180367-0.8827324-0.3738327-1.3084717c-0.0415154-0.0934906-0.0726967-0.1869164-0.1142159-0.280407
				c-0.2077026-0.4776497-0.4465294-0.9345779-0.7269325-1.3603821c-0.145401-0.2180367-0.3011322-0.4257393-0.4569283-0.6230507
				l-0.4673195,0.2907372c0.0934906,0.1038818,0.1765862,0.2180977,0.2596169,0.3323135
				c0.0415764,0.0519104,0.0311813,0.135006-0.0311203,0.1765862c-0.0207901,0.0207253-0.0519104,0.0207253-0.0727005,0.0207253
				c-0.0415154,0-0.0830956-0.0103951-0.1038208-0.0519104c-0.0830956-0.1142159-0.1661911-0.2284317-0.2700119-0.3323174
				L40.375,41.0515213c-0.2907982,0.1869164-0.6750259,0.1661263-0.9865494-0.0623055
				c-0.3323174-0.2388268-0.4673233-0.6023254-0.3842278-0.9346428c0.2077065-0.8203583,0.5296249-2.0249481,0.7684517-2.9180717
				c-0.135006-0.0519104-0.2596169-0.1038208-0.394619-0.1453362c-0.0727005-0.0311852-0.1142159-0.1038857-0.0934258-0.1661911
				c0.0311203-0.0727005,0.0934258-0.1038208,0.1661224-0.0830956c0.1246109,0.0415802,0.2596169,0.0830956,0.3842278,0.135006
				c0.0519753-0.2076416,0.1038857-0.3842239,0.145401-0.5295601c-0.2388268-0.0934906-0.4880486-0.1765862-0.7476616-0.2492867
				c-0.0415802-0.0103302-0.0830956-0.0207253-0.1246109-0.0311203c-0.2181015-0.0623055-0.4361992-0.1038818-0.6646309-0.145401
				c-0.1246109-0.0207863-0.2492218-0.0415154-0.3738327-0.0623016c-0.1661873-0.0103951-0.3323135-0.0311241-0.4985046-0.0415192
				C37.3842239,35.8073044,37.1973114,35.7969093,37,35.7969093s-0.3842239,0.0103951-0.5711403,0.0207863
				c-0.1661911,0.0103951-0.3323174,0.0311241-0.4985046,0.0415192c-0.1246109,0.0207863-0.2492218,0.0415154-0.3738327,0.0623016
				c-0.2284317,0.0415192-0.4465294,0.0830956-0.6646309,0.145401c-0.0519104,0.0103951-0.0934258,0.0207901-0.1349411,0.0415154
				c-0.2492828,0.0623055-0.4985046,0.145401-0.7373314,0.2388916c0.0415154,0.1453362,0.0934258,0.3219185,0.145401,0.5295601
				c0.1246109-0.0519104,0.2492218-0.0934258,0.3738327-0.135006c0.0726967-0.0207253,0.1453972,0.0103951,0.1661263,0.0830956
				c0.0207863,0.0623055-0.0207291,0.135006-0.0830345,0.1661911c-0.1350021,0.0415154-0.2700081,0.0934258-0.394619,0.1453362
				c0.2388268,0.8931236,0.5503502,2.0977135,0.7580566,2.9180717c0.0934906,0.3323174-0.0519104,0.695816-0.3531036,0.9138527
				c-0.3322525,0.2492218-0.7164803,0.2700119-1.0176735,0.0830956l-2.5338478-1.630394
				c-0.1038208,0.1038857-0.1869164,0.2181015-0.27001,0.3323174c-0.0311222,0.0415154-0.0623055,0.0519104-0.1038208,0.0519104
				c-0.0311852,0-0.0519104,0-0.0830956-0.0207253c-0.0519104-0.0415802-0.0623055-0.1246758-0.0207253-0.1765862
				c0.0830307-0.1142159,0.1661243-0.2180367,0.2596149-0.3219185l-0.4673214-0.3011322
				c-0.1661892,0.1973114-0.3115253,0.405014-0.4569244,0.6230507c-0.0207901,0.0207901-0.0311852,0.0415802-0.0415802,0.0727005
				c-0.0830307,0.1142159-0.1557312,0.2388268-0.2284298,0.3634987c-0.1038208,0.1765213-0.2077065,0.3634377-0.2908001,0.550354
				c-0.0830307,0.1661873-0.1557312,0.3323135-0.2180367,0.4984398c-0.0415783,0.0934906-0.0830936,0.1869774-0.1142159,0.2804031
				c-0.0415783,0.1246109-0.0830936,0.2492218-0.1246738,0.3738327c-0.1038208,0.3219185-0.1869144,0.6542358-0.2388248,0.9865494
				c-0.0311222,0.1661911-0.0623055,0.3323174-0.0830956,0.5088387c-0.0311203,0.2077026-0.0415154,0.4154091-0.0519104,0.6231155
				c-0.0103951,0.1350021-0.0103951,0.259613-0.0103951,0.394619c0,0.1246109,0,0.2596169,0.0103951,0.3842239
				c0.1557941,0.0103951,0.3323154,0.0207291,0.550415,0.0311241c-0.0207882-0.135006-0.0207882-0.2596169-0.0207882-0.3946228
				c0-0.0727005,0.0623035-0.135006,0.135004-0.135006s0.1246109,0.0623055,0.1246109,0.135006
				c0,0.135006,0.0103951,0.280407,0.0207882,0.4154091c0.9242477,0.0519104,2.1703491,0.1142159,3.0218964,0.1661263
				c0.3531036,0.0207901,0.6438408,0.2700119,0.7581215,0.6231155c0.1246071,0.3946228,0.0311203,0.7684517-0.2388916,0.9865532
				l-2.2846279,1.879612l-0.0519104,0.0415154c0.0727005,0.1246109,0.1557941,0.2388268,0.2388897,0.3530426
				c0.0415154,0.0623665,0.0207253,0.1453972-0.0311852,0.1869774c-0.0207882,0.0103302-0.0519104,0.0207253-0.0830936,0.0207253
				c-0.0311203,0-0.0727005-0.0207253-0.1038208-0.0519104c-0.0830956-0.1142159-0.1557941-0.2284317-0.2284946-0.3427086
				l-0.4153461,0.3427086c0.1453991,0.2181015,0.3011303,0.4361382,0.4569244,0.6334457
				c0.4569263,0.5608101,0.9657631,1.0592537,1.5472984,1.495388c0.1038189,0.0830956,0.2180996,0.1557961,0.3323154,0.2388916
				c0.2284317,0.1453362,0.4673195,0.2907333,0.7061462,0.4257393c0.1661263,0.0934906,0.3323135,0.1765213,0.4984398,0.2492218
				c0.1765862,0.0830956,0.3531075,0.1557922,0.5296249,0.2180977c0.2388268,0.0934258,0.4881134,0.1765213,0.7477264,0.2388268
				c0.0519104-0.135006,0.1142159-0.3115273,0.1869164-0.4984398c-0.135006-0.0311852-0.2596169-0.0623055-0.3842278-0.1038857
				c-0.0623016-0.0207253-0.1038818-0.0934258-0.0830917-0.1661263c0.0207901-0.0623055,0.0934258-0.1038208,0.1661263-0.0830956
				c0.1350021,0.0415802,0.2700081,0.0830956,0.405014,0.1142807c0.3323135-0.8619423,0.7892418-2.035408,1.1007652-2.8350449
				c0.0311852-0.0934258,0.0830956-0.1661263,0.145401-0.2388229c0.1661263-0.1869164,0.405014-0.290802,0.6749611-0.290802
				c0.0103951,0,0.0103951,0,0.0103951,0c0.3323174,0,0.6023254,0.135006,0.7581215,0.3531075
				c0.0415154,0.0519104,0.0830307,0.114212,0.1038208,0.1765175c0.3115234,0.7996368,0.7684517,1.9731026,1.1007652,2.8350449
				c0.135006-0.0311852,0.2700119-0.0727005,0.405014-0.1142807c0.0727005-0.0207253,0.145401,0.0207901,0.1661263,0.0830956
				c0.0207901,0.0727005-0.0103951,0.145401-0.0830307,0.1661263c-0.1246719,0.0415802-0.2492828,0.0727005-0.3842888,0.1038857
				v0.0103951c0.0727005,0.1869125,0.135006,0.3530388,0.1869812,0.4880447
				c0.259613-0.0623055,0.5088348-0.135006,0.7476616-0.2388268c0.1765175-0.0623055,0.3531036-0.1350021,0.5296249-0.2180977
				c0.3011284-0.135006,0.5919304-0.2907372,0.8722725-0.4569283c0.8412132-0.5192299,1.5992699-1.1734657,2.2119255-1.9523125
				c0.1661911-0.1973076,0.3219223-0.4049492,0.4465942-0.6230507c0.010334,0,0.010334-0.0103951,0.010334-0.0103951
				c-0.1142159-0.0934258-0.2492218-0.2180977-0.404953-0.3427086c-0.0830956,0.1142769-0.1557961,0.2180977-0.2284927,0.3323135
				c-0.0103951,0-0.0103951,0.0103951-0.0103951,0.0103951c-0.0207291,0.0311852-0.0623055,0.0519104-0.1038208,0.0519104
				c-0.0311852,0-0.0519104-0.0103951-0.0727005-0.0207253c-0.0207901-0.0103951-0.0415154-0.0311852-0.0415154-0.0519753
				c-0.0207901-0.0415154-0.0207901-0.0934258,0.0103302-0.1350021c0.0830956-0.1142159,0.1661911-0.2284317,0.2388878-0.3530426
				c-0.7269325-0.5919304-1.6926956-1.3811722-2.3469315-1.9211273c-0.2700119-0.2181015-0.3634377-0.5919304-0.2492218-0.9554329
				c0.1246109-0.3842239,0.4257431-0.6334457,0.7684517-0.6542358c0.8515472-0.0519104,2.1080437-0.1142159,3.0322914-0.1661263
				c0.0103951-0.1350021,0.0103951-0.2804031,0.0103951-0.4154091c0-0.0727005,0.0623055-0.135006,0.1350021-0.135006
				c0.0727005,0,0.1246109,0.0623055,0.1246109,0.135006c0,0.135006,0,0.2596169-0.0103951,0.3946228
				c0.2077065-0.0103951,0.3946228-0.0207291,0.54002-0.0311241c0.0103951-0.1246071,0.0103951-0.259613,0.0103951-0.3842239
				C45.4530907,44.1253891,45.4530907,44.0007782,45.4426956,43.8657761z M37,46.4723244
				c-1.2253761,0-2.2223244-0.9969482-2.2223244-2.2119293c0-1.225441,0.9969482-2.2223244,2.2223244-2.2223244
				s2.2119293,0.9968834,2.2119293,2.2223244C39.2119293,45.4753761,38.2253761,46.4723244,37,46.4723244z"/>
			<path class="st0" d="M39.284565,36.8250389c-0.0207253,0.0623055,0.0207901,0.135006,0.0934906,0.1661263
				c0.1350021,0.0415764,0.259613,0.0934868,0.394619,0.1453972c1.2149811,0.4673233,2.3261452,1.2565613,3.1465073,2.2846298
				c0.1038818,0.1038208,0.1869774,0.2180367,0.2700081,0.3323135c0.0207901,0.0415154,0.0623055,0.0519104,0.1038857,0.0519104
				c0.0207253,0,0.0519104,0,0.0727005-0.0207863c0.0623016-0.0415192,0.0726357-0.1246109,0.0311203-0.1765213
				c-0.0830956-0.1142159-0.1661263-0.2284966-0.2596169-0.3323174c-0.8722725-1.0799751-2.025013-1.9107971-3.3022995-2.3988419
				c-0.1246109-0.0519104-0.2596169-0.0934906-0.3842278-0.135006
				C39.3780556,36.7211533,39.3157501,36.7523384,39.284565,36.8250389z"/>
			<path class="st0" d="M34.4765472,51.6335106c-0.0207901,0.0726357,0.0207253,0.1453362,0.0830307,0.1661263
				c0.1246109,0.0415154,0.2492218,0.0727005,0.3842239,0.1038208C35.6084328,52.090435,36.304184,52.1838608,37,52.1838608
				c0.6957512,0,1.3811073-0.0934258,2.0457382-0.2700081v-0.0103951c0.135006-0.0311203,0.2596169-0.0623055,0.3842278-0.1038208
				c0.0726967-0.0207901,0.1038818-0.0934906,0.0830917-0.1661263c-0.0207863-0.0623055-0.0934868-0.1038857-0.1661263-0.0830956
				c-0.1350021,0.0415154-0.2700081,0.0830956-0.405014,0.1142159c-1.2669563,0.3323135-2.6273384,0.3427086-3.8942299,0
				c-0.135006-0.0311203-0.2700119-0.0727005-0.405014-0.1142159C34.569973,51.5296249,34.4972725,51.5712051,34.4765472,51.6335106
				z"/>
			<path class="st0" d="M30.6238308,39.7846298c0.0311203,0.0207863,0.0519104,0.0207863,0.0830956,0.0207863
				c0.0415154,0,0.0726986-0.0103951,0.1038208-0.0519104c0.0830936-0.1142769,0.1661243-0.2284927,0.27001-0.3323135
				c0.8203621-1.0280685,1.9211273-1.8173065,3.1465034-2.2846298c0.1246109-0.0519104,0.2596169-0.1038208,0.3946228-0.1453972
				c0.0623055-0.0311203,0.1038818-0.1038208,0.0830956-0.1661263c-0.0207901-0.0727005-0.0934906-0.1038857-0.1661263-0.0830956
				c-0.1246109,0.0415154-0.2492867,0.0830956-0.3738976,0.135006c-1.2876816,0.4777145-2.4403572,1.3188667-3.3022976,2.4092369
				c-0.0934277,0.1038208-0.1765213,0.2077065-0.2596169,0.3219223
				C30.5615253,39.6600189,30.5719204,39.7431107,30.6238308,39.7846298z"/>
			<path class="st0" d="M29.0765343,44.2811852c0,0.135006,0,0.259613,0.0207253,0.394619
				c0.0623055,1.3915024,0.4985046,2.7207642,1.2565613,3.8838348c0.0727005,0.1142159,0.1453991,0.2284317,0.2284946,0.3427124
				c0.0311203,0.0311203,0.0726357,0.0519104,0.1038208,0.0519104c0.0311203,0,0.0623055-0.0103951,0.0830936-0.0207901
				c0.0519104-0.0415154,0.0727005-0.1246109,0.0311222-0.1869164c-0.0830956-0.1142159-0.1661263-0.2284317-0.2388268-0.3531036
				c-0.7269344-1.1110992-1.1319504-2.3780556-1.2046509-3.6969223c-0.0103302-0.1349411-0.0207253-0.2803383-0.0207253-0.4153442
				c0-0.0727005-0.0519104-0.135006-0.1246109-0.135006S29.0765343,44.2084846,29.0765343,44.2811852z"/>
			<path class="st0" d="M43.2307701,48.9334717c0.0207253,0.0103951,0.0415154,0.0207901,0.0727005,0.0207901
				c0.0415154,0,0.0830307-0.0207901,0.1038208-0.0519104c0.0830917-0.1142807,0.1557922-0.2284966,0.2388229-0.3427124
				c0.7581215-1.1630707,1.1838646-2.4923325,1.2565613-3.8838348c0.0103951-0.135006,0.0103951-0.259613,0.0103951-0.394619
				c0-0.0727005-0.0519104-0.135006-0.1246109-0.135006c-0.0726967,0-0.1350021,0.0623055-0.1350021,0.135006
				c0,0.135006,0,0.2804031-0.0103951,0.4153442c-0.0727005,1.3188667-0.4881096,2.5858231-1.2046509,3.6969223
				c-0.0726357,0.1246719-0.1557312,0.2388878-0.2388268,0.3531036
				C43.1580696,48.8088608,43.1684647,48.8919563,43.2307701,48.9334717z"/>
			<path class="st1" d="M35.5565224,44.2603951c0,0.7892418,0.6438408,1.4330826,1.4434776,1.4330826
				c0.7892418,0,1.4330826-0.6438408,1.4330826-1.4330826c0-0.7996368-0.6438408-1.4434776-1.4330826-1.4434776
				C36.2003632,42.8169174,35.5565224,43.4607582,35.5565224,44.2603951z"/>
		</g>
	</g>
	<path class="st0" d="M61,8.2799568v10.789978l-16.4699707-0.5200195l-1.0900269-0.039978L36,18.2799568
		c2.5100098-2.5100098,6.4299927-4.5,10.4199829-6.0200195c0.4500122-0.1799927,0.8900146-0.3399658,1.3400269-0.5
		C54.4799805,9.3699226,61,8.2799568,61,8.2799568z"/>
	<path class="st0" d="M46,25.2799568h-5c-0.5522842,0-1-0.4477139-1-0.9999981v-0.0000019c0-0.5522842,0.4477158-1,1-1h5
		c0.5522842,0,1,0.4477158,1,1v0.0000019C47,24.832243,46.5522842,25.2799568,46,25.2799568z"/>
	<path class="st0" d="M38.1599731,25.3599129l2.0400391,3.7300529C40,29.039978,39.8099976,29,39.6099854,28.9699707
		l-1.9099731-3.4100456c-0.6000366-1.4199829-0.2900391-3.039978,0.7999878-4.1300049l2.9699707-2.9799805l0.7000122,0.0200195
		l-3.3200073,3.3099976C37.9099731,22.729969,37.6400146,24.1299324,38.1599731,25.3599129z"/>
	<polygon class="st1" points="8.6435547,45.2753906 6.7207031,43.9936523 5.8242188,40.8544922 7.1630859,41.1220703 
		10.421875,43.5668945 11.3330078,45.3886719 	"/>
	<path class="st0" d="M15.1799927,33.4299927C15.1300049,33.4799805,15.0599976,33.5,15,33.5
		s-0.1300049-0.0200195-0.1799927-0.0700073l-2.6099854-2.6199951c-0.2200317-0.210022-0.4900513-0.3500366-0.7800293-0.4000244
		L5.960022,29.5c-0.0500488-0.0100098-0.1000366-0.0400391-0.1300049-0.0700073L6,29.25V29h0.039978l5.4700317,0.9099731
		c0.3999634,0.0700073,0.7600098,0.2600098,1.0499878,0.5499878l2.6199951,2.6100464
		C15.2700195,33.1699829,15.2700195,33.3299561,15.1799927,33.4299927z"/>
	<path class="st1" d="M47.7600098,11.7599373l-3.2299805,6.789978l-1.0900269-0.039978l2.9799805-6.25
		C46.8699951,12.0799446,47.3099976,11.9199715,47.7600098,11.7599373z"/>
	<path class="st0" d="M16.7519245,25.0820503l-2.9884529,1.9923019C12.6135988,27.8409348,11.2625456,28.25,9.8805704,28.25H6v-6
		h7.7888975c0.7896996,0,1.5617304,0.2337513,2.2188005,0.6717987l0.7442265,0.496151
		C17.3456573,23.8137722,17.3456573,24.6862278,16.7519245,25.0820503z"/>
</g>
</svg>
