<?xml version="1.0" encoding="utf-8"?>
<!-- Generator: Adobe Illustrator 27.6.1, SVG Export Plug-In . SVG Version: 6.00 Build 0)  -->
<svg version="1.1" id="Layer_1" xmlns="http://www.w3.org/2000/svg" xmlns:xlink="http://www.w3.org/1999/xlink" x="0px" y="0px"
	 viewBox="0 0 64 64" style="enable-background:new 0 0 64 64;" xml:space="preserve">
<style type="text/css">
	.st0{fill:#C23545;}
	.st1{fill:#3F3244;}
	.st2{fill:#51AB39;}
	.st3{fill:#B8B7BC;}
	.st4{fill:#F9A622;}
</style>
<g>
	<g>
		<path class="st1" d="M60.7349854,32.0700073l-0.6799927-0.75c-0.1699829-0.1799927-0.2600098-0.4200439-0.2600098-0.6700439
			v-4.6799927c-11.9400024-8.0999756-48.3899536-11.4199829-48.3899536-11.4199829H3.0050049v33.9199829l16.5700073,0.8200073
			c-0.5499878-1.5800171-0.8400269-3.2700195-0.8400269-5.039978c0-8.5599976,6.9400024-15.5,15.5-15.5s15.5,6.9400024,15.5,15.5
			c0,2.3099976-0.5100098,4.5-1.4199829,6.4699707l6.8800049,0.3400269c0-1.0400391,0.8400269-1.8800049,1.8800049-1.8800049
			h0.7399902c0.2700195,0,0.5200195-0.1300049,0.6900024-0.3400269l1.4899902-1.8800049
			c0.4299927-0.539978,0.0800171-1.3499756-0.6099854-1.4099731l-1.6799927-0.1500244
			c-0.4000244-0.039978-0.7399902-0.3099976-0.8599854-0.6900024l-0.75-3.6900024
			C55.875,40.3399658,56.414978,39.6499634,57.125,39.7099609l2.7800293,0.210022l0.1499634,0.0100098
			c0.5100098,0.039978,0.9400024-0.3599854,0.9400024-0.8699951v-6.3200073
			C60.9949951,32.4899902,60.9050293,32.25,60.7349854,32.0700073z M57.335022,29.7999878
			C57.2349854,30.3999634,56.5950317,30.7399902,56.0350342,30.5c-2.460022-1.1000366-8.3900146-4.3500366-10.5600586-6.25
			l11.7300415,1.6699829c0.4199829,0.039978,0.7199707,0.4299927,0.6499634,0.8499756L57.335022,29.7999878z"/>
		<path class="st0" d="M57.8549805,26.7699585l-0.5199585,3.0300293C57.2349854,30.3999634,56.5950317,30.7399902,56.0350342,30.5
			c-2.460022-1.1000366-8.3900146-4.3500366-10.5600586-6.25l11.7300415,1.6699829
			C57.625,25.9599609,57.9249878,26.3499756,57.8549805,26.7699585z"/>
		<polygon class="st0" points="8.2949829,14.5499878 3.0050049,14.5499878 3.0050049,9.3999634 		"/>
		<path class="st1" d="M11.4050293,14.5499878H8.2949829l-5.289978-5.1500244V6.25
			C3.0050049,6.25,8.0050049,10.25,11.4050293,14.5499878z"/>
		<path class="st1" d="M8.2949829,14.5499878l-5.289978-5.1500244C4.6849976,10.9699707,6.4849854,12.7099609,8.2949829,14.5499878z
			"/>
		<path class="st0" d="M59.9050293,39.9199829l-0.5200195,5.6282349l-1.6799927-0.1500244
			c-0.4000244-0.039978-0.7399902-0.3099976-0.8599854-0.6900024l-0.75-3.6881714
			C55.875,40.3400269,56.414978,39.6500244,57.125,39.710022L59.9050293,39.9199829z"/>
		<path class="st0" d="M8.0050049,46.2801514c-0.0234375,0-0.0478516-0.0024414-0.0722656-0.0068359
			c-0.203125-0.0400391-0.3359375-0.2368164-0.2958984-0.4404297l0.6738281-3.4428711L8.4796143,23.355957L4.9219971,18.800293
			c-0.1269531-0.1635742-0.0976562-0.3989258,0.0654297-0.5263672c0.1621094-0.1274414,0.3984375-0.0986328,0.5263672,0.0644531
			l3.6376953,4.6591797c0.0517578,0.0673828,0.0800781,0.1499023,0.0791016,0.2348633L9.053833,42.4661865L8.3731689,45.977417
			C8.3380127,46.1561279,8.1807861,46.2801514,8.0050049,46.2801514z"/>
		<path class="st0" d="M12.7496853,25.25l8.7074184,0.862978c0,0-4.7499714,2.5412769-8.7074184,2.5412769V25.25z"/>
		<path class="st0" d="M41.0245361,23.0292969c-0.0351562,0-0.0712891-0.0048828-0.1074219-0.015625
			c-5.0439453-1.5063477-23.3115234-4.0473633-23.4960938-4.0727539c-0.2050781-0.0283203-0.3476562-0.2177734-0.3193359-0.4228516
			c0.0273438-0.2045898,0.2138672-0.3500977,0.4228516-0.3203125c0.7529297,0.1044922,18.5087891,2.574707,23.6074219,4.097168
			c0.1982422,0.059082,0.3115234,0.2680664,0.2519531,0.4667969C41.335083,22.9243164,41.1866455,23.0292969,41.0245361,23.0292969z
			"/>
	</g>
	<g>
		<path class="st1" d="M46.343483,43.6580696c0.0727005,0,0.1246109,0.0623055,0.1246109,0.135006
			c0,0.6646309,0.809967,1.6407852,1.1734657,2.025013C47.7038651,45.2988548,47.7349854,44.79002,47.7349854,44.25
			c0-0.1142159,0-0.2180367-0.0103951-0.3323135h-0.4465294c-0.0727005,0-0.135006-0.0519104-0.135006-0.1246109
			s0.0623055-0.135006,0.135006-0.135006h0.4361992c-0.0207901-0.6022606-0.0830956-1.1941948-0.1869164-1.7653351
			c-0.0103951,0.010334-0.0103951,0.010334-0.0207901,0.010334c-0.0207901,0-0.0415802,0-0.0623055-0.010334
			c-0.5088348-0.2804031-1.7134857-1.0177345-1.9627075-1.7757912c-0.0207901-0.0727005,0.0103951-0.145401,0.0830956-0.1661263
			c0.0727005-0.0207901,0.145401,0.0103302,0.1661263,0.0830307c0.2077065,0.6438408,1.3084717,1.3292618,1.7550011,1.5784836
			c-0.1350021-0.6334457-0.3011284-1.2461662-0.5192299-1.8484917l-0.4361343,0.1453972
			c-0.0103951,0-0.0311852,0.0103951-0.0415154,0.0103951c-0.0519753,0-0.1038857-0.0415154-0.1246758-0.0934868
			c-0.0207253-0.0726395,0.0207901-0.1453362,0.0830956-0.1661263l0.4258041-0.135006
			c-0.0519753-0.145401-0.1038857-0.2907372-0.1661911-0.4361382c-0.1661224-0.405014-0.3530388-0.789238-0.5711403-1.1734657
			c-0.0103951,0.0103951-0.0311852,0.0103951-0.0415154,0.0103951c-0.0103951,0-0.0103951,0-0.0207901,0
			c-0.5711403-0.1142159-1.9523125-0.4361992-2.419632-1.0903702c-0.0415154-0.0519753-0.0311203-0.135006,0.0311852-0.1765862
			c0.0519104-0.0415154,0.135006-0.0311203,0.1765213,0.0311852c0.3842239,0.5296249,1.599205,0.8411522,2.1184387,0.944973
			c-0.2907372-0.550354-0.6438408-1.0799789-1.0384636-1.5784187l-0.3530426,0.2699471
			c-0.0207863,0.0103951-0.0519104,0.0207901-0.0830917,0.0207901c-0.0311203,0-0.0727005-0.0207901-0.1038208-0.0519104
			c-0.0415802-0.0623055-0.0207901-0.145401,0.0311203-0.1869164l0.3531036-0.2596169
			c-0.3634987-0.4673195-0.7581177-0.9034538-1.1838608-1.2980766c-0.0207901,0.0103951-0.0415154,0.0311203-0.0623055,0.0311203
			c-0.2388268,0.0311852-0.6230507,0.0623055-1.0384598,0.0623055c-0.5815392,0-1.2253799-0.0727005-1.5992088-0.3530388
			c-0.0623055-0.0415802-0.0727005-0.1246109-0.0311852-0.1765862c0.0415154-0.0623055,0.1246109-0.0726357,0.1765213-0.0311203
			c0.550415,0.394619,1.8069763,0.3115273,2.3365364,0.2492218c-0.4672546-0.4361382-0.9553642-0.8307571-1.4849892-1.1941948
			l-0.2700119,0.3738327c-0.0311203,0.0311203-0.0623055,0.0519104-0.1038208,0.0519104
			c-0.0311852,0-0.0519104-0.0103951-0.0830956-0.0207901c-0.0519104-0.0415154-0.0623055-0.1246109-0.0207253-0.1869164
			l0.2596169-0.3634377c-0.4881096-0.3323135-0.9969482-0.6231117-1.5369682-0.8827286
			c0,0.0311852-0.0207253,0.0623055-0.0519104,0.0727005c-0.4361343,0.1973114-1.3915024,0.6023254-2.1496239,0.6023254
			c-0.1557312,0-0.3115234-0.0207901-0.4465294-0.0623055c-0.0727005-0.0207901-0.1038208-0.0934906-0.0830956-0.1661911
			c0.0207901-0.0623055,0.0934906-0.1038208,0.1661911-0.0830307c0.6334457,0.2077065,1.8173065-0.2700081,2.29496-0.4881096
			c-0.5711441-0.27001-1.1630745-0.4984398-1.7861252-0.6749611l-0.145401,0.4465313
			c-0.0103912,0.0519104-0.0623016,0.0830936-0.114212,0.0830936h-0.0415192
			c-0.0726967-0.0207901-0.1142769-0.0934887-0.0830917-0.1661892l0.1350021-0.4257412
			c-0.5608063-0.1661892-1.1319504-0.2908001-1.7238808-0.3634987c0,0.0311832-0.0207253,0.0519104-0.0415154,0.0726986
			c-0.4257393,0.4050159-1.5057831,1.3188686-2.2950211,1.3188686c-0.0727005,0-0.135006-0.0519104-0.135006-0.1246109
			s0.0623055-0.135006,0.135006-0.135006c0.6542358,0,1.6303902-0.7996368,2.025013-1.1630726
			C35.2942352,30.7811852,34.7646103,30.75,34.2349854,30.75c-0.1142159,0-0.2180367,0-0.3323135,0.0103951v0.4569244
			c0,0.0727005-0.0623055,0.135006-0.1246109,0.135006c-0.0727005,0-0.135006-0.0623055-0.135006-0.135006v-0.4465294
			c-0.5918694,0.0207882-1.1837997,0.0830936-1.755003,0.1869144c0.0103951,0.0311852,0,0.0519104-0.0103321,0.0830956
			c-0.2804031,0.5088348-1.0177345,1.7238178-1.7861862,1.9730396h-0.0311203c-0.0623055,0-0.1142788-0.0311203-0.1246109-0.0830307
			c-0.0311832-0.0727005,0.0103321-0.145401,0.0830307-0.1661911c0.6335106-0.2077065,1.3188667-1.2980766,1.5784836-1.755003
			c-0.6334476,0.1246109-1.2461681,0.2908001-1.8484936,0.5088367l0.145401,0.4465942
			c0.0207882,0.0623055-0.0207272,0.135006-0.0830956,0.1557312c-0.0207253,0.0103951-0.0311203,0.0103951-0.0415154,0.0103951
			c-0.0519104,0-0.1038208-0.0311203-0.1246109-0.0934906l-0.1453991-0.4361362
			c-0.5503521,0.2077065-1.0903721,0.4569263-1.609602,0.7373295c0.0207882,0.0207901,0.0207882,0.0519104,0.0207882,0.0830956
			c-0.1142159,0.5711403-0.4361992,1.9522514-1.0903721,2.4195709c-0.0207882,0.0207901-0.0519733,0.0207901-0.0726986,0.0207901
			c-0.0415802,0-0.0830956-0.0103951-0.1038857-0.0519104c-0.0415154-0.0519104-0.0311203-0.135006,0.0311852-0.1765862
			c0.539957-0.3945541,0.8411522-1.6303291,0.9553661-2.149559c-0.5607452,0.3011322-1.0903721,0.6542358-1.5992069,1.0487938
			l0.27001,0.3738937c0.0415154,0.0623055,0.0311203,0.135006-0.0207901,0.1869164
			c-0.0311832,0.0103951-0.0519104,0.0207253-0.0830936,0.0207253c-0.0415154,0-0.0727005-0.0207253-0.1038208-0.0519104
			l-0.2596169-0.3738289c-0.4569244,0.3634338-0.8930607,0.7580566-1.3084717,1.1838608
			c0.0207901,0.0207253,0.0415173,0.0519104,0.0415173,0.0830917c0.0623035,0.5815392,0.1765842,1.9938316-0.2907372,2.6376724
			c-0.0207901,0.0311203-0.0623055,0.0519104-0.1038837,0.0519104c-0.0311203,0-0.0519104-0.0103951-0.0727005-0.0207901
			C24.0372849,37.5830956,24.0269547,37.5,24.06847,37.4376945c0.3946209-0.5399551,0.3115253-1.8277016,0.2492199-2.3469315
			c-0.4361362,0.4673195-0.8411503,0.9761543-1.2045879,1.5057793h0.0103951l0.3738308,0.2700119
			c0.0519104,0.0415154,0.0727005,0.1246109,0.0311222,0.1765213c-0.0311222,0.0415764-0.0727005,0.0623055-0.1142159,0.0623055
			c-0.0207901,0-0.0519104-0.010334-0.0727005-0.0311241l-0.3738308-0.2700081
			c-0.3219204,0.4881096-0.6127205,1.0073395-0.8826675,1.5369034c0.0415173,0.0103951,0.0623055,0.0311852,0.0726376,0.0623055
			c0.2492828,0.5296249,0.7996349,1.8380966,0.550415,2.5961533c-0.0207901,0.0519714-0.0727005,0.0830956-0.1246109,0.0830956
			h-0.0415783c-0.0623055-0.0207901-0.1038208-0.0934258-0.0830326-0.1661263
			c0.2077065-0.6335106-0.27001-1.8173103-0.4881096-2.3054199c-0.27001,0.5815353-0.4984398,1.1838608-0.6853561,1.7965813
			h0.0103951l0.4465313,0.1349449c0.0623035,0.0207863,0.1038208,0.1038818,0.0830936,0.1661873
			c-0.0207901,0.0519104-0.0727005,0.0934258-0.1246738,0.0934258c-0.0207253,0-0.0311203,0-0.0415154-0.0103302
			l-0.4361362-0.145401c-0.1557941,0.5711403-0.280405,1.1526794-0.3531036,1.7446098
			c0.0311832,0,0.0519104,0.0103951,0.0726986,0.0311203c0.3946209,0.4258041,1.3188667,1.495388,1.3188667,2.2950211
			c0,0.0727005-0.0519104,0.135006-0.1246109,0.135006c-0.0726986,0-0.135004-0.0623055-0.135004-0.135006
			c0-0.6749611-0.820425-1.6511192-1.1734676-2.035408c-0.0623035,0.5192337-0.0934887,1.0384636-0.0934887,1.5680885
			c0,0.1142807,0,0.2284927,0.0103951,0.3427086h0.4569244c0.0727005,0,0.135006,0.0519104,0.135006,0.1246109
			s-0.0623055,0.135006-0.135006,0.135006h-0.4465294c0.0207882,0.5919304,0.0830936,1.1838608,0.1869144,1.7550011
			c0.0311852-0.0103951,0.0519104,0,0.0830956,0.0103951c0.5088348,0.280407,1.7238178,1.0176735,1.9730377,1.7757301
			c0.0207901,0.0727005-0.0207253,0.145401-0.0830307,0.1661873c-0.0207901,0.0103951-0.0311832,0.0103951-0.0415783,0.0103951
			c-0.0623055,0-0.1038208-0.0415764-0.1246109-0.0934868c-0.2077045-0.6334457-1.2980766-1.3188057-1.755003-1.5784187
			c0.1246109,0.6334457,0.2908001,1.2564964,0.5088367,1.8484268l0.4465942-0.1453972
			c0.0726357-0.0207291,0.135004,0.0207863,0.1557312,0.0830917c0.0311832,0.0727005-0.0103951,0.145401-0.0830956,0.1661263
			l-0.4257412,0.145401c0.1973114,0.5608101,0.4465313,1.0903702,0.7269363,1.6096039
			c0.0207901-0.0207291,0.0519104-0.0311241,0.0830936-0.0207291c0.5711422,0.1142159,1.9419193,0.4361382,2.4195709,1.0799789
			c0.0415783,0.0623055,0.0311832,0.145401-0.0311203,0.1869164c-0.0207901,0.0207901-0.0519104,0.0207901-0.0727005,0.0207901
			c-0.0415154,0-0.0830956-0.0103951-0.1038837-0.0519104c-0.404953-0.550415-1.6511192-0.8619423-2.159956-0.9657631
			c0.3115273,0.5607452,0.6646309,1.1007652,1.0591888,1.6096039l0.3738937-0.280407
			c0.0519104-0.0415154,0.135006-0.0207901,0.1765213,0.0311852c0.0415154,0.0623055,0.0311203,0.1453362-0.0207901,0.1869164
			l-0.3738308,0.259613c0.3634357,0.4569283,0.7580566,0.8930626,1.1838608,1.3084717
			c0.0207272-0.0207901,0.0519104-0.0415764,0.0830956-0.0415764c0.5711403-0.0727005,1.9938278-0.1869164,2.6376686,0.2907982
			c0.0519104,0.0415154,0.0727005,0.1246109,0.0311222,0.1765213c-0.0311222,0.0311852-0.0726376,0.0519104-0.1038208,0.0519104
			c-0.0311852,0-0.0623055-0.0103951-0.0830956-0.0207253c-0.539957-0.3946228-1.8277016-0.3115921-2.3469334-0.2492867
			c0.4673214,0.4258041,0.965826,0.830822,1.495388,1.1942558l0.280405-0.3738289
			c0.0415154-0.0623055,0.124609-0.0727005,0.1765194-0.0311852c0.0623055,0.0415802,0.0727005,0.1246109,0.0311852,0.1869164
			l-0.27001,0.3634987c0.4984417,0.3323174,1.0176716,0.6230507,1.5472965,0.8826675
			c0-0.0311203,0.0207901-0.0623055,0.0519104-0.0727005c0.5296268-0.2388268,1.8380985-0.7892418,2.5961552-0.5399551
			c0.0623055,0.0207253,0.1038837,0.0934258,0.0830936,0.1661263c-0.0207882,0.0623016-0.0934258,0.1038208-0.1661263,0.0830917
			c-0.6335087-0.2077026-1.8069115,0.2596169-2.295023,0.4880486c0.5711422,0.2700081,1.1630726,0.4881096,1.7757931,0.6646309
			l0.1453362-0.4361382c0.0207901-0.0623055,0.0934887-0.1038818,0.1661892-0.0830956
			c0.0623055,0.0207901,0.1038208,0.0934906,0.0830956,0.1661263l-0.135006,0.425808
			c0.5607471,0.1661224,1.1422825,0.2804031,1.7342148,0.3530388c0-0.0207253,0.0103951-0.0519104,0.0311203-0.0623055
			c0.4258041-0.4049492,1.495388-1.3188019,2.2950211-1.3188019c0.0727005,0,0.135006,0.0519104,0.135006,0.1246109
			s-0.0623055,0.1246109-0.135006,0.1246109c-0.6646309,0-1.6407852,0.8203621-2.025013,1.1734657
			C33.1861305,57.7188797,33.7053604,57.75,34.2349854,57.75c0.1142807,0,0.2284927,0,0.3427086-0.0103951v-0.4465294
			c0-0.0727005,0.0519104-0.135006,0.1246109-0.135006s0.135006,0.0623055,0.135006,0.135006v0.4361992
			c0.6023254-0.0207901,1.1838608-0.0830956,1.7550011-0.1973114c0-0.0207901,0-0.0415802,0.0103951-0.0623055
			c0.280407-0.5088997,1.0176735-1.7238808,1.7757301-1.9731026c0.0727005-0.0207901,0.145401,0.0207901,0.1661873,0.0830956
			c0.0207901,0.0727005-0.0103912,0.145401-0.0830917,0.1661263c-0.6334457,0.2077065-1.2980766,1.2669563-1.5680885,1.734211
			c0.6335106-0.114212,1.2461662-0.2907333,1.8380966-0.4984398l-0.1453972-0.4361343
			c-0.0207291-0.0623055,0.0103912-0.135006,0.0830917-0.1557961c0.0727005-0.0311203,0.145401,0.0103951,0.1661263,0.0830956
			l0.135006,0.4154091c0.5608101-0.1973114,1.1007652-0.4465942,1.6199989-0.7269363
			c-0.0207291-0.0207901-0.0207291-0.0415802-0.0207291-0.0727005c0.1038208-0.5711403,0.4361382-1.9523125,1.0799789-2.419632
			c0.0623055-0.0415154,0.135006-0.0311203,0.1869164,0.0311852c0.0415764,0.0519104,0.0311813,0.135006-0.0311203,0.1765213
			c-0.550415,0.405014-0.8515472,1.6407852-0.9657631,2.1496201c0.5607452-0.3115234,1.0903702-0.6646309,1.5992088-1.0592499
			l-0.2700119-0.3634377c-0.0415154-0.0623016-0.0311203-0.1350021,0.0311852-0.1869125
			c0.0519104-0.0415802,0.135006-0.0207901,0.1869164,0.0311203l0.259613,0.3634987
			c0.4569283-0.3634987,0.8930626-0.7581215,1.2980766-1.1838608c-0.0103951-0.0207901-0.0311813-0.0415802-0.0311813-0.0727005
			c-0.0727005-0.5815353-0.1869164-1.9938278,0.2804031-2.6376686c0.0519104-0.0623055,0.135006-0.0727005,0.1869164-0.0311852
			s0.0727005,0.1246109,0.0311852,0.1869164c-0.3946228,0.5296249-0.3115921,1.7965813-0.2492867,2.3261414
			c0.4361992-0.4672546,0.830822-0.9657593,1.1838608-1.4953842l-0.3634338-0.2596169
			c-0.0623055-0.0415154-0.0727005-0.1246109-0.0311852-0.1765213c0.0415802-0.0623055,0.1246109-0.0727005,0.1765213-0.0311203
			l0.3634987,0.2492218c0.3323174-0.4881096,0.6230507-0.9969482,0.8722725-1.5265732
			c-0.0207253-0.0103951-0.0415154-0.0311203-0.0519104-0.0519104c-0.2492218-0.5296249-0.7892418-1.8380966-0.5399551-2.5961533
			c0.0207253-0.0623055,0.0934258-0.1038208,0.1557312-0.0830956c0.0726967,0.0207901,0.1142159,0.0934906,0.0934868,0.1661911
			c-0.2077026,0.6334457,0.2492218,1.7861214,0.4776535,2.284626c0.0727005-0.1453972,0.145401-0.3011932,0.2077026-0.4569244
			c0.1765213-0.4258041,0.3427124-0.8723335,0.4673233-1.3188667l-0.4361382-0.135006
			c-0.0727005-0.0207863-0.1038818-0.1038208-0.0830956-0.1661263c0.0207901-0.0726967,0.0934906-0.1038818,0.1661263-0.0830917
			l0.4154129,0.1350021c0.1661263-0.5608063,0.2907982-1.1319504,0.3738289-1.7238808
			c-0.0311203,0-0.0519104-0.0103302-0.0830307-0.0415154c-0.394619-0.4257393-1.3188667-1.495388-1.3188667-2.2950211
			C46.208477,43.7203751,46.2707825,43.6580696,46.343483,43.6580696z M34.2349854,56.0261803
			c-6.47999,0-11.7657242-5.2857971-11.7657242-11.7657852c0-6.4903831,5.2857342-11.7761192,11.7657242-11.7761192
			c6.4903831,0,11.7657852,5.2857361,11.7657852,11.7761192C46.0007706,50.7403831,40.7253685,56.0261803,34.2349854,56.0261803z
			 M34.2349854,32.7438927c-6.3449841,0-11.5061073,5.1611214-11.5061073,11.5165024
			c0,6.344986,5.1611233,11.5061722,11.5061073,11.5061722c6.345047,0,11.5061722-5.1611862,11.5061722-11.5061722
			C45.7411575,37.905014,40.5800323,32.7438927,34.2349854,32.7438927z M34.2349854,54.1361732
			c-5.4415283,0-9.8757801-4.4342499-9.8757801-9.8757782c0-5.4519234,4.4342518-9.8861732,9.8757801-9.8861732
			c5.4519234,0,9.8861732,4.4342499,9.8861732,9.8861732C44.1211586,49.7019234,39.6869087,54.1361732,34.2349854,54.1361732z"/>
		<g>
			<path class="st0" d="M40.6734581,48.3934517c-0.0726967,0.1246719-0.1557312,0.2388878-0.2388229,0.3531036
				c-0.0415802,0.0623055-0.0207901,0.145401,0.0311203,0.1869164c0.0207901,0.0103951,0.0519714,0.0207901,0.0830956,0.0207901
				c0.0311813,0,0.0726967-0.0207901,0.1038208-0.0519104c0.0830917-0.1142807,0.1557922-0.2284966,0.2284927-0.3427124
				L40.6734581,48.3934517z M41.6184959,49.1722984l-0.3219223-0.2699471
				c-0.1453972,0.2180367-0.3011932,0.4361343-0.4569244,0.6334457c-0.4569244,0.5607452-0.9658241,1.0592499-1.5473595,1.495388
				c-0.1038208,0.0830956-0.2180367,0.1557312-0.3322525,0.2388268c-0.2284966,0.1453972-0.4673233,0.2907982-0.7062111,0.4258041
				c-0.1661263,0.0934258-0.3322525,0.1765213-0.4984398,0.249218c-0.1765213,0.0830345-0.3530426,0.1557312-0.5296249,0.2180367
				c-0.2388268,0.0934906-0.4880486,0.1765862-0.7476654,0.2388916c0.0934296,0.249218,0.1557312,0.394619,0.1557312,0.394619
				c0.0623055,0.1557312,0.2077065,0.2492218,0.3635025,0.2492218c0.0311203,0,0.0519104-0.0103951,0.0830307-0.0207901
				c0.0103951,0,0.0103951,0,0.0207901,0h0.0103951c0.2284279-0.0727005,0.4569244-0.1557312,0.6853561-0.2492218
				c0.4361992-0.1869164,0.8619385-0.405014,1.2669563-0.6542358c0.1765213-0.1038208,0.3427086-0.2077026,0.4984398-0.3323135
				c0.7892418-0.550354,1.495388-1.2357712,2.0665283-2.0146179c0.0207901-0.0207253,0.0415802-0.0519104,0.0623055-0.0727005
				c0.0103951-0.0103951,0.0207901-0.0311203,0.0207901-0.0415154
				C41.8054123,49.504612,41.7742271,49.2865753,41.6184959,49.1722984z M36.5923119,51.550415
				c-0.1350021,0.0415154-0.2700081,0.0830956-0.405014,0.1142159c0.0415802,0.0830956,0.0623055,0.1661873,0.1038857,0.2388268
				c0.1350021-0.0311203,0.259613-0.0623055,0.3842239-0.1038208c0.0623055-0.0207901,0.1038208-0.0934906,0.0830307-0.1661263
				C36.7377129,51.5712051,36.6650124,51.5296249,36.5923119,51.550415z M31.888052,51.550415
				c-0.0726357-0.0207901-0.1453362,0.0207901-0.1661263,0.0830956c-0.0207882,0.0726357,0.0103951,0.1453362,0.0830956,0.1661263
				c0.124609,0.0415154,0.2492199,0.0727005,0.3842258,0.1038208c0.0415154-0.0726395,0.0623055-0.1557312,0.1038208-0.2388268
				C32.158062,51.6335106,32.023056,51.5919304,31.888052,51.550415z M31.2546062,52.1630707
				c-0.1765213-0.0623055-0.3530426-0.1350021-0.5296268-0.2180367c-0.3011303-0.1350021-0.5918655-0.2907982-0.8722706-0.4569244
				c-0.8411522-0.5192299-1.5992718-1.1734657-2.2119293-1.9523125c-0.1661892-0.1973114-0.3219204-0.4154091-0.4569244-0.6334457
				c-0.2077065,0.1661263-0.3323154,0.2699471-0.3323154,0.2699471c-0.1557961,0.1246719-0.1869164,0.3634987-0.0623055,0.5296249
				c0.1038208,0.1557961,0.2180996,0.3011932,0.3427105,0.4361992c0.0830307,0.1038208,0.1765194,0.2180367,0.2803402,0.3219223
				c0.0934906,0.114212,0.1973114,0.2180328,0.3011951,0.3219185c0.1038208,0.1038208,0.2077045,0.2076416,0.3219204,0.3011322
				c0.2180367,0.2077026,0.4465313,0.394619,0.6853561,0.5711403c0.1038857,0.0727005,0.1973114,0.145401,0.3115273,0.2181015
				c0.5296249,0.3738289,1.1008301,0.6853561,1.7030907,0.9242439c0.2077065,0.0830307,0.415411,0.1557312,0.6231155,0.2284317
				c0.1973095,0.0623055,0.4153461-0.0415154,0.4880466-0.2284317c0,0,0.0623055-0.145401,0.1557941-0.394619
				C31.7427158,52.3396568,31.4934959,52.2669563,31.2546062,52.1630707z M28.0354004,48.7465553
				c-0.0830956-0.1142159-0.1661892-0.2284317-0.2388268-0.3531036c-0.0726986,0.0519753-0.135004,0.1142769-0.2077045,0.1661873
				c0.0830326,0.1142159,0.1557312,0.2284317,0.2388268,0.3427124c0.0207882,0.0311203,0.0623055,0.0519104,0.1038208,0.0519104
				c0.0311832,0,0.0519733-0.0103951,0.0726986-0.0207901C28.0665207,48.8919563,28.0769157,48.8088608,28.0354004,48.7465553z
				 M27.2773438,38.7565613c-0.1661892-0.1142159-0.3946209-0.0727005-0.5192299,0.0934906
				c-0.0103951,0.0103302-0.0103951,0.0207253-0.0207901,0.0311203c-0.1142159,0.1557922-0.2284946,0.3219185-0.3219204,0.4881096
				c-0.1142159,0.1557312-0.2077045,0.3219185-0.2908001,0.4880447c-0.0727005,0.135006-0.1453362,0.2700119-0.2077045,0.4050179
				c-0.1038208,0.1973076-0.1972466,0.405014-0.2699471,0.6230507c-0.0727005,0.1661873-0.135006,0.3323135-0.1869164,0.5088348
				c-0.0830936,0.2492218-0.1557941,0.5088387-0.2180996,0.7684517c-0.0415154,0.1661911-0.0726986,0.3427124-0.1038837,0.5088997
				c-0.0519104,0.3011322-0.0934258,0.6126556-0.1038208,0.9241829c-0.0207901,0.1973114-0.0311203,0.405014-0.0311203,0.6023254
				v0.0311852c0,0.2076416,0.1661263,0.3738289,0.3634357,0.394619c0,0,0.1557941,0.0103302,0.4257412,0.0207253
				c-0.0103321-0.1246071-0.0103321-0.259613-0.0103321-0.3842239c0-0.135006,0-0.2596169,0.0103321-0.394619
				c0.0103951-0.2180367,0.0311852-0.4361382,0.0519733-0.6542358c0.0207272-0.1246109,0.0311222-0.2388268,0.0519104-0.3530426
				c0.0207272-0.1038857,0.0415154-0.2077065,0.0623055-0.3011932c0.0830956-0.4465332,0.2180367-0.8826675,0.3738308-1.3084106
				c0.0415154-0.0934906,0.0727005-0.1869774,0.1142159-0.2804031c0.2077045-0.4777145,0.4465313-0.9346428,0.7269363-1.3603821
				c0.1453991-0.2181015,0.3011303-0.4258041,0.4569244-0.6231155L27.2773438,38.7565613z M28.0977058,39.2757912
				c-0.0934906,0.1038208-0.1765213,0.2181015-0.2596149,0.3323174c-0.0415173,0.0519104-0.0311852,0.1350021,0.0311203,0.1765213
				c0.0207901,0.0207863,0.0519733,0.0207863,0.0727005,0.0207863c0.0415783,0,0.0830936-0.0103951,0.1038837-0.0519104
				c0.0830307-0.1142769,0.1661263-0.2284927,0.27001-0.3323135L28.0977058,39.2757912z M31.7842312,36.7419434
				c-0.1246109,0.0415154-0.2596149,0.0830956-0.3842258,0.135006c0.0207901,0.0830956,0.0415154,0.1661263,0.0623055,0.259613
				c0.135006-0.0519104,0.2596149-0.1038208,0.3946209-0.1453972c0.0726986-0.0311203,0.1142159-0.1038208,0.0934887-0.1661263
				C31.9192371,36.7523384,31.8569317,36.7211533,31.7842312,36.7419434z M37.0700302,35.4646568
				c-0.2596169-0.0830956-0.5296288-0.1557961-0.8100319-0.2181015c-0.1973114-0.0415154-0.3842278-0.0830956-0.5815353-0.1142159
				c-0.2388268-0.0415764-0.4984436-0.0727005-0.7476616-0.0830917c-0.2284966-0.0207901-0.4465942-0.0311241-0.6750259-0.0311241
				c-0.0103951,0-0.0103951,0-0.0207901,0c-0.2388268,0-0.4672585,0.010334-0.7061462,0.0311241
				c-0.0727005,0-0.1557312,0.0103912-0.2388268,0.0207863c-0.1557922,0.0103951-0.3219185,0.0415154-0.4881096,0.0623055
				c-0.2076416,0.0311203-0.4257393,0.0727005-0.6334457,0.1246109c-0.0830956,0.0103951-0.1557312,0.0311203-0.2388268,0.0519104
				c-0.1765194,0.0519104-0.3531036,0.1038208-0.5192299,0.1557961c-0.1973095,0.0623055-0.3115253,0.2700081-0.2596149,0.4672546
				c0,0,0.0415154,0.1557961,0.1038208,0.4154129c0.2388897-0.0934258,0.4881096-0.1765213,0.7477245-0.2492218
				c0.0415154-0.0103951,0.0830307-0.0207901,0.1246109-0.0311852c0.2180367-0.0623055,0.4361343-0.1038208,0.6646309-0.1453362
				c0.1246109-0.0207901,0.2492218-0.0415802,0.3738289-0.0623055c0.1661263-0.0103951,0.3323174-0.0311852,0.4984436-0.0415802
				c0.1869164-0.0103912,0.3738289-0.0207253,0.5711403-0.0207253s0.3842239,0.010334,0.5712051,0.0207253
				c0.1661263,0.0103951,0.3322525,0.0311852,0.4984398,0.0415802c0.1246109,0.0207253,0.2492218,0.0415154,0.3738327,0.0623055
				c0.2284927,0.0415154,0.4465294,0.0830307,0.6646309,0.1453362c0.0519104,0.0103951,0.0934258,0.0207901,0.1350021,0.0311852
				v0.0103951c0.2492218,0.0623055,0.4984436,0.145401,0.7372704,0.2388268
				c0.0623055-0.2596169,0.1038818-0.4154129,0.1038818-0.4154129
				C37.3711586,35.7346649,37.2673378,35.5269623,37.0700302,35.4646568z M26.5815296,44.2811852
				c0-0.0727005-0.0623055-0.135006-0.135006-0.135006s-0.1246109,0.0623055-0.1246109,0.135006
				c0,0.135006,0,0.259613,0.0103951,0.394619c0.0830956,0.0103951,0.1765213,0.0103951,0.2596149,0.0207253
				C26.5815296,44.5615883,26.5815296,44.4161911,26.5815296,44.2811852z M42.0234451,44.1461792
				c-0.0726967,0-0.1246071,0.0623055-0.1246071,0.135006c0,0.135006-0.0103951,0.2804031-0.0207291,0.4153442
				c0.0934258-0.0103302,0.1765213-0.0103302,0.2596169-0.0207253c0.0207253-0.135006,0.0207253-0.259613,0.0207253-0.394619
				C42.1584511,44.2084846,42.0961456,44.1461792,42.0234451,44.1461792z M43.4358025,43.5957642
				c-0.0207901-0.4153481-0.0830956-0.8203621-0.1557961-1.2149811c-0.0311813-0.145401-0.0726967-0.280407-0.1038208-0.4257431
				c-0.0415764-0.145401-0.0830917-0.2907982-0.1246719-0.4361992c-0.0415154-0.1246109-0.0830307-0.2492218-0.1246109-0.3738289
				c-0.0519104-0.1661263-0.1142159-0.3219223-0.1869164-0.4776535c-0.1142159-0.2804031-0.249218-0.550415-0.3842239-0.8100319
				c-0.135006-0.259613-0.2907372-0.5192299-0.4673195-0.7580566c-0.0519104-0.0830917-0.1038208-0.1661873-0.1661263-0.249218
				c-0.0103951-0.0103951-0.0207901-0.0311852-0.0311852-0.0207901c-0.1349411-0.1557961-0.3322525-0.1765213-0.4984398-0.0727005
				l-0.3530426,0.2284317c0.1661263,0.1973114,0.3115273,0.405014,0.4569244,0.6231155
				c0.0207253,0.0207901,0.0311203,0.0415154,0.0415154,0.0727005c0.0830956,0.114212,0.1557312,0.2388229,0.2284317,0.3634338
				c0.1038857,0.1765213,0.2077065,0.3634987,0.290802,0.550415c0.0830917,0.1661263,0.1557312,0.3323174,0.2180977,0.4984436
				c0.0415154,0.0934868,0.0830307,0.1869125,0.1142159,0.2804031c0.0415154,0.1246109,0.0830307,0.2492218,0.1246109,0.3738327
				c0.1038208,0.3219185,0.1869164,0.6542358,0.2388268,0.9865494c0.0311813,0.1661263,0.0623055,0.3323135,0.0830917,0.5088348
				c0.0311241,0.2077065,0.0415154,0.4153481,0.0519104,0.6230545c0.0103951,0.1350021,0.0103951,0.259613,0.0103951,0.394619
				c0,0.1246109,0,0.2596169-0.0103951,0.3842239c0.2596169-0.0103951,0.4154129-0.0207253,0.4154129-0.0207253
				c0.1973076-0.0207901,0.3530388-0.1661873,0.3634338-0.3634987v-0.0623055
				C43.4669228,44.0007782,43.4565277,43.7930756,43.4358025,43.5957642z M40.6319427,39.6081085
				c-0.0830917-0.1142159-0.1661873-0.2181015-0.259613-0.3219223l-0.2181015,0.135006
				c0.1038857,0.1038208,0.1869164,0.2180367,0.2700119,0.3323135c0.0311203,0.0415154,0.0623055,0.0519104,0.1038208,0.0519104
				c0.0311813,0,0.0519714,0,0.0830917-0.0207863C40.663063,39.7431107,40.6734581,39.6600189,40.6319427,39.6081085z
				 M36.6961327,36.7419434c-0.0726357-0.0207901-0.1453362,0.0103951-0.1661263,0.0830956
				c-0.0207863,0.0623055,0.0207901,0.135006,0.0830956,0.1661263c0.135006,0.0415764,0.2700119,0.0934868,0.3946228,0.1453972
				c0.0207253-0.0934868,0.0415154-0.1765175,0.0623055-0.259613
				C36.9454193,36.8250389,36.8207436,36.7834587,36.6961327,36.7419434z"/>
			<path class="st0" d="M43.4358025,43.5957642c-0.0207901-0.4153481-0.0830956-0.8203621-0.1557961-1.2149811
				c-0.0311813-0.145401-0.0726967-0.280407-0.1038208-0.4257431c-0.0415764-0.145401-0.0830917-0.2907982-0.1246719-0.4361992
				c-0.0415154-0.1246109-0.0830307-0.2492218-0.1246109-0.3738289c-0.0519104-0.1661263-0.1142159-0.3219223-0.1869164-0.4776535
				c-0.1142159-0.2804031-0.249218-0.550415-0.3842239-0.8100319c-0.145401-0.259613-0.3011322-0.5192299-0.4673195-0.7580566
				c-0.0623055-0.0934868-0.1246109-0.1869125-0.1973114-0.2700081c-1.1318893-1.5680885-2.7414894-2.7623444-4.6211014-3.3646049
				c-0.2596169-0.0830956-0.5296288-0.1557961-0.8100319-0.2181015c-0.1973114-0.0415154-0.3842278-0.0830956-0.5815353-0.1142159
				c-0.2388268-0.0415764-0.4984436-0.0727005-0.7476616-0.0830917c-0.2284966-0.0207901-0.4465942-0.0311241-0.6750259-0.0311241
				c-0.0103951,0-0.0103951,0-0.0207901,0c-0.2388268,0-0.4672585,0.010334-0.7061462,0.0311241
				c-0.0727005,0-0.1557312,0.0103912-0.2388268,0.0207863c-0.1557922,0.0103951-0.3219185,0.0415154-0.4881096,0.0623055
				c-0.2076416,0.0311203-0.4257393,0.0727005-0.6334457,0.1246109c-0.0830956,0.0103951-0.1557312,0.0311203-0.2388268,0.0519104
				c-0.1765194,0.0519104-0.3531036,0.1038208-0.5192299,0.1557961c-1.890007,0.6022606-3.510006,1.8069115-4.6522865,3.3853951
				c-0.0103951,0.0103302-0.0103951,0.0207253-0.0207901,0.0311203c-0.1142159,0.1557922-0.2284946,0.3219185-0.3219204,0.4881096
				c-0.1142159,0.1557312-0.2077045,0.3219185-0.2908001,0.4880447c-0.0727005,0.135006-0.1453362,0.2700119-0.2077045,0.4050179
				c-0.1038208,0.1973076-0.1972466,0.405014-0.2699471,0.6230507c-0.0727005,0.1661873-0.135006,0.3323135-0.1869164,0.5088348
				c-0.0830936,0.2492218-0.1557941,0.5088387-0.2180996,0.7684517c-0.0415154,0.1661911-0.0726986,0.3427124-0.1038837,0.5088997
				c-0.0519104,0.3011322-0.0934258,0.6126556-0.1038208,0.9241829c-0.0207901,0.1973114-0.0311203,0.405014-0.0311203,0.6023254
				v0.0623055c0,2.035408,0.664566,3.91502,1.7861233,5.4415283c0.1038208,0.1557961,0.2180996,0.3011932,0.3427105,0.4361992
				c0.0830307,0.1038208,0.1765194,0.2180367,0.2803402,0.3219223c0.0934906,0.114212,0.1973114,0.2180328,0.3011951,0.3219185
				c0.1038208,0.1038208,0.2077045,0.2076416,0.3219204,0.3011322c0.2180367,0.2077026,0.4465313,0.394619,0.6853561,0.5711403
				c0.1038857,0.0727005,0.1973114,0.145401,0.3115273,0.2181015c0.5296249,0.3738289,1.1008301,0.6853561,1.7030907,0.9242439
				c0.2077065,0.0830307,0.415411,0.1557312,0.6231155,0.2284317c0.9034576,0.3011322,1.8692169,0.4673195,2.8764954,0.4673195
				c0.9554291,0,1.890007-0.1557922,2.7623444-0.4465294c0.0311203,0,0.0519104-0.0103951,0.0830307-0.0207901
				c0.0103951,0,0.0103951,0,0.0207901,0h0.0103951c0.2284279-0.0727005,0.4569244-0.1557312,0.6853561-0.2492218
				c0.4361992-0.1869164,0.8619385-0.405014,1.2669563-0.6542358c0.1765213-0.1038208,0.3427086-0.2077026,0.4984398-0.3323135
				c0.7892418-0.550354,1.495388-1.2357712,2.0665283-2.0146179c0.0311852-0.0311203,0.0623055-0.0727005,0.0830956-0.1142159
				c1.1007652-1.5161781,1.7550011-3.3853951,1.7550011-5.400013v-0.0623055
				C43.4669228,44.0007782,43.4565277,43.7930756,43.4358025,43.5957642z M41.2965736,48.9023514
				c-0.1453972,0.2180367-0.3011932,0.4361343-0.4569244,0.6334457c-0.4569244,0.5607452-0.9658241,1.0592499-1.5473595,1.495388
				c-0.1038208,0.0830956-0.2180367,0.1557312-0.3322525,0.2388268c-0.2284966,0.1453972-0.4673233,0.2907982-0.7062111,0.4258041
				c-0.1661263,0.0934258-0.3322525,0.1765213-0.4984398,0.249218c-0.1765213,0.0830345-0.3530426,0.1557312-0.5296249,0.2180367
				c-0.2388268,0.0934906-0.4880486,0.1765862-0.7476654,0.2388916c-0.7061462,0.2077026-1.4642639,0.3115234-2.2431107,0.3115234
				s-1.5265083-0.1038208-2.2326546-0.3115234c-0.2596149-0.0623055-0.5088348-0.135006-0.7477245-0.2388916
				c-0.1765213-0.0623055-0.3530426-0.1350021-0.5296268-0.2180367c-0.3011303-0.1350021-0.5918655-0.2907982-0.8722706-0.4569244
				c-0.8411522-0.5192299-1.5992718-1.1734657-2.2119293-1.9523125c-0.1661892-0.1973114-0.3219204-0.4154091-0.4569244-0.6334457
				c-0.8203621-1.2357712-1.3188667-2.6896439-1.3915672-4.2577324c-0.0103321-0.1246071-0.0103321-0.259613-0.0103321-0.3842239
				c0-0.135006,0-0.2596169,0.0103321-0.394619c0.0103951-0.2180367,0.0311852-0.4361382,0.0519733-0.6542358
				c0.0207272-0.1246109,0.0311222-0.2388268,0.0519104-0.3530426c0.0207272-0.1038857,0.0415154-0.2077065,0.0623055-0.3011932
				c0.0830956-0.4465332,0.2180367-0.8826675,0.3738308-1.3084106c0.0415154-0.0934906,0.0727005-0.1869774,0.1142159-0.2804031
				c0.2077045-0.4777145,0.4465313-0.9346428,0.7269363-1.3603821c0.1453991-0.2181015,0.3011303-0.4258041,0.4569244-0.6231155
				c0.9450359-1.1837997,2.1911392-2.1080437,3.6242218-2.6376686c0.2388897-0.0934258,0.4881096-0.1765213,0.7477245-0.2492218
				c0.0415154-0.0103951,0.0830307-0.0207901,0.1246109-0.0311852c0.2180367-0.0623055,0.4361343-0.1038208,0.6646309-0.1453362
				c0.1246109-0.0207901,0.2492218-0.0415802,0.3738289-0.0623055c0.1661263-0.0103951,0.3323174-0.0311852,0.4984436-0.0415802
				c0.1869164-0.0103912,0.3738289-0.0207253,0.5711403-0.0207253s0.3842239,0.010334,0.5712051,0.0207253
				c0.1661263,0.0103951,0.3322525,0.0311852,0.4984398,0.0415802c0.1246109,0.0207253,0.2492218,0.0415154,0.3738327,0.0623055
				c0.2284927,0.0415154,0.4465294,0.0830307,0.6646309,0.1453362c0.0519104,0.0103951,0.0934258,0.0207901,0.1350021,0.0415802
				c0.2492218,0.0623055,0.4984436,0.145401,0.7372704,0.2388268c1.4330788,0.5296249,2.68964,1.4538689,3.6242828,2.6376686
				c0.1661263,0.1973114,0.3115273,0.405014,0.4569244,0.6231155c0.0207253,0.0207901,0.0311203,0.0415154,0.0415154,0.0727005
				c0.0830956,0.114212,0.1557312,0.2388229,0.2284317,0.3634338c0.1038857,0.1765213,0.2077065,0.3634987,0.290802,0.550415
				c0.0830917,0.1661263,0.1557312,0.3323174,0.2180977,0.4984436c0.0415154,0.0934868,0.0830307,0.1869125,0.1142159,0.2804031
				c0.0415154,0.1246109,0.0830307,0.2492218,0.1246109,0.3738327c0.1038208,0.3219185,0.1869164,0.6542358,0.2388268,0.9865494
				c0.0415764,0.1661263,0.0623055,0.3323135,0.0830917,0.5088348c0.0311241,0.2077065,0.0415154,0.4153481,0.0519104,0.6230545
				c0.0103951,0.1350021,0.0103951,0.259613,0.0103951,0.394619c0,0.1246109,0,0.2596169-0.0103951,0.3842239
				C42.6153793,46.2127075,42.1169357,47.6665802,41.2965736,48.9023514z"/>
			<path class="st0" d="M34.2349854,34.1146049c-5.5869274,0-10.1353951,4.5484657-10.1353951,10.1457901
				c0,5.5869293,4.5484676,10.1353951,10.1353951,10.1353951c5.5973244,0,10.1457901-4.5484657,10.1457901-10.1353951
				C44.3807755,38.6630707,39.8323097,34.1146049,34.2349854,34.1146049z M34.2349854,54.1361732
				c-5.4415283,0-9.8757801-4.4342499-9.8757801-9.8757782c0-5.4519234,4.4342518-9.8861732,9.8757801-9.8861732
				c5.4519234,0,9.8861732,4.4342499,9.8861732,9.8861732C44.1211586,49.7019234,39.6869087,54.1361732,34.2349854,54.1361732z"/>
			<path class="st0" d="M42.688076,43.8657761c-0.0103951-0.2077065-0.0207863-0.4153481-0.0519104-0.6230545
				c-0.0207863-0.1765213-0.0519104-0.3427086-0.0830917-0.5088348c-0.0519104-0.3323135-0.135006-0.6646309-0.2388268-0.9865494
				c-0.0415802-0.1246109-0.0830956-0.2492218-0.1246109-0.3738327c-0.0311852-0.0934906-0.0727005-0.1869164-0.1142159-0.2804031
				c-0.0623665-0.1661263-0.135006-0.3323174-0.2180977-0.4984436c-0.0830956-0.1869164-0.1869164-0.3738937-0.290802-0.550415
				c-0.0727005-0.1246109-0.1453362-0.2492218-0.2284317-0.3634338c-0.0103951-0.0311852-0.0207901-0.0519104-0.0415154-0.0727005
				c-0.1453972-0.2181015-0.2907982-0.4258041-0.4569244-0.6231155l-0.4673195,0.3011932
				c0.0934258,0.1038208,0.1765213,0.2077065,0.259613,0.3219223c0.0415154,0.0519104,0.0311203,0.1350021-0.0207901,0.1765213
				c-0.0311203,0.0207863-0.0519104,0.0207863-0.0830917,0.0207863c-0.0415154,0-0.0727005-0.0103951-0.1038208-0.0519104
				c-0.0830956-0.1142769-0.1661263-0.2284927-0.2700119-0.3323135l-2.5338478,1.6303902
				c-0.3011322,0.1869164-0.6853561,0.1661263-1.0176735-0.0830917c-0.3011932-0.2181015-0.4465294-0.5815353-0.3531036-0.9138527
				c0.2077065-0.8203621,0.5192299-2.025013,0.7581215-2.9180756c-0.1246109-0.0519104-0.2596169-0.1038208-0.3946228-0.1453972
				c-0.0623055-0.0311203-0.1038818-0.1038208-0.0830956-0.1661263c0.0207901-0.0727005,0.0934906-0.1038857,0.1661263-0.0830956
				c0.1246109,0.0415154,0.2492867,0.0830956,0.3738976,0.135006c0.0519104-0.2077065,0.1038208-0.3842278,0.1453362-0.5296249
				c-0.2388268-0.0934258-0.4880486-0.1765213-0.7372704-0.2388268c-0.0415764-0.0207901-0.0830917-0.0311852-0.1350021-0.0415802
				c-0.2181015-0.0623055-0.4361382-0.1038208-0.6646309-0.1453362c-0.1246109-0.0207901-0.2492218-0.0415802-0.3738327-0.0623055
				c-0.1661873-0.0103951-0.3323135-0.0311852-0.4984398-0.0415802c-0.1869812-0.0103912-0.3738937-0.0207253-0.5712051-0.0207253
				s-0.3842239,0.010334-0.5711403,0.0207253c-0.1661263,0.0103951-0.3323174,0.0311852-0.4984436,0.0415802
				c-0.1246071,0.0207253-0.249218,0.0415154-0.3738289,0.0623055c-0.2284966,0.0415154-0.4465942,0.0830307-0.6646309,0.1453362
				c-0.0415802,0.0103951-0.0830956,0.0207901-0.1246109,0.0311852c-0.2596149,0.0727005-0.5088348,0.1557961-0.7477245,0.2492218
				c0.0415783,0.1453972,0.0934887,0.3219185,0.1453991,0.5296249c0.1246109-0.0519104,0.2596149-0.0934906,0.3842258-0.135006
				c0.0727005-0.0207901,0.135006,0.0103951,0.1661892,0.0830956c0.0207272,0.0623055-0.0207901,0.135006-0.0934887,0.1661263
				c-0.135006,0.0415764-0.2596149,0.0934868-0.3946209,0.1453972c0.2388268,0.8930626,0.5607452,2.0977135,0.7684517,2.9180756
				c0.0830956,0.3323174-0.0519104,0.6957512-0.3842258,0.9346428c-0.3115253,0.2284279-0.6957512,0.249218-0.9865513,0.0623016
				l-2.5441799-1.6303902c-0.1038837,0.1038208-0.1869793,0.2180367-0.27001,0.3323135
				c-0.0207901,0.0415154-0.0623055,0.0519104-0.1038837,0.0519104c-0.0207272,0-0.0519104,0-0.0727005-0.0207863
				c-0.0623055-0.0415192-0.0726376-0.1246109-0.0311203-0.1765213c0.0830936-0.1142159,0.1661243-0.2284966,0.2596149-0.3323174
				l-0.4673214-0.2907982c-0.1557941,0.1973114-0.3115253,0.405014-0.4569244,0.6231155
				c-0.280405,0.4257393-0.5192318,0.8826675-0.7269363,1.3603821c-0.0415154,0.0934258-0.0727005,0.1869125-0.1142159,0.2804031
				c-0.1557941,0.4257431-0.2907352,0.8618774-0.3738308,1.3084106c-0.0207901,0.0934868-0.0415783,0.1973076-0.0623055,0.3011932
				c-0.0207882,0.1142159-0.0311832,0.2284317-0.0519104,0.3530426c-0.0207882,0.2180977-0.0415783,0.4361992-0.0519733,0.6542358
				c-0.0103321,0.1350021-0.0103321,0.259613-0.0103321,0.394619c0,0.1246109,0,0.2596169,0.0103321,0.3842239
				c0.1453991,0.0103951,0.3323154,0.0207901,0.54002,0.0311852c-0.0103951-0.135006-0.0103951-0.259613-0.0103951-0.394619
				c0-0.0727005,0.0519104-0.135006,0.1246109-0.135006s0.135006,0.0623055,0.135006,0.135006
				c0,0.135006,0,0.2804031,0.0103931,0.4153442c0.9242477,0.0519753,2.1807442,0.1142807,3.0322914,0.1661911
				c0.3427086,0.0207901,0.6438408,0.2700081,0.7685146,0.6542358c0.1142159,0.3634377,0.0207253,0.7372665-0.2492847,0.955368
				c-0.6542358,0.54002-1.619997,1.329258-2.3468704,1.9211273c0.0726376,0.1246719,0.1557312,0.2388878,0.2388268,0.3531036
				c0.0415154,0.0623055,0.0311203,0.145401-0.0311852,0.1869164c-0.0207253,0.0103951-0.0415154,0.0207901-0.0726986,0.0207901
				c-0.0415154,0-0.0830326-0.0207901-0.1038208-0.0519104c-0.0830956-0.1142807-0.1557941-0.2284966-0.2388268-0.3427124
				c-0.1557941,0.1246109-0.2908001,0.2492218-0.405014,0.3427124c0.135004,0.2180367,0.2907352,0.4361343,0.4569244,0.6334457
				c0.6126575,0.7788467,1.3707771,1.4330826,2.2119293,1.9523125c0.280405,0.1661263,0.5711403,0.3219223,0.8722706,0.4569244
				c0.1765842,0.0830345,0.3531055,0.1557312,0.5296268,0.2180367c0.2388897,0.1038857,0.4881096,0.1765862,0.7477245,0.2388916
				c0.0519104-0.135006,0.1142159-0.3011971,0.1869164-0.4881096v-0.0103951
				c-0.135006-0.0311203-0.2596169-0.0623055-0.3842258-0.1038208c-0.0727005-0.0207901-0.1038837-0.0934906-0.0830956-0.1661263
				c0.0207901-0.0623055,0.0934906-0.1038857,0.1661263-0.0830956c0.135004,0.0415154,0.27001,0.0830956,0.4050159,0.1142159
				c0.3323135-0.8619423,0.7892418-2.035408,1.1007652-2.83498c0.1246109-0.3219223,0.4465332-0.5296249,0.8619423-0.5296249
				c0,0,0,0,0.0103951,0c0.3738289,0,0.6957512,0.2077026,0.8203621,0.5296249
				c0.3115234,0.799572,0.7684517,1.9730377,1.1007652,2.83498c0.135006-0.0311203,0.2700119-0.0727005,0.405014-0.1142159
				c0.0727005-0.0207901,0.145401,0.0207901,0.1661263,0.0830956c0.0207901,0.0726357-0.0207253,0.1453362-0.0830307,0.1661263
				c-0.1246109,0.0415154-0.2492218,0.0727005-0.3842239,0.1038208c0.0727005,0.1869774,0.1350021,0.3634987,0.1869125,0.4985046
				c0.2596169-0.0623055,0.5088387-0.145401,0.7476654-0.2388916c0.1765823-0.0623055,0.3531036-0.1350021,0.5296249-0.2180367
				c0.1661873-0.0726967,0.3323135-0.1557922,0.4984398-0.249218c0.2388878-0.135006,0.4777145-0.280407,0.7062111-0.4258041
				c0.1142159-0.0830956,0.2284317-0.1557312,0.3322525-0.2388268c0.5815353-0.4361382,1.090435-0.9346428,1.5473595-1.495388
				c0.1557312-0.1973114,0.3115273-0.4154091,0.4569244-0.6334457l-0.4154091-0.3427124
				c-0.0727005,0.1142159-0.145401,0.2284317-0.2284927,0.3427124c-0.0311241,0.0311203-0.0726395,0.0519104-0.1038208,0.0519104
				c-0.0311241,0-0.0623055-0.0103951-0.0830956-0.0207901c-0.0519104-0.0415154-0.0727005-0.1246109-0.0311203-0.1869164
				c0.0830917-0.1142159,0.1661263-0.2284317,0.2388229-0.3531036l-2.3365364-1.9211273
				c-0.2700119-0.2181015-0.3634377-0.5919304-0.2388268-0.9865532c0.1142159-0.3530426,0.405014-0.6022606,0.7580566-0.6230507
				c0.8515472-0.0519104,2.0977135-0.1142159,3.0219574-0.1661911c0.010334-0.1349411,0.0207291-0.2803383,0.0207291-0.4153442
				c0-0.0727005,0.0519104-0.135006,0.1246071-0.135006c0.0727005,0,0.135006,0.0623055,0.135006,0.135006
				c0,0.135006,0,0.259613-0.0207253,0.394619c0.2180367-0.0103951,0.394558-0.0207901,0.5503502-0.0311852
				c0.0103951-0.1246071,0.0103951-0.259613,0.0103951-0.3842239C42.6984711,44.1253891,42.6984711,44.0007782,42.688076,43.8657761
				z M34.2349854,46.4723244c-1.2253761,0-2.2119293-0.9969482-2.2119293-2.2119293
				c0-1.2253761,0.9865532-2.2223244,2.2119293-2.2223244s2.2223244,0.9969482,2.2223244,2.2223244
				C36.4573097,45.4753761,35.4603615,46.4723244,34.2349854,46.4723244z"/>
			<path class="st0" d="M31.9504204,36.8250389c0.0207272,0.0623055-0.0207901,0.135006-0.0934887,0.1661263
				c-0.135006,0.0415764-0.2596149,0.0934868-0.3946209,0.1453972c-1.214983,0.4673233-2.3261433,1.2565613-3.1465054,2.2846298
				c-0.1038837,0.1038208-0.1869793,0.2180367-0.27001,0.3323135c-0.0207901,0.0415154-0.0623055,0.0519104-0.1038837,0.0519104
				c-0.0207272,0-0.0519104,0-0.0727005-0.0207863c-0.0623055-0.0415192-0.0726376-0.1246109-0.0311203-0.1765213
				c0.0830936-0.1142159,0.1661243-0.2284966,0.2596149-0.3323174c0.8722725-1.0799751,2.025013-1.9107971,3.3022995-2.3988419
				c0.1246109-0.0519104,0.2596149-0.0934906,0.3842258-0.135006
				C31.8569317,36.7211533,31.9192371,36.7523384,31.9504204,36.8250389z"/>
			<path class="st0" d="M36.7584381,51.6335106c0.0207901,0.0726357-0.0207253,0.1453362-0.0830307,0.1661263
				c-0.1246109,0.0415154-0.2492218,0.0727005-0.3842239,0.1038208c-0.6646309,0.1869774-1.3603821,0.2804031-2.0561981,0.2804031
				c-0.6957512,0-1.3811073-0.0934258-2.0457382-0.2700081v-0.0103951c-0.135006-0.0311203-0.2596169-0.0623055-0.3842258-0.1038208
				c-0.0727005-0.0207901-0.1038837-0.0934906-0.0830956-0.1661263c0.0207901-0.0623055,0.0934906-0.1038857,0.1661263-0.0830956
				c0.135004,0.0415154,0.27001,0.0830956,0.4050159,0.1142159c1.2669563,0.3323135,2.6273384,0.3427086,3.8942299,0
				c0.135006-0.0311203,0.2700119-0.0727005,0.405014-0.1142159C36.6650124,51.5296249,36.7377129,51.5712051,36.7584381,51.6335106
				z"/>
			<path class="st0" d="M40.6111526,39.7846298c-0.0311203,0.0207863-0.0519104,0.0207863-0.0830917,0.0207863
				c-0.0415154,0-0.0727005-0.0103951-0.1038208-0.0519104c-0.0830956-0.1142769-0.1661263-0.2284927-0.2700119-0.3323135
				c-0.8203621-1.0280685-1.9211273-1.8173065-3.1465034-2.2846298c-0.1246109-0.0519104-0.2596169-0.1038208-0.3946228-0.1453972
				c-0.0623055-0.0311203-0.1038818-0.1038208-0.0830956-0.1661263c0.0207901-0.0727005,0.0934906-0.1038857,0.1661263-0.0830956
				c0.1246109,0.0415154,0.2492867,0.0830956,0.3738976,0.135006c1.2876816,0.4777145,2.4403572,1.3188667,3.3022995,2.4092369
				c0.0934258,0.1038208,0.1765213,0.2077065,0.259613,0.3219223C40.6734581,39.6600189,40.663063,39.7431107,40.6111526,39.7846298
				z"/>
			<path class="st0" d="M42.1584511,44.2811852c0,0.135006,0,0.259613-0.0207253,0.394619
				c-0.0623055,1.3915024-0.4985046,2.7207642-1.2565613,3.8838348c-0.0727005,0.1142159-0.145401,0.2284317-0.2284927,0.3427124
				c-0.0311241,0.0311203-0.0726395,0.0519104-0.1038208,0.0519104c-0.0311241,0-0.0623055-0.0103951-0.0830956-0.0207901
				c-0.0519104-0.0415154-0.0727005-0.1246109-0.0311203-0.1869164c0.0830917-0.1142159,0.1661263-0.2284317,0.2388229-0.3531036
				c0.7269363-1.1110992,1.1319542-2.3780556,1.2046509-3.6969223c0.010334-0.1349411,0.0207291-0.2803383,0.0207291-0.4153442
				c0-0.0727005,0.0519104-0.135006,0.1246071-0.135006C42.0961456,44.1461792,42.1584511,44.2084846,42.1584511,44.2811852z"/>
			<path class="st0" d="M28.0042152,48.9334717c-0.0207253,0.0103951-0.0415154,0.0207901-0.0726986,0.0207901
				c-0.0415154,0-0.0830326-0.0207901-0.1038208-0.0519104c-0.0830956-0.1142807-0.1557941-0.2284966-0.2388268-0.3427124
				c-0.7581196-1.1630707-1.1838608-2.4923325-1.2565613-3.8838348c-0.0103951-0.135006-0.0103951-0.259613-0.0103951-0.394619
				c0-0.0727005,0.0519104-0.135006,0.1246109-0.135006s0.135006,0.0623055,0.135006,0.135006
				c0,0.135006,0,0.2804031,0.0103931,0.4153442c0.0727005,1.3188667,0.4881115,2.5858231,1.2046509,3.6969223
				c0.0726376,0.1246719,0.1557312,0.2388878,0.2388268,0.3531036
				C28.0769157,48.8088608,28.0665207,48.8919563,28.0042152,48.9334717z"/>
			<path class="st1" d="M35.678463,44.2603951c0,0.7892418-0.6438408,1.4330826-1.4434776,1.4330826
				c-0.7892418,0-1.4330826-0.6438408-1.4330826-1.4330826c0-0.7996368,0.6438408-1.4434776,1.4330826-1.4434776
				C35.0346222,42.8169174,35.678463,43.4607582,35.678463,44.2603951z"/>
		</g>
	</g>
</g>
</svg>
