<svg width="24" height="24" viewBox="0 0 24 24" fill="none" xmlns="http://www.w3.org/2000/svg">
<g clip-path="url(#clip0_556_9039)">
<path d="M11.9997 0.479736C5.63734 0.479736 0.479736 5.63734 0.479736 11.9997C0.479736 18.3621 5.63734 23.5197 11.9997 23.5197C18.3621 23.5197 23.5197 18.3621 23.5197 11.9997C23.5197 5.63734 18.3621 0.479736 11.9997 0.479736ZM9.17974 16.7745H6.84694V9.26734H9.17974V16.7745ZM7.99894 8.34574C7.26214 8.34574 6.78574 7.82374 6.78574 7.17814C6.78574 6.51934 7.27654 6.01294 8.02894 6.01294C8.78134 6.01294 9.24214 6.51934 9.25654 7.17814C9.25654 7.82374 8.78134 8.34574 7.99894 8.34574ZM17.6997 16.7745H15.3669V12.6141C15.3669 11.6457 15.0285 10.9881 14.1849 10.9881C13.5405 10.9881 13.1577 11.4333 12.9885 11.8617C12.9261 12.0141 12.9105 12.2301 12.9105 12.4449V16.7733H10.5765V11.6613C10.5765 10.7241 10.5465 9.94054 10.5153 9.26614H12.5421L12.6489 10.3089H12.6957C13.0029 9.81934 13.7553 9.09694 15.0141 9.09694C16.5489 9.09694 17.6997 10.1253 17.6997 12.3357V16.7745Z" fill="white"/>
</g>
<defs>
<clipPath id="clip0_556_9039">
<rect width="24" height="24" fill="white"/>
</clipPath>
</defs>
</svg>
